<?xml version="1.0" standalone="no"?>
<!DOCTYPE svg PUBLIC "-//W3C//DTD SVG 20010904//EN"
 "http://www.w3.org/TR/2001/REC-SVG-20010904/DTD/svg10.dtd">
<svg version="1.0" xmlns="http://www.w3.org/2000/svg"
 width="88.000000pt" height="88.000000pt" viewBox="0 0 88.000000 88.000000"
 preserveAspectRatio="xMidYMid meet">
<metadata>
Created by potrace 1.14, written by Peter Selinger 2001-2017
</metadata>
<g transform="translate(0.000000,88.000000) scale(0.100000,-0.100000)"
fill="#000000" stroke="none">
<path d="M418 855 c-126 -43 -331 -285 -384 -450 -43 -139 29 -315 156 -378
37 -19 66 -25 129 -26 86 -2 85 -2 81 48 -3 37 -27 68 -81 103 -29 18 -52 42
-56 56 -5 21 1 124 12 217 2 17 6 55 10 85 12 112 17 135 31 150 28 29 35 -7
29 -140 -4 -69 -8 -139 -11 -157 -2 -23 3 -40 20 -59 l23 -27 21 21 c17 17 22
35 23 75 4 204 13 287 34 287 20 0 24 -20 30 -185 4 -82 11 -157 16 -167 24
-46 83 -3 74 54 -4 29 -18 246 -17 272 1 30 20 43 37 25 15 -15 18 -31 30
-154 4 -38 9 -79 11 -89 9 -49 16 -187 10 -210 -3 -14 -20 -32 -36 -41 -16 -8
-46 -31 -65 -51 -29 -28 -35 -42 -35 -75 l0 -41 68 4 c83 4 184 50 231 103 42
49 65 131 57 210 -16 167 -108 351 -233 465 -84 76 -147 99 -215 75z"/>
</g>
</svg>
