<svg xmlns="http://www.w3.org/2000/svg" data-name="Group 1462" viewBox="0 0 96.94 32.93"><rect width="96.94" height="32.93" data-name="Rectangle 1153" rx="4"/><path fill="#fff" d="M19.64 16.7a4.08 4.08 0 011.95-3.42 4.18 4.18 0 00-3.3-1.78c-1.38-.14-2.72.83-3.43.83s-1.8-.81-2.97-.79a4.39 4.39 0 00-3.7 2.25c-1.6 2.76-.4 6.82 1.13 9.05.76 1.1 1.66 2.32 2.83 2.28 1.14-.05 1.57-.73 2.95-.73s1.77.73 2.96.7c1.23-.02 2-1.1 2.74-2.2a9.04 9.04 0 001.25-2.56 3.94 3.94 0 01-2.4-3.62z" data-name="Path 14787"/><path fill="#fff" d="M17.39 10.04a4.01 4.01 0 00.92-2.88 4.09 4.09 0 00-2.65 1.37 3.83 3.83 0 00-.94 2.77 3.38 3.38 0 002.67-1.26z" data-name="Path 14788"/><path fill="#fff" d="M30.6 21.07h3.1l-1.53-4.5h-.04l-1.52 4.5zm3.5 1.28h-3.9l-.93 2.77H27.6l3.7-10.25h1.72l3.7 10.25h-1.68l-.94-2.77z" data-name="Path 14789"/><path fill="#fff" d="M43.13 21.38c0-1.5-.78-2.5-1.97-2.5-1.17 0-1.96 1.01-1.96 2.5s.79 2.52 1.96 2.52c1.2 0 1.97-1 1.97-2.52zm1.58 0c0 2.32-1.24 3.81-3.12 3.81a2.53 2.53 0 01-2.35-1.3h-.03v3.7h-1.53v-9.94h1.48v1.24h.03a2.65 2.65 0 012.37-1.32c1.9 0 3.15 1.5 3.15 3.82z" data-name="Path 14790"/><path fill="#fff" d="M51.35 21.38c0-1.5-.78-2.5-1.97-2.5-1.17 0-1.96 1.01-1.96 2.5s.79 2.52 1.96 2.52c1.2 0 1.97-1 1.97-2.52zm1.58 0c0 2.32-1.25 3.81-3.12 3.81a2.53 2.53 0 01-2.35-1.3h-.04v3.7H45.9v-9.94h1.49v1.24h.02a2.65 2.65 0 012.38-1.32c1.9 0 3.15 1.5 3.15 3.82z" data-name="Path 14791"/><path fill="#fff" d="M58.36 22.26c.11 1.02 1.1 1.69 2.45 1.69 1.29 0 2.22-.67 2.22-1.59 0-.8-.56-1.27-1.89-1.6l-1.33-.32c-1.88-.45-2.75-1.33-2.75-2.76 0-1.77 1.54-2.98 3.73-2.98 2.16 0 3.64 1.21 3.7 2.98h-1.55c-.1-1.02-.94-1.64-2.17-1.64s-2.08.63-2.08 1.53c0 .73.54 1.15 1.86 1.48l1.12.28c2.1.5 2.98 1.34 2.98 2.84 0 1.91-1.53 3.11-3.96 3.11-2.27 0-3.8-1.17-3.9-3.02z" data-name="Path 14792"/><path fill="#fff" d="M67.95 15.88v1.77h1.43v1.21h-1.43v4.12c0 .64.29.94.91.94.16 0 .4-.03.5-.04v1.2a4.25 4.25 0 01-.85.08c-1.5 0-2.1-.57-2.1-2.02v-4.28h-1.08v-1.21h1.09v-1.77z" data-name="Path 14793"/><path fill="#fff" d="M75.72 21.38c0-1.6-.74-2.56-1.98-2.56s-1.98.96-1.98 2.56.74 2.57 1.98 2.57 1.98-.95 1.98-2.57zm-5.52 0c0-2.35 1.38-3.82 3.54-3.82s3.54 1.47 3.54 3.82-1.37 3.83-3.54 3.83-3.54-1.47-3.54-3.83z" data-name="Path 14794"/><path fill="#fff" d="M78.54 17.65h1.47v1.27h.03a1.78 1.78 0 011.8-1.35 2.35 2.35 0 01.53.06v1.43a2.16 2.16 0 00-.7-.1 1.54 1.54 0 00-1.6 1.73v4.42h-1.52v-7.46z" data-name="Path 14795"/><path fill="#fff" d="M84.25 20.7h3.73a1.8 1.8 0 00-1.83-1.9 1.9 1.9 0 00-1.9 1.9zm5.18 2.22a3 3 0 01-3.22 2.29c-2.17 0-3.52-1.46-3.52-3.8s1.36-3.85 3.46-3.85c2.07 0 3.37 1.41 3.37 3.68v.52h-5.28v.1a1.95 1.95 0 002.01 2.11 1.69 1.69 0 001.72-1.05z" data-name="Path 14796"/><path fill="#fff" d="M29.4 11.4h.93a1.77 1.77 0 000-3.54h-.93v3.53zm1.01-4.23a2.46 2.46 0 010 4.92h-1.78V7.17z" data-name="Path 14797"/><path fill="#fff" d="M36.34 10.23c0-.8-.36-1.28-1-1.28s-1 .47-1 1.28.36 1.28 1 1.28 1-.47 1-1.28zm-2.75 0a1.76 1.76 0 111.75 1.93 1.7 1.7 0 01-1.75-1.93z" data-name="Path 14798"/><path fill="#fff" d="M41.75 12.09H41l-.77-2.74h-.06l-.76 2.74h-.75l-1.03-3.72h.75l.66 2.84h.06l.76-2.84h.7l.76 2.84h.06l.66-2.84h.74l-1.02 3.72z" data-name="Path 14799"/><path fill="#fff" d="M43.63 8.37h.7v.6h.06a1.11 1.11 0 011.1-.67 1.2 1.2 0 011.3 1.38v2.4h-.74V9.86c0-.6-.26-.9-.8-.9a.85.85 0 00-.89.95v2.17h-.73V8.37z" data-name="Path 14800"/><path fill="#fff" d="M47.95 6.92h.74v5.17h-.74V6.92z" data-name="Path 14801"/><path fill="#fff" d="M52.45 10.23c0-.8-.36-1.28-1-1.28s-1 .47-1 1.28.36 1.28 1 1.28 1-.47 1-1.28zm-2.75 0a1.76 1.76 0 111.76 1.93 1.7 1.7 0 01-1.76-1.93z" data-name="Path 14802"/><path fill="#fff" d="M56.37 10.72v-.31l-.91.06c-.51.03-.74.2-.74.53s.29.53.69.53a.88.88 0 00.96-.81zm-2.39.32c0-.67.5-1.06 1.38-1.11l1-.06v-.32c0-.4-.25-.62-.75-.62-.41 0-.7.15-.78.42h-.7c.07-.64.67-1.05 1.51-1.05.93 0 1.46.46 1.46 1.25v2.54h-.7v-.53h-.07a1.25 1.25 0 01-1.11.59 1.12 1.12 0 01-1.24-1.11z" data-name="Path 14803"/><path fill="#fff" d="M58.82 10.23c0 .79.37 1.26.99 1.26s1-.48 1-1.26-.39-1.26-1-1.26-1 .48-1 1.26zm-.76 0c0-1.17.6-1.92 1.54-1.92a1.22 1.22 0 011.14.65h.06V6.92h.73v5.17h-.7v-.59h-.06a1.29 1.29 0 01-1.17.65c-.94 0-1.54-.74-1.54-1.92z" data-name="Path 14804"/><path fill="#fff" d="M67.3 10.23c0-.8-.35-1.28-1-1.28s-1 .47-1 1.28.37 1.28 1 1.28 1-.47 1-1.28zm-2.74 0a1.76 1.76 0 111.75 1.93 1.7 1.7 0 01-1.75-1.93z" data-name="Path 14805"/><path fill="#fff" d="M69.05 8.37h.7v.6h.06a1.11 1.11 0 011.1-.67 1.2 1.2 0 011.29 1.38v2.4h-.73V9.86c0-.6-.26-.9-.8-.9a.85.85 0 00-.89.95v2.17h-.73V8.37z" data-name="Path 14806"/><path fill="#fff" d="M76.34 7.45v.94h.8v.62h-.8v1.9c0 .4.16.57.53.57a2.58 2.58 0 00.28-.02v.61a2.42 2.42 0 01-.4.04c-.82 0-1.14-.29-1.14-1V9H75v-.62h.6v-.94z" data-name="Path 14807"/><path fill="#fff" d="M78.15 6.92h.72v2.05h.06a1.14 1.14 0 011.13-.66 1.22 1.22 0 011.28 1.38v2.4h-.73V9.87c0-.6-.28-.9-.8-.9a.87.87 0 00-.93.95v2.17h-.73V6.92z" data-name="Path 14808"/><path fill="#fff" d="M83.04 9.89h1.87a.9.9 0 00-.9-.97.95.95 0 00-.97.97zm2.58 1.2A1.5 1.5 0 0184 12.16a1.69 1.69 0 01-1.72-1.92A1.71 1.71 0 0184 8.3c1.04 0 1.66.71 1.66 1.88v.25h-2.62v.04a.98.98 0 00.99 1.07.89.89 0 00.88-.45z" data-name="Path 14809"/></svg>