<svg xmlns="http://www.w3.org/2000/svg" viewBox="0 0 111.14 32.93"><defs><linearGradient id="a" x1=".92" x2="-.38" y1="-419.3" y2="-419.97" gradientUnits="objectBoundingBox"><stop offset="0" stop-color="#00a0ff"/><stop offset=".01" stop-color="#00a1ff"/><stop offset=".26" stop-color="#00beff"/><stop offset=".51" stop-color="#00d2ff"/><stop offset=".76" stop-color="#00dfff"/><stop offset="1" stop-color="#00e3ff"/></linearGradient><linearGradient id="b" x1="1.08" x2="-1.3" y1="-1231.17" y2="-1231.17" gradientUnits="objectBoundingBox"><stop offset="0" stop-color="#ffe000"/><stop offset=".41" stop-color="#ffbd00"/><stop offset=".78" stop-color="orange"/><stop offset="1" stop-color="#ff9c00"/></linearGradient><linearGradient id="c" x1=".86" x2="-.5" y1="-819.38" y2="-821.14" gradientUnits="objectBoundingBox"><stop offset="0" stop-color="#ff3a44"/><stop offset="1" stop-color="#c31162"/></linearGradient><linearGradient id="d" x1="-.19" x2=".42" y1="-816.74" y2="-817.53" gradientUnits="objectBoundingBox"><stop offset="0" stop-color="#32a071"/><stop offset=".07" stop-color="#2da771"/><stop offset=".48" stop-color="#15cf74"/><stop offset=".8" stop-color="#06e775"/><stop offset="1" stop-color="#00f076"/></linearGradient></defs><g data-name="Group 1461" transform="translate(-8.23 -8.23)"><rect width="111.14" height="32.93" data-name="Rectangle 1146" rx="4" transform="translate(8.23 8.23)"/><g fill="#fff" stroke="#fff" stroke-miterlimit="10" stroke-width=".2" data-name="Group 1458"><path d="M47.27 16.67a2.23 2.23 0 01-.61 1.64 2.4 2.4 0 01-1.82.73 2.58 2.58 0 110-5.16 2.54 2.54 0 011.02.21 2.04 2.04 0 01.77.55l-.44.44a1.67 1.67 0 00-1.35-.59 1.97 1.97 0 101.38 3.4 1.55 1.55 0 00.42-1h-1.8v-.6h2.4a2.1 2.1 0 01.03.38z" data-name="Path 14769"/><path d="M51.07 14.6h-2.25v1.57h2.02v.6h-2.02v1.56h2.25v.6h-2.89V14h2.89z" data-name="Path 14770"/><path d="M53.74 18.93h-.63V14.6h-1.38V14h3.4v.6h-1.39z" data-name="Path 14771"/><path d="M57.58 18.93V14h.63v4.93z" data-name="Path 14772"/><path d="M61.03 18.93h-.64V14.6h-1.38V14h3.4v.6h-1.38z" data-name="Path 14773"/><path d="M68.83 18.3a2.57 2.57 0 01-3.62 0 2.67 2.67 0 010-3.67 2.56 2.56 0 013.62 0 2.66 2.66 0 010 3.66zm-3.15-.42a1.9 1.9 0 002.68 0 2.1 2.1 0 000-2.83 1.9 1.9 0 00-2.68 0 2.1 2.1 0 000 2.83z" data-name="Path 14774"/><path d="M70.45 18.93V14h.78l2.4 3.84h.02l-.02-.95v-2.9h.63v4.94h-.66l-2.51-4.02h-.03l.03.95v3.07z" data-name="Path 14775"/></g><path fill="#fff" d="M64.33 26.14a3.5 3.5 0 103.51 3.5 3.45 3.45 0 00-3.51-3.5zm0 5.62a2.13 2.13 0 111.97-2.12 2.03 2.03 0 01-1.97 2.12zm-7.67-5.62a3.5 3.5 0 103.51 3.5 3.45 3.45 0 00-3.51-3.5zm0 5.62a2.13 2.13 0 111.98-2.12 2.03 2.03 0 01-1.98 2.12zm-9.12-4.54v1.48h3.55a3.1 3.1 0 01-.8 1.87 3.64 3.64 0 01-2.75 1.09 3.95 3.95 0 010-7.9 3.79 3.79 0 012.68 1.06l1.05-1.05a5.18 5.18 0 00-3.73-1.5 5.44 5.44 0 100 10.88 4.97 4.97 0 003.8-1.53 4.9 4.9 0 001.28-3.47 4.86 4.86 0 00-.08-.93zm37.3 1.15a3.25 3.25 0 00-3-2.23 3.33 3.33 0 00-3.3 3.5 3.43 3.43 0 003.47 3.5 3.48 3.48 0 002.92-1.55l-1.2-.8a2 2 0 01-1.72.97 1.78 1.78 0 01-1.7-1.06L85 28.76zm-4.78 1.17a1.92 1.92 0 011.83-2.05 1.35 1.35 0 011.3.75zm-3.8 3.4h1.53v-10.3h-1.53zm-2.52-6.01h-.06a2.42 2.42 0 00-1.84-.79 3.5 3.5 0 000 7 2.38 2.38 0 001.84-.8h.06v.5c0 1.34-.72 2.06-1.87 2.06a1.94 1.94 0 01-1.77-1.25l-1.34.56a3.34 3.34 0 003.1 2.07c1.8 0 3.33-1.06 3.33-3.65v-6.28h-1.46zm-1.77 4.84a2.13 2.13 0 010-4.25 2.14 2.14 0 010 4.25zm20.07-9.13h-3.68v10.3h1.54v-3.9h2.14a3.2 3.2 0 100-6.4zm.04 4.96H89.9v-3.53h2.18a1.76 1.76 0 110 3.53zm9.5-1.47a2.89 2.89 0 00-2.74 1.57l1.36.57a1.46 1.46 0 011.4-.75 1.48 1.48 0 011.62 1.32v.1a3.4 3.4 0 00-1.6-.4c-1.47 0-2.97.81-2.97 2.32a2.38 2.38 0 002.56 2.27 2.17 2.17 0 001.96-1h.05v.79h1.48v-3.95a2.82 2.82 0 00-3.12-2.85zm-.19 5.64c-.5 0-1.2-.25-1.2-.88 0-.8.88-1.1 1.63-1.1a2.73 2.73 0 011.4.35 1.86 1.86 0 01-1.83 1.62zm8.71-5.42l-1.76 4.46h-.05l-1.83-4.46h-1.65l2.74 6.24-1.56 3.47h1.6l4.22-9.7zm-13.83 6.59h1.53v-10.3h-1.53z" data-name="Path 14776"/><g data-name="Group 1460"><path fill="url(#a)" d="M1328.76 301.84a1.65 1.65 0 00-.38 1.15v18.21a1.65 1.65 0 00.38 1.16l.06.06 10.2-10.2v-.25l-10.2-10.2z" data-name="Path 14777" transform="translate(-1311.94 -287.4)"/><path fill="url(#b)" d="M1341.87 315.27l-3.4-3.4v-.24l3.4-3.4.08.04 4.03 2.29a1.25 1.25 0 010 2.37l-4.03 2.3z" data-name="Path 14778" transform="translate(-1311.39 -287.05)"/><path fill="url(#c)" d="M1342.48 315.04l-3.48-3.48-10.26 10.26a1.34 1.34 0 001.71.05l12.03-6.83" data-name="Path 14779" transform="translate(-1311.92 -286.86)"/><path fill="url(#d)" d="M1342.48 308.63l-12.03-6.83a1.34 1.34 0 00-1.7.05l10.25 10.26z" data-name="Path 14780" transform="translate(-1311.92 -287.41)"/><g data-name="Group 1459"><path d="M30.48 28.1l-11.95 6.79a1.37 1.37 0 01-1.65 0l-.06.07.06.06a1.37 1.37 0 001.65-.01l12.03-6.83z" data-name="Path 14781" opacity=".2" style="isolation:isolate"/><path d="M16.82 34.84a1.65 1.65 0 01-.38-1.16v.12a1.65 1.65 0 00.38 1.16l.06-.06z" data-name="Path 14782" opacity=".12" style="isolation:isolate"/></g><path d="M34.59 25.77l-4.1 2.33.07.08 4.03-2.3a1.45 1.45 0 00.86-1.18 1.53 1.53 0 01-.86 1.07z" data-name="Path 14783" opacity=".12" style="isolation:isolate"/><path fill="#fff" d="M18.53 14.5l16.06 9.13a1.53 1.53 0 01.86 1.07 1.44 1.44 0 00-.86-1.19L18.53 14.4c-1.15-.65-2.09-.11-2.09 1.2v.13c0-1.32.94-1.86 2.1-1.21z" data-name="Path 14784" opacity=".25" style="isolation:isolate"/></g></g></svg>