<svg xmlns="http://www.w3.org/2000/svg" xmlns:xlink="http://www.w3.org/1999/xlink" viewBox="0 0 3453.33 1788"><defs><style>.cls-1{fill:#98c8db;}.cls-2{fill:#fed4c7;}.cls-10,.cls-15,.cls-16,.cls-3,.cls-8{fill:#fff;}.cls-4{fill:#22a78d;}.cls-5{fill:#59221d;}.cls-12,.cls-14,.cls-17,.cls-18,.cls-19,.cls-6,.cls-7,.cls-9{fill:none;}.cls-10,.cls-13,.cls-14,.cls-15,.cls-6,.cls-9{stroke:#59221d;}.cls-10,.cls-12,.cls-13,.cls-14,.cls-15,.cls-16,.cls-17,.cls-18,.cls-19,.cls-6,.cls-7,.cls-9{stroke-miterlimit:10;}.cls-10,.cls-12,.cls-13,.cls-14,.cls-15,.cls-16,.cls-17,.cls-18,.cls-19,.cls-6,.cls-7,.cls-8,.cls-9{stroke-width:5px;}.cls-7,.cls-8{stroke:#22a78d;}.cls-10,.cls-14,.cls-17,.cls-19,.cls-7,.cls-9{stroke-linecap:round;}.cls-8{stroke-linejoin:round;}.cls-11,.cls-13{fill:#a74602;}.cls-12,.cls-17{stroke:#fff;}.cls-14{stroke-dasharray:20;}.cls-16,.cls-19{stroke:#f3b304;}.cls-18{stroke:#98c8db;}</style></defs><title>illustration</title><g id="Слой_1" data-name="Слой 1"><g id="Layer_2" data-name="Layer 2"><g id="Слой_1-2" data-name="Слой 1"><g id="BUILDING"><rect class="cls-1" x="2615.41" y="714.32" width="318.92" height="300.27"/><path class="cls-2" d="M2152.05,342.45V487H1945.51a171.19,171.19,0,0,0-171.2,171.19V342.45Z"/><polygon class="cls-1" points="1437.19 213.45 1290.55 342.46 845.18 342.66 845.18 342.46 845.29 342.46 991.92 213.45 1437.19 213.45"/><path class="cls-3" d="M3248.42,1258.26v346.55H453.73V792.35L845.18,523.93V342.66h445.37v-.21l241.89-212.81,241.89,212.81V658.14a171.2,171.2,0,1,1,342.39,0v55.93C2212.54,699.37,2302,627.8,2368.43,487c45.67,96.9,99.57,158.53,159.75,194a279.77,279.77,0,0,0,87.22,33.34v300.26l314.13,243.68Z"/><polygon class="cls-2" points="2615.41 1014.58 2934.34 1014.58 3248.45 1258.27 2929.53 1258.27 2615.41 1014.58"/><path class="cls-4" d="M2366.59,174.86A67.62,67.62,0,0,0,2299,242.48c0,37.34,67.62,138.29,67.62,138.29s67.6-100.94,67.6-138.29A67.62,67.62,0,0,0,2366.59,174.86Zm0,87.94a20.13,20.13,0,1,1,20.12-20.14v0A20.13,20.13,0,0,1,2366.59,262.8Z"/><path class="cls-5" d="M2368.41,487C2302,627.8,2212.51,699.34,2116.7,714.07V658.14a171.2,171.2,0,0,0-171.2-171.2Z"/><line class="cls-6" x1="2615.41" y1="486.95" x2="2615.41" y2="309.21"/><line class="cls-6" x1="2544" y1="342.46" x2="2651.37" y2="342.46"/><line class="cls-6" x1="2568.07" y1="358.95" x2="2651.37" y2="358.95"/><circle class="cls-2" cx="1541.59" cy="333.98" r="64.1"/><circle class="cls-6" cx="1530.37" cy="317.14" r="64.1"/><line class="cls-6" x1="1530.37" y1="253.03" x2="1530.37" y2="381.24"/><line class="cls-6" x1="1594.46" y1="317.14" x2="1466.27" y2="317.14"/><path class="cls-6" d="M1243.3,113.87V250.24a27.6,27.6,0,0,1-27.6,27.59h0a27.6,27.6,0,0,1-27.58-27.59V113.87a27.6,27.6,0,1,0,55.19,0v0Z"/><circle class="cls-6" cx="1215.72" cy="113.87" r="27.59"/><polygon class="cls-5" points="1232.08 274.8 1309.91 213.45 1243.31 213.45 1243.31 257.29 1232.08 274.8"/><rect class="cls-7" x="907.35" y="401.15" width="138.84" height="54.61"/><rect class="cls-7" x="1069.48" y="401.15" width="138.84" height="54.61"/><rect class="cls-7" x="907.35" y="480.61" width="138.84" height="54.61"/><rect class="cls-4" x="1069.48" y="480.61" width="138.84" height="54.61"/><path class="cls-7" d="M2369.06,725.62h7.17a101.63,101.63,0,0,1,101.63,101.63h0v447.5H2267.43V827.25a101.63,101.63,0,0,1,101.63-101.63Z"/><line class="cls-7" x1="2372.64" y1="725.62" x2="2372.64" y2="1274.75"/><line class="cls-7" x1="2267.43" y1="836.08" x2="2477.86" y2="836.08"/><line class="cls-7" x1="2267.43" y1="945.94" x2="2477.86" y2="945.94"/><line class="cls-7" x1="2267.43" y1="1055.79" x2="2477.86" y2="1055.79"/><line class="cls-7" x1="2267.43" y1="1165.64" x2="2477.86" y2="1165.64"/><path class="cls-1" d="M2934.34,714.32H2615.41A279.23,279.23,0,0,1,2528.2,681c-60.19-35.53-114.08-97.15-159.76-194h318.92C2754.1,628.58,2838.45,694.94,2934.34,714.32Z"/><polygon class="cls-8" points="1532.44 129.64 1910.17 129.64 2152.05 342.46 1774.33 342.46 1532.44 129.64"/><line class="cls-7" x1="1854.41" y1="129.64" x2="2096.3" y2="342.46"/><line class="cls-7" x1="1792.76" y1="129.64" x2="2034.65" y2="342.46"/><line class="cls-7" x1="1731.12" y1="129.64" x2="1973.01" y2="342.46"/><line class="cls-7" x1="1669.48" y1="129.64" x2="1911.36" y2="342.46"/><line class="cls-7" x1="1607.83" y1="129.64" x2="1849.72" y2="342.46"/><polyline class="cls-7" points="1290.55 342.46 1532.44 129.64 1910.17 129.64"/><polyline class="cls-7" points="846.85 342.66 846.85 523.31 453.73 792.35 453.73 1604.81"/></g><g id="PLANTS"><path class="cls-4" d="M2265.65,1608.36H3453.22s0-382.86-345.06-390.25c-273.15-5.85-245.35,232.87-441.37,236C2568.36,1455.68,2265.65,1327,2265.65,1608.36Z"/><path class="cls-3" d="M3313.08,1576.9a121.51,121.51,0,0,1-4.12,31.46h-234.6a121.43,121.43,0,1,1,238.72-31.46Z"/><line class="cls-7" x1="3191.67" y1="1455.42" x2="3191.67" y2="1606.68"/><line class="cls-7" x1="3221.46" y1="1460" x2="3191.67" y2="1500.8"/><line class="cls-7" x1="3129.65" y1="1471.99" x2="3191.67" y2="1549.35"/><line class="cls-7" x1="3288.9" y1="1504.3" x2="3263.32" y2="1553.53"/><line class="cls-7" x1="3095.58" y1="1500.8" x2="3152.43" y2="1500.8"/><line class="cls-7" x1="3071.17" y1="1562.65" x2="3120.36" y2="1607.03"/><line class="cls-7" x1="3191.67" y1="1573.74" x2="3308.36" y2="1541.37"/><ellipse class="cls-2" cx="710.5" cy="1115.09" rx="194.28" ry="350.77"/><line class="cls-9" x1="710.5" y1="880.03" x2="710.5" y2="1606.68"/><path class="cls-9" d="M747.91,925.6c0,5.92-.45,9.24-2.94,14.6L719.13,996a92.51,92.51,0,0,0-8.59,39"/><path class="cls-9" d="M650.65,1008.7v28a75.17,75.17,0,0,0,21.27,52.4l17.68,18.2a73.77,73.77,0,0,1,20.9,51.46"/><path class="cls-9" d="M768.61,1148.61v39.2a70.3,70.3,0,0,1-17.85,46.78l-25.13,28.15a59.54,59.54,0,0,0-15.13,39.65"/><path class="cls-9" d="M628.59,1248.76a62.43,62.43,0,0,0,36.78,56.92l19.55,8.82a43.44,43.44,0,0,1,25.58,39.57"/><path class="cls-9" d="M800.42,1096.42h19.7v19.7A32.11,32.11,0,0,1,788,1148.23H768.3v-19.69a32.12,32.12,0,0,1,32.11-32.12Z"/><path class="cls-9" d="M780,894.69h1.14v1.13A32.12,32.12,0,0,1,749,927.94h-1.13v-1.13A32.12,32.12,0,0,1,780,894.69Z"/><path class="cls-5" d="M737,1137.6l.49-1h0l1,.49a32.12,32.12,0,0,1,15.14,42.82h0l-.49,1h0l-1-.48A32.13,32.13,0,0,1,737,1137.6Z"/><path class="cls-5" d="M668.74,943.53l1-.58h0l.56,1a32.11,32.11,0,0,1-11.75,43.87h0l-1,.57h0l-.57-1A32.12,32.12,0,0,1,668.74,943.53Z"/><path class="cls-5" d="M768.45,1369.72l1,.42h0l-.41,1a32.13,32.13,0,0,1-41.62,18.19h0l-1.05-.41h0l.41-1.06a32.13,32.13,0,0,1,41.62-18.19Z"/><path class="cls-5" d="M672.25,1249.14l.5-1.05h0l1,.48a32.13,32.13,0,0,1,15.14,42.83h0l-.49,1h0l-1-.49A32.12,32.12,0,0,1,672.25,1249.14Z"/><path class="cls-9" d="M650.08,1010.63h-3.73a32.12,32.12,0,0,1-32.11-32.12h0v-3.73H618a32.12,32.12,0,0,1,32.12,32.12h0v3.73Z"/><path class="cls-9" d="M700.14,827.24l9.75-9.75h0l9.75,9.75a32.12,32.12,0,0,1,0,45.42h0l-9.73,9.73h0l-9.75-9.75A32.12,32.12,0,0,1,700.14,827.24Z"/><path class="cls-9" d="M618.91,1195.64l9.75-9.76h0l9.76,9.76a32.12,32.12,0,0,1,0,45.42h0l-9.76,9.75h0l-9.75-9.75a32.12,32.12,0,0,1,0-45.42Z"/><path class="cls-5" d="M800.79,940.54l.76.83h0l-.83.76a32.11,32.11,0,0,1-45.37-2h0l-.77-.83h0l.84-.77a32.11,32.11,0,0,1,45.37,2Z"/><ellipse class="cls-10" cx="2513.11" cy="1270.81" rx="145.12" ry="221.38"/><line class="cls-9" x1="2504.2" y1="1088.81" x2="2504.2" y2="1607.56"/><path class="cls-9" d="M2543.8,1147.62a78.45,78.45,0,0,1-11.4,40.73l-19.44,32a60.24,60.24,0,0,0-8.76,31.28"/><path class="cls-9" d="M2465.11,1165.82v74.79a84.07,84.07,0,0,0,13.49,45.67l12.78,19.78a80,80,0,0,1,12.82,43.43"/><path class="cls-9" d="M2543.8,1289.44v32.3a88.38,88.38,0,0,1-10.21,41.19l-23.92,45.32a47.45,47.45,0,0,0-5.47,22.11"/><path class="cls-9" d="M2548.05,1514.75h19.69v19.7a32.12,32.12,0,0,1-32.11,32.12h-19.7v-19.7a32.12,32.12,0,0,1,32.12-32.12Z"/><line class="cls-9" x1="2504.2" y1="1577.08" x2="2548.2" y2="1536.31"/><path class="cls-4" d="M2543.58,1273.93l-.92-.47a29.41,29.41,0,0,1-12.64-39.61l.48-.92h0l.92.48a29.39,29.39,0,0,1,12.64,39.6l-.47.92Z"/><path class="cls-4" d="M2544.67,1148.72l-.26-1a29.4,29.4,0,0,1,21.47-35.6l1-.25h0l.25,1a29.4,29.4,0,0,1-21.46,35.6l-1,.25Z"/><path class="cls-9" d="M2543.58,1148.56l-.89-.52a29.39,29.39,0,0,1-10.76-40.15l.52-.9h0l.92.54a29.39,29.39,0,0,1,10.76,40.15l-.52.9Z"/><path class="cls-4" d="M2474.32,1376.1l-1,0a29.39,29.39,0,0,1-27.77-30.93l.05-1h0l1,.06a29.4,29.4,0,0,1,27.78,30.93l-.06,1Z"/><path class="cls-9" d="M2555.68,1276.24l-.12-1.25a35.42,35.42,0,0,1,31.93-38.59h0l1.25-.12h0l.11,1.25a35.41,35.41,0,0,1-31.92,38.59h0l-1.25.12Z"/><path class="cls-9" d="M2475.25,1373.78l-.89-.88a35.42,35.42,0,0,1,0-50.09h0l.89-.89h0l.88.89a35.42,35.42,0,0,1,0,50.09h0l-.88.88Z"/><path class="cls-9" d="M2435.58,1207.62v5.53a16.15,16.15,0,0,0,16.15,16.15h0a13.42,13.42,0,0,1,13.42,13.43h0"/></g><g id="CHARACTER_ON_SCOOTER" data-name="CHARACTER ON SCOOTER"><g id="SCOOTER"><path class="cls-11" d="M1227.72,1132.49h314.71v5.87a45.39,45.39,0,0,1-45.39,45.39H1188.12v-11.66a39.57,39.57,0,0,1,39.54-39.6Z"/><circle class="cls-11" cx="2221.16" cy="1532.71" r="124.28"/><path class="cls-5" d="M2120.79,1606a124.28,124.28,0,0,1,183.64-165.54Z"/><circle class="cls-12" cx="2221.16" cy="1532.75" r="35.6"/><circle class="cls-11" cx="1086.46" cy="1532.71" r="124.28"/><path class="cls-5" d="M968.62,1493.1a124.31,124.31,0,0,1,242.12,39.57Z"/><circle class="cls-12" cx="1086.51" cy="1532.75" r="35.6"/><path class="cls-4" d="M2044,937.38a59.28,59.28,0,0,1-115.53,18.74l100-58.69A59.12,59.12,0,0,1,2044,937.38Z"/><path class="cls-10" d="M2028.48,897.43l-100,58.69a59.29,59.29,0,0,1,100-58.69Z"/><path class="cls-10" d="M1442.65,1520.5V1183.76H1209.92c-168.82,0-309.29,129.78-322.57,298.07h290.71a139.37,139.37,0,0,1,103.67,46.23l42.3,47.07a89.42,89.42,0,0,0,66.55,29.69h581.51a129.66,129.66,0,0,0,65.57-17.82L2352,1402.6s-34.11-109.95-175.85-80.5L1933.19,924.72A49.63,49.63,0,0,0,1890.86,901h-45.14v21.75h19.07A49.63,49.63,0,0,1,1910,951.9l148.33,327.95c61.07,135-37.64,288-185.79,288H1489.94a47.29,47.29,0,0,1-47.29-47.29Z"/><path class="cls-6" d="M916.19,1481a173.31,173.31,0,0,1,344.35,28"/><path class="cls-6" d="M2177.62,1321.32c-34.62,10-63.14,32.59-79.2,61.93"/><circle class="cls-5" cx="1848.03" cy="902.86" r="24.75"/><ellipse class="cls-4" cx="1856.12" cy="723.85" rx="51.39" ry="19.52" transform="translate(169.81 1784.76) rotate(-53.48)"/><ellipse class="cls-9" cx="1849.5" cy="718.27" rx="53.03" ry="20.15" transform="translate(171.62 1777.17) rotate(-53.48)"/><path class="cls-9" d="M1917.59,908.83V813.62a52.52,52.52,0,0,0-13.49-35.13l-53.71-59.58"/><path class="cls-5" d="M1442.65,1183.76v55.16l-254.53-54.36v0q10.82-.75,21.81-.74Z"/><line class="cls-6" x1="1086.46" y1="1656.99" x2="2466.89" y2="1656.99"/><line class="cls-6" x1="1558.33" y1="1700.7" x2="2351.96" y2="1700.7"/><g id="SMOKE"><path class="cls-1" d="M875.39,1533A143.25,143.25,0,0,0,735.76,1421.8a148.36,148.36,0,0,1-132.37-81.38l-40.29-79.66c-47.19-93.28-161.06-130.65-254.35-83.46a189.31,189.31,0,0,0-103.84,168.89v30.12a129.51,129.51,0,0,1,106.6,70.45,129.19,129.19,0,0,0-101.21-48.71c-1.8,0-3.6,0-5.39.11a129.47,129.47,0,0,0,0,258.73l861.84.11C947.55,1657,892.1,1605.54,875.39,1533ZM188.32,1480.6A16.59,16.59,0,1,1,204.91,1464a16.58,16.58,0,0,1-16.59,16.59Z"/><circle class="cls-1" cx="35.59" cy="1623.98" r="29.45"/></g></g><g id="CHARACTER"><g id="LEGS"><g id="RIGHT"><path class="cls-5" d="M1858.38,1506.5c-89.75,25.21-180.89,8.57-204.88,3.35.08-.19.16-.38.25-.57l199-410.23v384.82A48.5,48.5,0,0,0,1858.38,1506.5Z"/><path class="cls-13" d="M1895.11,1560.45v7.36H1689.59a41.29,41.29,0,0,1-37.76-58c24,5.22,115.12,21.86,204.88-3.35h0a48.34,48.34,0,0,0,13.54,15.9l9.54,7.27A38.58,38.58,0,0,1,1895.11,1560.45Z"/></g><g id="LEFT"><path class="cls-10" d="M1840.54,1131.27l-174.22,359.64a28.56,28.56,0,0,0-1.62,20.71s-111.82,45.22-215.81,31.78a47.38,47.38,0,0,1-2.16-42.26L1591.9,1165.2a25.15,25.15,0,0,0-23.08-35.12H1360.47a131.38,131.38,0,0,1-98.93-44.93l281.4-127H1732C1821,958.1,1879.32,1051.17,1840.54,1131.27Z"/><path class="cls-14" d="M1613.44,1008.36c89,0,147.3,93.07,108.52,173.14l-174.22,359.64"/><path class="cls-15" d="M1697.72,1567.81H1490.55a47.5,47.5,0,0,1-41.69-24.44c104,13.41,215.82-31.78,215.82-31.78a28.49,28.49,0,0,0,8,12.75l10.12,9.36A46.33,46.33,0,0,1,1697.72,1567.81Z"/></g></g><g id="HEAD"><g id="HEAD-2"><path class="cls-10" d="M1592.64,588.6l-24.71,35a90.59,90.59,0,0,0-51.44-15.92h-38.2q-3.09,0-6.16.1l53.9-49.07Z"/><path class="cls-10" d="M1611.83,525.53l6,37a8.41,8.41,0,0,1-6.31,9.13l-.5.12a10.08,10.08,0,0,0-7.61,8.48l-1.62,12.29a9.68,9.68,0,0,1-10.83,8.33c-13.86-1.84-38.51-8.49-45.33-32.39-9.65-33.81,26.29-43,26.29-43Z"/><path class="cls-9" d="M1580.93,538.21s7.84-4.58,14.77-4.7"/><ellipse class="cls-5" cx="1591.45" cy="549.49" rx="2.5" ry="4.44"/><path class="cls-9" d="M1603.16,580.7c-9.42,0-11.41-9.16-11.41-9.16"/></g><g id="HELMET"><path class="cls-5" d="M1521.26,554.5l-1.11-2.42a48.29,48.29,0,0,1,23.67-64l6.2-2.85a42,42,0,0,1,55.72,20.53,43.74,43.74,0,0,1,2.31,6.28l3.78,13.48h-30.45a14.8,14.8,0,0,0-14.79,14.8v4.92a22.18,22.18,0,0,1-22.19,22.18h-3A22.16,22.16,0,0,1,1521.26,554.5Z"/><path class="cls-5" d="M1581.66,607.91a4.87,4.87,0,0,1-.66,0c-4.94-.61-15.9-3.62-25.65-11-11.84-9-17.67-21.28-16.87-35.53a5.25,5.25,0,1,1,10.49.59c-1.43,25.66,26.37,34.73,33.34,35.53a5.26,5.26,0,1,1-.64,10.5Z"/><circle class="cls-12" cx="1544" cy="548.27" r="13.04"/></g></g><g id="HAND"><path class="cls-4" d="M1761.82,961.74s-203.11,111.93-312.27,38.53c0,0-104.11,70.68-188,84.87V888.79c0-41.32,18.46-102.95,38.76-158.19a191.29,191.29,0,0,1,179.6-125.29h38.22a91,91,0,0,1,91,91V800.66a21.65,21.65,0,0,0,21.65,21.65,22,22,0,0,0,4-.38l121.41-23.1c-10,9.69-17.33,44.47-17.33,81.94C1738.91,925,1749.16,961.74,1761.82,961.74Z"/><path class="cls-16" d="M1780.69,880.77c0,44.2-10.26,81-22.91,81s-22.91-36.77-22.91-81,10.26-80.57,22.91-80.57S1780.69,836.58,1780.69,880.77Z"/><path class="cls-10" d="M1898.21,837.87v79.19H1887a14.2,14.2,0,0,1-14.2-14.2h0a24.76,24.76,0,0,0-24.74-24.76h0a24.78,24.78,0,0,0-24.75,24.76,58.87,58.87,0,0,1-58.85,58.88h-3.21c-12.37-1.16-22.3-37.44-22.3-80.94,0-19.92,2.09-38.25,5.53-52.38h0l30.28-14.08,16.92-7.87a44.27,44.27,0,0,1,27.89-3.15l61.17,13A22.06,22.06,0,0,1,1898.21,837.87Z"/><path class="cls-9" d="M1840.8,839.19l39.91,8.48a22.08,22.08,0,0,1,17.47,21.59v47"/><path class="cls-5" d="M1784.73,880.77c0,44.21-10.26,81-22.91,81h-.61c-12.37-1.16-22.3-37.44-22.3-80.94,0-19.92,2.09-38.25,5.53-52.38h0l30.28-14.08C1780.77,828.88,1784.73,853.32,1784.73,880.77Z"/><path class="cls-17" d="M1462.87,1010.13c-38.4-25-75.16-66.07-64.27-190"/></g><g id="DELIVERY_BOX" data-name="DELIVERY BOX"><path class="cls-5" d="M1460.26,1009.71c-66.64,74.14-198.71,75.43-198.71,75.43V944c5.1,94.1,146.81,44.78,165.82,37.78C1437,993.43,1448.86,1002.2,1460.26,1009.71Z"/><path class="cls-5" d="M1478.22,602.79v2.52a204.26,204.26,0,0,0-188.56,159l-28.11,124.51v-286Z"/><path class="cls-10" d="M1261.55,605.31v479.84H1031.4c-33.92,0-62.3-25.56-69.2-59.67a80.58,80.58,0,0,1-1.62-16.09V680.53a80.54,80.54,0,0,1,3.9-24.35c9.62-29.62,35.93-50.87,66.89-50.87Z"/><path class="cls-5" d="M1261.55,1005v24.35H962.21a70.4,70.4,0,0,1-1.62-15V1005Z"/><path class="cls-5" d="M1261.55,656.18v24.35H960.66a79.92,79.92,0,0,1,3.9-24.35Z"/><rect class="cls-1" x="963.05" y="687.93" width="296" height="4.04"/><path class="cls-18" d="M1127.35,913.23V783a4.65,4.65,0,0,1,4.65-4.65h0a4.65,4.65,0,0,1,4.65,4.65h0v54.48"/><path class="cls-18" d="M1127.35,913.23h0V837.4h21v40.1A40.94,40.94,0,0,1,1127.35,913.23Z"/><path class="cls-19" d="M1102.78,778.3,1105,804a14.84,14.84,0,0,1-13.55,16c-.41,0-.82.06-1.24.06h0a14.85,14.85,0,0,1-14.84-14.83q0-.63.06-1.26l2.15-25.71"/><line class="cls-19" x1="1090.15" y1="778.3" x2="1090.15" y2="841.9"/><rect class="cls-19" x="1085.09" y="842.93" width="10.35" height="70.33" rx="3.57"/></g></g><image width="228" height="245" transform="translate(1006.33 744.23) scale(0.83)" xlink:href="Icone%20food%20friend-03.png"/></g></g></g></g></svg>