<svg id="Calque_1" data-name="Calque 1" xmlns="http://www.w3.org/2000/svg" viewBox="0 0 3446.06 1622.99"><defs><style>.cls-1{fill:#f6acc1;}.cls-2{fill:#f1b104;}.cls-11,.cls-17,.cls-18,.cls-20,.cls-3,.cls-9{fill:#fff;}.cls-4{fill:#22a78d;}.cls-5{fill:#ff6e00;}.cls-10,.cls-12,.cls-14,.cls-16,.cls-19,.cls-6,.cls-8{fill:none;}.cls-11,.cls-12,.cls-15,.cls-16,.cls-17,.cls-6{stroke:#59221d;}.cls-10,.cls-11,.cls-12,.cls-14,.cls-15,.cls-16,.cls-17,.cls-18,.cls-19,.cls-20,.cls-6,.cls-8{stroke-miterlimit:10;}.cls-10,.cls-11,.cls-12,.cls-14,.cls-15,.cls-16,.cls-17,.cls-18,.cls-19,.cls-20,.cls-6,.cls-8,.cls-9{stroke-width:5px;}.cls-7{fill:#59221d;}.cls-8,.cls-9{stroke:#22a78d;}.cls-10,.cls-11,.cls-12,.cls-16,.cls-19,.cls-20,.cls-8{stroke-linecap:round;}.cls-9{stroke-linejoin:round;}.cls-10,.cls-20{stroke:#ff6e00;}.cls-13,.cls-15{fill:#a74602;}.cls-14,.cls-19{stroke:#fff;}.cls-16{stroke-dasharray:20;}.cls-18{stroke:#f3b304;}.cls-21{fill:#98c8db;}.cls-22{fill:#fdfefe;}.cls-23{fill:#179692;}</style></defs><title>delivery</title><g id="Слой_1" data-name="Слой 1"><g id="Layer_2" data-name="Layer 2"><g id="Слой_1-2" data-name="Слой 1-2"><g id="BUILDING"><rect class="cls-1" x="2608.25" y="630.54" width="318.92" height="300.27"/><path class="cls-2" d="M2145.91,258.67V403.22H1939.37a171.18,171.18,0,0,0-171.2,171.16v0h0V258.67Z" transform="translate(-1.02 0)"/><polygon class="cls-1" points="1430.03 129.67 1283.39 258.68 838.02 258.88 838.02 258.68 838.13 258.68 984.76 129.67 1430.03 129.67"/><path class="cls-3" d="M3242.28,1174.48V1521H447.59V708.57L839,440.15V258.88h445.37v-.21L1526.3,45.86l241.89,212.81V574.36a171.2,171.2,0,1,1,342.39-2.6v58.53c95.82-14.7,185.28-86.27,251.71-227.07,45.67,96.9,99.57,158.53,159.75,194a279.77,279.77,0,0,0,87.22,33.34V930.82l314.13,243.68Z" transform="translate(-1.02 0)"/><polygon class="cls-2" points="2608.25 930.8 2927.18 930.8 3241.29 1174.49 2922.37 1174.49 2608.25 930.8"/><path class="cls-4" d="M2360.45,91.08a67.63,67.63,0,0,0-67.59,67.62c0,37.34,67.62,138.29,67.62,138.29s67.6-100.94,67.6-138.29a67.61,67.61,0,0,0-67.6-67.62h0Zm0,87.94a20.13,20.13,0,1,1,20.12-20.14h0A20.13,20.13,0,0,1,2360.45,179Z" transform="translate(-1.02 0)"/><path class="cls-5" d="M2362.27,403.22c-66.41,140.8-155.9,212.34-251.71,227.07V574.36a171.2,171.2,0,0,0-171.2-171.2Z" transform="translate(-1.02 0)"/><line class="cls-6" x1="2608.25" y1="403.17" x2="2608.25" y2="225.43"/><line class="cls-6" x1="2536.84" y1="258.68" x2="2644.21" y2="258.68"/><line class="cls-6" x1="2560.91" y1="275.17" x2="2644.21" y2="275.17"/><circle class="cls-2" cx="1534.43" cy="250.2" r="64.1"/><circle class="cls-6" cx="1523.21" cy="233.36" r="64.1"/><line class="cls-6" x1="1523.21" y1="169.25" x2="1523.21" y2="297.46"/><line class="cls-6" x1="1587.3" y1="233.36" x2="1459.11" y2="233.36"/><path class="cls-6" d="M1237.16,30.09V166.46a27.6,27.6,0,0,1-27.6,27.59h0A27.6,27.6,0,0,1,1182,166.46V30.09a27.6,27.6,0,0,0,55.19,1v-1h0Z" transform="translate(-1.02 0)"/><circle class="cls-6" cx="1208.56" cy="30.09" r="27.59"/><polygon class="cls-7" points="1224.92 191.02 1302.75 129.67 1236.15 129.67 1236.15 173.51 1224.92 191.02"/><rect class="cls-8" x="900.19" y="317.37" width="138.84" height="54.61"/><rect class="cls-8" x="1062.32" y="317.37" width="138.84" height="54.61"/><rect class="cls-8" x="900.19" y="396.83" width="138.84" height="54.61"/><rect class="cls-4" x="1062.32" y="396.83" width="138.84" height="54.61"/><path class="cls-8" d="M2362.92,641.84h7.17a101.63,101.63,0,0,1,101.63,101.63h0V1191H2261.29V743.47a101.63,101.63,0,0,1,101.63-101.63Z" transform="translate(-1.02 0)"/><line class="cls-8" x1="2365.48" y1="641.84" x2="2365.48" y2="1190.97"/><line class="cls-8" x1="2260.27" y1="752.3" x2="2470.7" y2="752.3"/><line class="cls-8" x1="2260.27" y1="862.16" x2="2470.7" y2="862.16"/><line class="cls-8" x1="2260.27" y1="972.01" x2="2470.7" y2="972.01"/><line class="cls-8" x1="2260.27" y1="1081.86" x2="2470.7" y2="1081.86"/><path class="cls-1" d="M2928.2,630.54H2609.27a279.18,279.18,0,0,1-87.21-33.32c-60.19-35.53-114.08-97.15-159.76-194h318.92C2748,544.8,2832.31,611.16,2928.2,630.54Z" transform="translate(-1.02 0)"/><polygon class="cls-9" points="1525.28 45.86 1903.01 45.86 2144.89 258.68 1767.17 258.68 1525.28 45.86"/><line class="cls-8" x1="1847.25" y1="45.86" x2="2089.14" y2="258.68"/><line class="cls-8" x1="1785.6" y1="45.86" x2="2027.49" y2="258.68"/><line class="cls-8" x1="1723.96" y1="45.86" x2="1965.85" y2="258.68"/><line class="cls-8" x1="1662.32" y1="45.86" x2="1904.2" y2="258.68"/><line class="cls-8" x1="1600.67" y1="45.86" x2="1842.56" y2="258.68"/><polyline class="cls-8" points="1283.39 258.68 1525.28 45.86 1903.01 45.86"/><polyline class="cls-8" points="839.69 258.88 839.69 439.53 446.57 708.57 446.57 1521.03"/></g><g id="PLANTS"><path class="cls-4" d="M2259.51,1524.58H3447.08s0-382.86-345.06-390.25c-273.15-5.85-245.35,232.87-441.37,236C2562.22,1371.9,2259.51,1243.22,2259.51,1524.58Z" transform="translate(-1.02 0)"/><path class="cls-3" d="M3306.94,1493.12a121.51,121.51,0,0,1-4.12,31.46h-234.6a121.43,121.43,0,1,1,238.72-31.46Z" transform="translate(-1.02 0)"/><line class="cls-8" x1="3184.51" y1="1371.64" x2="3184.51" y2="1522.9"/><line class="cls-8" x1="3214.3" y1="1376.22" x2="3184.51" y2="1417.02"/><line class="cls-8" x1="3122.49" y1="1388.21" x2="3184.51" y2="1465.57"/><line class="cls-8" x1="3281.74" y1="1420.52" x2="3256.16" y2="1469.75"/><line class="cls-8" x1="3088.42" y1="1417.02" x2="3145.27" y2="1417.02"/><line class="cls-8" x1="3064.01" y1="1478.87" x2="3113.2" y2="1523.25"/><line class="cls-8" x1="3184.51" y1="1489.96" x2="3301.2" y2="1457.59"/><ellipse class="cls-2" cx="703.34" cy="1031.31" rx="194.28" ry="350.77"/><line class="cls-10" x1="703.34" y1="796.25" x2="703.34" y2="1522.9"/><path class="cls-10" d="M741.77,841.82c0,5.92-.45,9.24-2.94,14.6L713,912.22a92.49,92.49,0,0,0-8.59,39" transform="translate(-1.02 0)"/><path class="cls-10" d="M644.51,924.92v28a75.17,75.17,0,0,0,21.27,52.4l17.68,18.2a73.82,73.82,0,0,1,20.9,51.46" transform="translate(-1.02 0)"/><path class="cls-10" d="M762.47,1064.83V1104a70.3,70.3,0,0,1-17.85,46.78L719.49,1179a59.54,59.54,0,0,0-15.13,39.65" transform="translate(-1.02 0)"/><path class="cls-10" d="M622.45,1165a62.42,62.42,0,0,0,36.78,56.92l19.55,8.82a43.44,43.44,0,0,1,25.58,39.57" transform="translate(-1.02 0)"/><path class="cls-10" d="M794.28,1012.64H814v19.7a32.11,32.11,0,0,1-32.11,32.11H762.16v-19.69a32.12,32.12,0,0,1,32.11-32.12Z" transform="translate(-1.02 0)"/><path class="cls-10" d="M773.86,810.91H775V812a32.12,32.12,0,0,1-32.12,32.12h-1.17V843a32.12,32.12,0,0,1,32.12-32.12Z" transform="translate(-1.02 0)"/><path class="cls-5" d="M730.86,1053.82l.49-1h0l1,.49a32.12,32.12,0,0,1,15.14,42.82h0l-.49,1h0l-1-.48A32.13,32.13,0,0,1,730.86,1053.82Z" transform="translate(-1.02 0)"/><path class="cls-5" d="M662.6,859.75l1-.58h0l.56,1A32.12,32.12,0,0,1,652.42,904h0l-1,.57h0l-.57-1A32.12,32.12,0,0,1,662.6,859.75Z" transform="translate(-1.02 0)"/><path class="cls-5" d="M762.31,1285.94l1,.42h0l-.41,1a32.13,32.13,0,0,1-41.62,18.19h0l-1-.41h0l.41-1.06a32.13,32.13,0,0,1,41.62-18.19Z" transform="translate(-1.02 0)"/><path class="cls-5" d="M666.11,1165.36l.5-1h0l1,.48a32.13,32.13,0,0,1,15.14,42.83h0l-.49,1h0l-1-.49A32.11,32.11,0,0,1,666.11,1165.36Z" transform="translate(-1.02 0)"/><path class="cls-10" d="M643.94,926.85h-3.73a32.12,32.12,0,0,1-32.11-32.12h0V891h3.76A32.12,32.12,0,0,1,644,923.12h0v3.73Z" transform="translate(-1.02 0)"/><path class="cls-10" d="M694,743.46l9.75-9.75h0l9.75,9.75a32.12,32.12,0,0,1,0,45.42h0l-9.73,9.73h0L694,788.86A32.12,32.12,0,0,1,694,743.46Z" transform="translate(-1.02 0)"/><path class="cls-10" d="M612.77,1111.86l9.75-9.76h0l9.76,9.76a32.12,32.12,0,0,1,0,45.42h0l-9.76,9.75h0l-9.75-9.75A32.12,32.12,0,0,1,612.77,1111.86Z" transform="translate(-1.02 0)"/><path class="cls-5" d="M794.65,856.76l.76.83h0l-.83.76a32.11,32.11,0,0,1-45.37-2h0l-.77-.83h0l.84-.77a32.11,32.11,0,0,1,45.37,2h0Z" transform="translate(-1.02 0)"/><ellipse class="cls-11" cx="2505.95" cy="1187.03" rx="145.12" ry="221.38"/><line class="cls-12" x1="2497.04" y1="1005.03" x2="2497.04" y2="1523.78"/><path class="cls-12" d="M2537.66,1063.84a78.45,78.45,0,0,1-11.4,40.73l-19.44,32a60.24,60.24,0,0,0-8.76,31.28" transform="translate(-1.02 0)"/><path class="cls-12" d="M2459,1082v74.79a84.07,84.07,0,0,0,13.49,45.67l12.78,19.78a80,80,0,0,1,12.82,43.43" transform="translate(-1.02 0)"/><path class="cls-12" d="M2537.66,1205.66V1238a88.38,88.38,0,0,1-10.21,41.19l-23.92,45.32a47.48,47.48,0,0,0-5.47,22.11" transform="translate(-1.02 0)"/><path class="cls-12" d="M2541.91,1431h19.69v19.7a32.12,32.12,0,0,1-32.11,32.12h-19.7v-19.7a32.12,32.12,0,0,1,32.12-32.12Z" transform="translate(-1.02 0)"/><line class="cls-12" x1="2497.04" y1="1493.3" x2="2541.04" y2="1452.53"/><path class="cls-4" d="M2537.44,1190.15l-.92-.47a29.41,29.41,0,0,1-12.64-39.61l.48-.92h0l.92.48a29.39,29.39,0,0,1,12.65,39.58h0l-.47.92Z" transform="translate(-1.02 0)"/><path class="cls-4" d="M2538.53,1064.94l-.26-1a29.4,29.4,0,0,1,21.47-35.6l1-.25h0l.25,1a29.4,29.4,0,0,1-21.46,35.6Z" transform="translate(-1.02 0)"/><path class="cls-12" d="M2537.44,1064.78l-.89-.52a29.39,29.39,0,0,1-10.76-40.15h0l.52-.9h0l.92.54A29.39,29.39,0,0,1,2538,1063.9h0l-.52.9Z" transform="translate(-1.02 0)"/><path class="cls-4" d="M2468.18,1292.32h-1a29.39,29.39,0,0,1-27.77-30.93h0v-1h0l1,.06a29.4,29.4,0,0,1,27.78,30.93l-.06,1Z" transform="translate(-1.02 0)"/><path class="cls-12" d="M2549.54,1192.46l-.12-1.25a35.42,35.42,0,0,1,31.93-38.59h0l1.25-.12h0l.11,1.25a35.41,35.41,0,0,1-31.92,38.59h0Z" transform="translate(-1.02 0)"/><path class="cls-12" d="M2469.11,1290l-.89-.88a35.42,35.42,0,0,1,0-50.09h0l.89-.89h0l.88.89a35.42,35.42,0,0,1,0,50.09h0Z" transform="translate(-1.02 0)"/><path class="cls-12" d="M2429.44,1123.84v5.53a16.15,16.15,0,0,0,16.15,16.15h0a13.42,13.42,0,0,1,13.42,13.42h0" transform="translate(-1.02 0)"/></g><g id="CHARACTER_ON_SCOOTER" data-name="CHARACTER ON SCOOTER"><g id="SCOOTER"><path class="cls-13" d="M1222.6,1052.28h314.71v5.87a45.39,45.39,0,0,1-45.39,45.39H1183v-11.66a39.59,39.59,0,0,1,39.54-39.6Z" transform="translate(-1.02 0)"/><circle class="cls-13" cx="2215.02" cy="1452.5" r="124.28"/><path class="cls-7" d="M2115.67,1525.79a124.28,124.28,0,0,1,183.64-165.54Z" transform="translate(-1.02 0)"/><circle class="cls-14" cx="2215.02" cy="1452.54" r="35.6"/><circle class="cls-13" cx="1080.32" cy="1452.5" r="124.28"/><path class="cls-7" d="M963.5,1412.89a124.31,124.31,0,0,1,242.12,39.57Z" transform="translate(-1.02 0)"/><circle class="cls-14" cx="1080.37" cy="1452.54" r="35.6"/><path class="cls-4" d="M2038.88,857.17a59.28,59.28,0,0,1-115.53,18.74l100-58.69A59.15,59.15,0,0,1,2038.88,857.17Z" transform="translate(-1.02 0)"/><path class="cls-11" d="M2023.36,817.22l-100,58.69a59.29,59.29,0,0,1,100-58.69Z" transform="translate(-1.02 0)"/><path class="cls-11" d="M1437.53,1440.29V1103.55H1204.8c-168.82,0-309.29,129.78-322.57,298.07h290.71a139.4,139.4,0,0,1,103.67,46.23l42.3,47.07a89.38,89.38,0,0,0,66.55,29.69H1967a129.63,129.63,0,0,0,65.57-17.82l314.34-184.4s-34.11-110-175.85-80.5L1928,844.51a49.65,49.65,0,0,0-42.29-23.72H1840.6v21.75h19.07a49.64,49.64,0,0,1,45.21,29.15l148.33,328c61.07,135-37.64,288-185.79,288h-382.6a47.29,47.29,0,0,1-47.29-47.29h0Z" transform="translate(-1.02 0)"/><path class="cls-6" d="M911.07,1400.79a173.31,173.31,0,0,1,344.35,28" transform="translate(-1.02 0)"/><path class="cls-6" d="M2172.5,1241.11c-34.62,10-63.14,32.59-79.2,61.93" transform="translate(-1.02 0)"/><circle class="cls-7" cx="1841.89" cy="822.65" r="24.75"/><ellipse class="cls-4" cx="1851" cy="643.65" rx="51.39" ry="19.52" transform="translate(231.17 1748.17) rotate(-53.48)"/><ellipse class="cls-12" cx="1844.38" cy="638.06" rx="53.03" ry="20.15" transform="translate(232.99 1740.58) rotate(-53.48)"/><path class="cls-12" d="M1912.47,828.62V733.41A52.54,52.54,0,0,0,1899,698.28l-53.71-59.58" transform="translate(-1.02 0)"/><path class="cls-7" d="M1437.53,1103.55v55.16L1183,1104.35h0q10.82-.75,21.81-.74Z" transform="translate(-1.02 0)"/><line class="cls-6" x1="1080.32" y1="1576.78" x2="2460.75" y2="1576.78"/><line class="cls-6" x1="1552.19" y1="1620.49" x2="2345.82" y2="1620.49"/><g id="SMOKE"><path class="cls-1" d="M870.27,1452.79a143.27,143.27,0,0,0-139.63-111.2,148.33,148.33,0,0,1-132.37-81.38L558,1180.55c-47.19-93.28-161.06-130.65-254.35-83.46A189.32,189.32,0,0,0,199.79,1266v30.12a129.53,129.53,0,0,1,106.6,70.45,129.2,129.2,0,0,0-101.21-48.71c-1.8,0-3.6,0-5.39.11a129.47,129.47,0,0,0,0,258.73l861.84.11C942.43,1576.79,887,1525.33,870.27,1452.79Zm-687.07-52.4a16.59,16.59,0,1,1,16.59-16.6,16.59,16.59,0,0,1-16.59,16.6Z" transform="translate(-1.02 0)"/><circle class="cls-1" cx="29.45" cy="1543.77" r="29.45"/></g></g><g id="CHARACTER"><g id="LEGS"><g id="RIGHT"><path class="cls-7" d="M1853.26,1426.29c-89.75,25.21-180.89,8.57-204.88,3.35.08-.19.16-.38.25-.57l199-410.23v384.82A48.5,48.5,0,0,0,1853.26,1426.29Z" transform="translate(-1.02 0)"/><path class="cls-15" d="M1890,1480.24v7.36H1684.47a41.29,41.29,0,0,1-37.76-58c24,5.22,115.12,21.86,204.88-3.35h0a48.24,48.24,0,0,0,13.54,15.9l9.54,7.27A38.61,38.61,0,0,1,1890,1480.24Z" transform="translate(-1.02 0)"/></g><g id="LEFT"><path class="cls-11" d="M1835.42,1051.06,1661.2,1410.7a28.56,28.56,0,0,0-1.62,20.71s-111.82,45.22-215.81,31.78a47.38,47.38,0,0,1-2.16-42.26L1586.78,1085a25.15,25.15,0,0,0-13.12-33.06,25.41,25.41,0,0,0-10-2.06H1355.35a131.39,131.39,0,0,1-98.93-44.93l281.4-127h189.06C1815.88,877.89,1874.2,971,1835.42,1051.06Z" transform="translate(-1.02 0)"/><path class="cls-16" d="M1608.32,928.15c89,0,147.3,93.07,108.52,173.14l-174.22,359.64" transform="translate(-1.02 0)"/><path class="cls-17" d="M1692.6,1487.6H1485.43a47.47,47.47,0,0,1-41.69-24.44c104,13.41,215.82-31.78,215.82-31.78a28.51,28.51,0,0,0,8,12.75l10.12,9.36A46.38,46.38,0,0,1,1692.6,1487.6Z" transform="translate(-1.02 0)"/></g></g><g id="HEAD"><g id="HEAD-2"><path class="cls-11" d="M1587.52,508.39l-24.71,35a90.64,90.64,0,0,0-51.44-15.92h-38.2c-2.06,0-4.11,0-6.16.1l53.9-49.07Z" transform="translate(-1.02 0)"/><path class="cls-11" d="M1606.71,445.32l6,37a8.4,8.4,0,0,1-6.31,9.13l-.5.12a10.1,10.1,0,0,0-7.61,8.48l-1.62,12.29a9.68,9.68,0,0,1-10.83,8.33c-13.86-1.84-38.51-8.49-45.33-32.39-9.65-33.81,26.29-43,26.29-43Z" transform="translate(-1.02 0)"/><path class="cls-12" d="M1575.81,458s7.84-4.58,14.77-4.7" transform="translate(-1.02 0)"/><ellipse class="cls-7" cx="1585.31" cy="469.28" rx="2.5" ry="4.44"/><path class="cls-12" d="M1598,500.49c-9.42,0-11.41-9.16-11.41-9.16" transform="translate(-1.02 0)"/></g><g id="HELMET"><path class="cls-7" d="M1516.14,474.29l-1.11-2.42a48.3,48.3,0,0,1,23.67-64l6.2-2.85a42,42,0,0,1,55.72,20.53,44.63,44.63,0,0,1,2.31,6.28l3.78,13.48h-30.45a14.8,14.8,0,0,0-14.79,14.8V465a22.18,22.18,0,0,1-22.18,22.18h-3A22.14,22.14,0,0,1,1516.14,474.29Z" transform="translate(-1.02 0)"/><path class="cls-7" d="M1576.54,527.7h-.66c-4.94-.61-15.9-3.62-25.65-11-11.84-9-17.67-21.28-16.87-35.53a5.27,5.27,0,0,1,10.52.62c-1.43,25.66,26.37,34.73,33.34,35.53a5.26,5.26,0,1,1-.54,10.51h-.1Z" transform="translate(-1.02 0)"/><circle class="cls-14" cx="1537.86" cy="468.06" r="13.04"/></g></g><g id="HAND"><path class="cls-4" d="M1756.7,881.53s-203.11,111.93-312.27,38.53c0,0-104.11,70.68-188,84.87V808.58c0-41.32,18.46-103,38.76-158.19a191.32,191.32,0,0,1,179.6-125.29H1513a91,91,0,0,1,91,91V720.45a21.65,21.65,0,0,0,21.65,21.65h0a20.69,20.69,0,0,0,4-.38l121.41-23.1c-10,9.69-17.33,44.47-17.33,81.94C1733.79,844.79,1744,881.53,1756.7,881.53Z" transform="translate(-1.02 0)"/><path class="cls-18" d="M1775.57,800.56c0,44.2-10.26,81-22.91,81s-22.91-36.77-22.91-81S1740,720,1752.66,720,1775.57,756.37,1775.57,800.56Z" transform="translate(-1.02 0)"/><path class="cls-11" d="M1893.09,757.66v79.19h-11.21a14.2,14.2,0,0,1-14.2-14.2h0a24.77,24.77,0,0,0-24.74-24.76h0a24.79,24.79,0,0,0-24.75,24.76,58.87,58.87,0,0,1-58.85,58.88h-3.21c-12.37-1.16-22.3-37.44-22.3-80.94,0-19.92,2.09-38.25,5.53-52.38h0l30.28-14.08,16.92-7.87a44.34,44.34,0,0,1,27.89-3.15l61.17,13A22.06,22.06,0,0,1,1893.09,757.66Z" transform="translate(-1.02 0)"/><path class="cls-12" d="M1835.68,759l39.91,8.48a22.08,22.08,0,0,1,17.47,21.59v47" transform="translate(-1.02 0)"/><path class="cls-7" d="M1779.61,800.56c0,44.21-10.26,81-22.91,81h-.61c-12.37-1.16-22.3-37.44-22.3-80.94,0-19.92,2.09-38.25,5.53-52.38h0l30.28-14.08C1775.65,748.67,1779.61,773.11,1779.61,800.56Z" transform="translate(-1.02 0)"/><path class="cls-19" d="M1457.75,929.92c-38.4-25-75.16-66.07-64.27-190" transform="translate(-1.02 0)"/></g><g id="DELIVERY_BOX" data-name="DELIVERY BOX"><path class="cls-7" d="M1455.14,929.5c-66.64,74.14-198.71,75.43-198.71,75.43V863.79c5.1,94.1,146.81,44.78,165.82,37.78C1431.88,913.22,1443.74,922,1455.14,929.5Z" transform="translate(-1.02 0)"/><path class="cls-5" d="M1473.1,522.58v2.52a204.28,204.28,0,0,0-188.56,159l-28.11,124.51v-286Z" transform="translate(-1.02 0)"/><path class="cls-20" d="M1256.43,525.1v479.84H1026.28c-33.92,0-62.3-25.56-69.2-59.67a80.43,80.43,0,0,1-1.62-16.09V600.32a80.59,80.59,0,0,1,3.9-24.35c9.62-29.62,35.93-50.87,66.89-50.87Z" transform="translate(-1.02 0)"/><path class="cls-5" d="M1256.43,924.79v24.35H957.09a70,70,0,0,1-1.62-15v-9.35Z" transform="translate(-1.02 0)"/><path class="cls-5" d="M1256.43,576v24.35H955.54a79.92,79.92,0,0,1,3.9-24.35Z" transform="translate(-1.02 0)"/><rect class="cls-21" x="956.91" y="607.72" width="296" height="4.04"/></g></g><path class="cls-22" d="M1015.88,770.4V676.59c0-2.16,0-3.21,2.86-3.21q87.48.18,175,0c2.5,0,2.78.68,2.77,2.9q-.09,94.22,0,188.43c0,2.5-.68,2.77-2.9,2.77q-87.48-.11-175,0c-2.5,0-2.78-.67-2.77-2.89Q1015.89,817.51,1015.88,770.4Zm36.33,60.3c0,1.84,1.56,2.25,2.83,2.85,3.53,1.67,7,3.53,10.66,4.87,4.5,1.65,8.5,4.58,13.37,5.27,8,3.62,16.07,7.21,24.08,10.87a46.35,46.35,0,0,0,12.81,3.81c18.28,2.66,35.21.11,49.57-12.55a65.21,65.21,0,0,0,15.56-21.22,112.48,112.48,0,0,0,11.07-44.17c.48-11.56-2.13-23-4.55-34.38-3.73-17.48-9-34.39-19.54-49.19-5.89-8.31-13-15.15-22.78-18.9a9.91,9.91,0,0,0-6.87-.27c-8,2.59-16.11,4.91-24,7.69-21.21,7.43-41.68,16.42-59.73,30.08-14,10.62-26.13,22.86-32.08,40.09-10.35,30-1.18,57.71,24.68,73.61,1.38.89,2.75,2.63,4.89,1.54Z" transform="translate(-1.02 0)"/><path class="cls-23" d="M1130.72,855.66h-19.55l-.54-9.11a8.81,8.81,0,0,1,.24-2.62c1-3.84,5.07-13.89,22.66-23.07,2.07-1.24,9.42-5.12,8-19.56-1.23-13.14-7.6-70.12-8.73-80.2a8.86,8.86,0,0,0-1-3.2c-1.9-3.53-6.71-10.43-10.69,1.37a9.31,9.31,0,0,0-.45,3.24c.32,9,3.39,50.06,4.22,61.2a9.14,9.14,0,0,1-1.56,5.79c-2.92,4.22-9,10.27-14.95-.77a8.68,8.68,0,0,1-1-3.75c-.81-15.31-2.45-53.38-2.88-63.33a8.91,8.91,0,0,0-2-5.32c-.87-1.07-2-2-3-2-1.17-.26-2.41.76-3.39,1.94a8.92,8.92,0,0,0-2,5.32c-.45,10-2.09,48-2.9,63.33a8.88,8.88,0,0,1-1,3.77c-6,11-12,5-15,.75a9.11,9.11,0,0,1-1.55-5.8c.83-11.14,3.9-52.12,4.24-61.2a9.19,9.19,0,0,0-.47-3.21c-4-11.83-8.8-4.92-10.69-1.39a8.91,8.91,0,0,0-1,3.22c-1.12,10.07-7.47,67-8.73,80.2-1.36,14.44,6,18.32,8,19.53,17.6,9.19,21.73,19.26,22.69,23.07a8.28,8.28,0,0,1,.21,2.62l-.53,9.16H1063.6c-35.47-1.42-59.43-38.81-56.56-73.34s61.84-110.24,94.43-110.24,79.57,58.48,85.34,117.44S1130.72,855.66,1130.72,855.66Z" transform="translate(-1.02 0)"/></g></g></g></g></svg>