<svg xmlns="http://www.w3.org/2000/svg" viewBox="0 0 4385.78 1788"><defs><style>.cls-1,.cls-10,.cls-14,.cls-17,.cls-19,.cls-20,.cls-21,.cls-22,.cls-24,.cls-25,.cls-27,.cls-28,.cls-29,.cls-3,.cls-30,.cls-4{fill:none;}.cls-1,.cls-17,.cls-22,.cls-28,.cls-30{stroke:#573240;}.cls-1,.cls-10,.cls-14,.cls-19,.cls-21,.cls-22,.cls-28,.cls-3,.cls-30,.cls-4{stroke-linecap:round;}.cls-1,.cls-14,.cls-17,.cls-3,.cls-30{stroke-linejoin:round;}.cls-1,.cls-17,.cls-27,.cls-28,.cls-29,.cls-3{stroke-width:4px;}.cls-2{fill:#f1b104;}.cls-14,.cls-19,.cls-24,.cls-3,.cls-4{stroke:#fff;}.cls-10,.cls-19,.cls-20,.cls-21,.cls-22,.cls-24,.cls-25,.cls-27,.cls-28,.cls-29,.cls-4{stroke-miterlimit:10;}.cls-10,.cls-14,.cls-20,.cls-21,.cls-22,.cls-24,.cls-25,.cls-30,.cls-4{stroke-width:5px;}.cls-5{fill:#82cdc5;}.cls-6{fill:#fff;}.cls-7{fill:#ff6e00;}.cls-8{fill:#169794;}.cls-9{fill:#573240;}.cls-10,.cls-20,.cls-29{stroke:#f1b104;}.cls-11{fill:#a9d8d5;}.cls-12{fill:#e0f1f0;}.cls-13{fill:#ff8b33;}.cls-15{fill:#fde5e3;}.cls-16{fill:#fcd4d0;}.cls-18{fill:#107775;}.cls-19{stroke-width:6px;}.cls-21,.cls-25{stroke:#a9d8d5;}.cls-23{fill:#f6acc1;}.cls-26{fill:#96cfce;}.cls-27{stroke:#96cfce;}</style></defs><title>restorer</title><g id="Слой_1" data-name="Слой 1"><g id="PIZZERIA"><g id="SIGNBOARD"><line class="cls-1" x1="4009.72" y1="816.8" x2="4048.5" y2="816.8"/><line class="cls-1" x1="4009.72" y1="837.66" x2="4048.5" y2="837.66"/><circle class="cls-2" cx="4157.44" cy="830.39" r="114.84"/><path class="cls-3" d="M4205.12,849.09,4161.36,747,4115.73,847.4S4154.07,872.75,4205.12,849.09Z"/><path class="cls-3" d="M4192.09,852.78l-37.34-89.69"/><path class="cls-3" d="M4180.07,856.48l-32.46-78"/><path class="cls-3" d="M4166,858.33l-26.22-63"/><path class="cls-3" d="M4152,858.33l-19.57-47"/><path class="cls-3" d="M4137,855.55l-11.86-28.47"/><line class="cls-4" x1="4094.87" y1="881.33" x2="4220.01" y2="881.33"/><rect class="cls-5" x="4124.5" y="897.44" width="21.96" height="15.82"/><rect class="cls-6" x="4146.46" y="897.44" width="21.96" height="15.82"/><rect class="cls-7" x="4168.42" y="897.44" width="21.96" height="15.82"/></g><rect id="BUILDING" class="cls-8" x="2922.66" y="814.86" width="1087.06" height="887.13"/><g id="DOOR"><polyline class="cls-1" points="2941 1701.99 2941 1665.41 3411.59 1665.41 3411.59 1701.99"/><polyline class="cls-1" points="2976.37 1665.41 2976.37 1632.63 3376.21 1632.63 3376.21 1665.41"/><path class="cls-6" d="M3334.92,1630.48H3017.67a9.27,9.27,0,0,1-9.28-9.28V924.41a9.28,9.28,0,0,1,9.28-9.28h317.25a9.29,9.29,0,0,1,9.28,9.28V1621.2A9.28,9.28,0,0,1,3334.92,1630.48Z"/><path class="cls-9" d="M3301.19,1420.32h-249.8a16,16,0,0,1-16-16V957.8a16,16,0,0,1,16-16h249.8a16,16,0,0,1,16,16v446.54A16,16,0,0,1,3301.19,1420.32Z"/><polyline class="cls-3" points="3204.69 1049.99 3176.29 999.02 3148.45 1049.99"/><path class="cls-2" d="M3252.44,1096.7H3100a8.71,8.71,0,0,1-8.7-8.7v-29.31a8.7,8.7,0,0,1,8.7-8.7h152.44a8.69,8.69,0,0,1,8.7,8.7V1088A8.7,8.7,0,0,1,3252.44,1096.7Z"/><circle class="cls-10" cx="3282.53" cy="1222.54" r="15.45"/><line class="cls-4" x1="3078.26" y1="1241.46" x2="3271.36" y2="1048.37"/><line class="cls-4" x1="3169.61" y1="1193.76" x2="3246.73" y2="1116.64"/><line class="cls-4" x1="3129.56" y1="1232.68" x2="3145.66" y2="1216.59"/></g><g id="WINDOW"><g id="WINDOW-2" data-name="WINDOW"><path class="cls-9" d="M3974.3,1420.32h-464a16.75,16.75,0,0,1-16.75-16.75V931.88a16.75,16.75,0,0,1,16.75-16.75h464A16.74,16.74,0,0,1,3991,931.88v471.69A16.75,16.75,0,0,1,3974.3,1420.32Z"/><line class="cls-4" x1="3658.15" y1="1313.57" x2="3888.44" y2="1083.28"/><line class="cls-4" x1="3882.46" y1="1141.3" x2="3894.98" y2="1128.78"/><line class="cls-4" x1="3767.09" y1="1256.67" x2="3868.18" y2="1155.58"/><line class="cls-4" x1="3586.4" y1="1166.38" x2="3678.37" y2="1074.41"/></g><g id="TENT"><polygon class="cls-11" points="3493.65 915.13 3493.65 970.5 3442.13 970.5 3493.65 915.13"/><path class="cls-5" d="M3493.65,970.5v44.07h-38.59a12.93,12.93,0,0,1-12.93-12.94V970.5Z"/><rect class="cls-6" x="3493.65" y="915.13" width="51.52" height="55.37"/><rect class="cls-12" x="3493.65" y="970.5" width="51.52" height="44.07"/><rect class="cls-13" x="3545.17" y="915.13" width="51.53" height="55.37"/><rect class="cls-7" x="3545.17" y="970.5" width="51.53" height="44.07"/><rect class="cls-11" x="3596.7" y="915.13" width="51.52" height="55.37"/><rect class="cls-5" x="3596.7" y="970.5" width="51.52" height="44.07"/><rect class="cls-6" x="3648.21" y="915.13" width="51.52" height="55.37"/><rect class="cls-12" x="3648.21" y="970.5" width="51.52" height="44.07"/><rect class="cls-13" x="3699.73" y="915.13" width="51.52" height="55.37"/><rect class="cls-7" x="3699.73" y="970.5" width="51.52" height="44.07"/><rect class="cls-11" x="3751.25" y="915.13" width="51.52" height="55.37"/><rect class="cls-5" x="3751.25" y="970.5" width="51.52" height="44.07"/><rect class="cls-6" x="3802.77" y="915.13" width="51.52" height="55.37"/><rect class="cls-12" x="3802.77" y="970.5" width="51.52" height="44.07"/><rect class="cls-13" x="3854.29" y="915.13" width="51.52" height="55.37"/><rect class="cls-7" x="3854.29" y="970.5" width="51.52" height="44.07"/><rect class="cls-11" x="3905.8" y="915.13" width="51.52" height="55.37"/><rect class="cls-5" x="3905.8" y="970.5" width="51.52" height="44.07"/><rect class="cls-6" x="3957.32" y="915.13" width="51.52" height="55.37"/><rect class="cls-12" x="3957.32" y="970.5" width="51.52" height="44.07"/><polygon class="cls-13" points="4060.37 970.5 4008.84 970.5 4008.84 915.13 4060.37 970.5"/><path class="cls-7" d="M4060.37,970.5v31.13a12.93,12.93,0,0,1-12.93,12.94h-38.6V970.5Z"/></g></g><g id="BUSH"><path class="cls-11" d="M3593.8,1702a57.91,57.91,0,0,1,94.92-44.54,84,84,0,0,1-1.14-13.91,85.08,85.08,0,0,1,167.82-19.82,134.32,134.32,0,0,1,41.37-6.4c47.24,0,87.43,23.62,102.25,56.56a97,97,0,0,1,12.84-.84c29.45,0,53.31,13,53.31,29Z"/><path class="cls-7" d="M3885.42,1662.21c-5.35,9.25-16.43,14.81-16.43,14.81a27.21,27.21,0,0,1,2.94-18.69c5.35-9.25,12.71-15.88,16.43-14.81S3890.77,1653,3885.42,1662.21Z"/><path class="cls-7" d="M3669.74,1600.06c8.63,12,6.85,28,6.85,28s-15.76-3.41-24.39-15.39-11.69-24.52-6.84-28S3661.12,1588.07,3669.74,1600.06Z"/><path class="cls-9" d="M3672.08,1674.6c8.7,9.43,10.13,22.25,10.13,22.25s-12.67-2.46-21.37-11.89-13.23-19.4-10.12-22.26S3663.39,1665.16,3672.08,1674.6Z"/><path class="cls-7" d="M3769,1665.76c-8.32,9.22-21.46,13.63-21.46,13.63s2.63-13.92,11-23.13,16.29-12.85,19.19-10.23S3777.28,1656.55,3769,1665.76Z"/><path class="cls-9" d="M3947.56,1673.65c-3.25,9-12.26,14.09-12.26,14.09s-3.75-9.62-.5-18.67,8.74-15.35,12.27-14.08S3950.81,1664.61,3947.56,1673.65Z"/><path class="cls-9" d="M3860.55,1672.52a34.07,34.07,0,0,1,2,21.63s-11.27-6.76-16.33-17.59-6-20.51-2-21.63S3855.49,1661.69,3860.55,1672.52Z"/><path class="cls-9" d="M3753.31,1632.82c1.19,17.23-6.86,33.53-6.86,33.53s-10.09-14.76-11.29-32,2.25-30.07,7-30.4S3752.11,1615.59,3753.31,1632.82Z"/></g><g id="STAND"><polygon class="cls-9" points="3984.53 1650.49 4114.6 1650.48 4062.19 1263.04 4061.74 1263.04 3984.53 1650.49"/><line class="cls-1" x1="3986.86" y1="1649.49" x2="3975.94" y2="1701"/><polygon class="cls-7" points="4114.56 1650.49 4357.13 1650.49 4274.95 1263.04 4062.19 1263.04 4114.56 1650.49"/><polyline class="cls-1" points="4366.09 1701.99 4355.17 1650.48 4114.6 1650.48 4121.55 1701.99"/><path class="cls-14" d="M4290.66,1453.79c9,51.24-22.58,92.76-70.63,92.76s-94.3-41.52-103.33-92.76,22.58-92.76,70.62-92.76l16.35,92.76,62-53A114.57,114.57,0,0,1,4290.66,1453.79Z"/><path class="cls-14" d="M4271.37,1370.18l-56.71,48.47-14.95-84.79C4226.73,1333.86,4253.13,1348.23,4271.37,1370.18Z"/><ellipse class="cls-4" cx="4155.48" cy="1446.2" rx="12.29" ry="14.83" transform="translate(30.14 2976.26) rotate(-39.54)"/><ellipse class="cls-4" cx="4250.72" cy="1494.92" rx="11.18" ry="13.33" transform="translate(277.58 3620.38) rotate(-47.52)"/><line class="cls-4" x1="4152.95" y1="1411.33" x2="4169.21" y2="1420.78"/><line class="cls-4" x1="4229.49" y1="1463.41" x2="4250.59" y2="1463.41"/><line class="cls-4" x1="4190.78" y1="1470.86" x2="4207.46" y2="1482.8"/><line class="cls-14" x1="4155.52" y1="1487.28" x2="4172.23" y2="1485.99"/><ellipse class="cls-14" cx="4216.18" cy="1515.25" rx="5.4" ry="6.44" transform="translate(251.37 3601.5) rotate(-47.52)"/><ellipse class="cls-14" cx="4172.32" cy="1389.44" rx="5.4" ry="6.44" transform="translate(329.92 3528.3) rotate(-47.52)"/><ellipse class="cls-14" cx="4238.23" cy="1368.33" rx="5.4" ry="6.44" transform="translate(366.89 3570.06) rotate(-47.52)"/><ellipse class="cls-14" cx="4268.17" cy="1449.61" rx="5.4" ry="6.44" transform="translate(316.66 3618.53) rotate(-47.52)"/><line class="cls-14" x1="4219.35" y1="1372.15" x2="4225.4" y2="1385.54"/><line class="cls-14" x1="4182.94" y1="1504.98" x2="4191.5" y2="1521.24"/><line class="cls-14" x1="4254.32" y1="1428.53" x2="4269.41" y2="1428.53"/></g><g id="TERRACE"><g id="UMBRELLAS"><line class="cls-1" x1="3753.97" y1="642.18" x2="3753.97" y2="447.12"/><polygon class="cls-15" points="4006.9 447.12 3507.15 447.12 3757.03 325.16 4006.9 447.12"/><path class="cls-16" d="M3507.15,447.12c0,17.52,22.38,31.73,50,31.73s50-14.21,50-31.73Z"/><path class="cls-16" d="M3607.1,447.12c0,17.52,22.38,31.73,50,31.73s50-14.21,50-31.73Z"/><path class="cls-16" d="M3707.05,447.12c0,17.52,22.38,31.73,50,31.73s50-14.21,50-31.73Z"/><path class="cls-16" d="M3807,447.12c0,17.52,22.38,31.73,50,31.73s50-14.21,50-31.73Z"/><path class="cls-16" d="M3907,447.12c0,17.52,22.38,31.73,50,31.73s50-14.21,50-31.73Z"/><line class="cls-1" x1="3211.65" y1="642.18" x2="3211.65" y2="447.12"/><polygon class="cls-15" points="3464.59 447.12 2964.84 447.12 3214.71 325.16 3464.59 447.12"/><path class="cls-16" d="M2964.84,447.12c0,17.52,22.37,31.73,50,31.73s50-14.21,50-31.73Z"/><path class="cls-16" d="M3064.79,447.12c0,17.52,22.37,31.73,50,31.73s50-14.21,50-31.73Z"/><path class="cls-16" d="M3164.74,447.12c0,17.52,22.37,31.73,50,31.73s50-14.21,50-31.73Z"/><path class="cls-16" d="M3264.69,447.12c0,17.52,22.37,31.73,50,31.73s50-14.21,50-31.73Z"/><path class="cls-16" d="M3364.64,447.12c0,17.52,22.37,31.73,50,31.73s50-14.21,50-31.73Z"/></g><g id="PLANTS"><path class="cls-2" d="M3924,683.65H3630a21.93,21.93,0,0,1-21.27-16.58l-5.76-22.9h348.08l-5.76,22.9A21.93,21.93,0,0,1,3924,683.65Z"/><path class="cls-5" d="M3606,643.59l.1.39a11.9,11.9,0,1,1,13.48-19.5c2.8-7.64,9.51-13,17.32-13,7.1,0,13.26,4.42,16.44,10.93a17,17,0,0,1,16.57.74c2.52-8,9.1-13.76,16.8-13.76,8.07,0,14.9,6.28,17.13,14.9a16.56,16.56,0,0,1,24.56,4.68c1.46-10.85,11.25-19.24,23.12-19.24a23.58,23.58,0,0,1,20,10.72,24.32,24.32,0,0,1,6.55-.89,24,24,0,0,1,17.36,7.32c.58-11.61,9.29-20.82,20-20.82,8.66,0,16,6.07,18.82,14.57a23,23,0,0,1,14.88-5.4,22.61,22.61,0,0,1,22.28,17.62c3.4-5.05,10-8.47,17.53-8.47a23.91,23.91,0,0,1,7.17,1.08c3.76-8.3,11.41-14,20.24-14s16.41,5.63,20.18,13.87c8.63,2.52,15,9.65,15.81,18.26Z"/><circle class="cls-5" cx="3662.46" cy="600" r="6.04"/><circle class="cls-5" cx="3951.05" cy="617.32" r="6.04"/><circle class="cls-5" cx="3839.8" cy="603.86" r="6.04"/><circle class="cls-5" cx="3771.3" cy="583.58" r="6.04"/><path class="cls-5" d="M3002.11,644.17l.1.38a11.9,11.9,0,1,1,13.49-19.49c2.8-7.64,9.5-13,17.32-13,7.09,0,13.26,4.42,16.44,10.93a16.88,16.88,0,0,1,16.56.74c2.53-8,9.1-13.76,16.81-13.76,8.06,0,14.9,6.28,17.12,14.9a16.54,16.54,0,0,1,24.56,4.68c1.46-10.85,11.26-19.24,23.13-19.24a23.58,23.58,0,0,1,20,10.72,24.24,24.24,0,0,1,6.54-.89,24,24,0,0,1,17.37,7.32c.57-11.61,9.28-20.83,20-20.83,8.66,0,16,6.07,18.82,14.57a23.06,23.06,0,0,1,14.88-5.39,22.61,22.61,0,0,1,22.28,17.62c3.39-5,10-8.47,17.53-8.47a24,24,0,0,1,7.17,1.08c3.75-8.3,11.41-14,20.24-14s16.41,5.63,20.18,13.87c8.62,2.51,15,9.65,15.8,18.26Z"/><path class="cls-2" d="M3323.17,683.65h-294a21.92,21.92,0,0,1-21.26-16.58l-5.76-22.9H3350.2l-5.76,22.9A21.94,21.94,0,0,1,3323.17,683.65Z"/><circle class="cls-5" cx="3183.63" cy="584.47" r="7.47"/><circle class="cls-5" cx="3348.92" cy="618.63" r="6.38"/><circle class="cls-5" cx="3009.21" cy="605.84" r="6.38"/><circle class="cls-5" cx="2976.11" cy="658.9" r="6.38"/></g><polyline class="cls-17" points="2922.66 642.18 4007.73 642.18 4007.73 814.87"/><line class="cls-17" x1="2995.13" y1="642.18" x2="2995.13" y2="814.86"/><line class="cls-17" x1="3067.6" y1="642.18" x2="3067.6" y2="814.86"/><line class="cls-17" x1="3140.07" y1="642.18" x2="3140.07" y2="814.86"/><line class="cls-17" x1="3212.54" y1="642.18" x2="3212.54" y2="814.86"/><line class="cls-17" x1="3285.01" y1="642.18" x2="3285.01" y2="814.86"/><line class="cls-17" x1="3357.48" y1="642.18" x2="3357.48" y2="814.86"/><line class="cls-17" x1="3429.95" y1="642.18" x2="3429.95" y2="814.86"/><line class="cls-17" x1="3502.42" y1="642.18" x2="3502.42" y2="814.86"/><line class="cls-17" x1="3574.89" y1="642.18" x2="3574.89" y2="814.86"/><line class="cls-17" x1="3647.36" y1="642.18" x2="3647.36" y2="814.86"/><line class="cls-17" x1="3719.84" y1="642.18" x2="3719.84" y2="814.86"/><line class="cls-17" x1="3792.3" y1="642.18" x2="3792.3" y2="814.86"/><line class="cls-17" x1="3864.78" y1="642.18" x2="3864.78" y2="814.86"/><line class="cls-17" x1="3937.25" y1="642.18" x2="3937.25" y2="814.86"/></g></g><g id="CHINESE_RESTARAUNT" data-name="CHINESE RESTARAUNT"><g id="BUILDING-2" data-name="BUILDING"><rect class="cls-18" x="1727.31" y="293.42" width="1195.35" height="1408.57"/><rect class="cls-6" x="1996.73" y="895.27" width="74.49" height="806.72"/><rect class="cls-6" x="2553.91" y="895.27" width="74.49" height="806.72"/></g><g id="LIGHTS"><line class="cls-19" x1="1844.15" y1="795.17" x2="1844.15" y2="887.78"/><path class="cls-7" d="M1926.73,944.28a54.85,54.85,0,0,1-54.83,54.84h-55.5a54.84,54.84,0,0,1,0-109.67h55.5A54.85,54.85,0,0,1,1926.73,944.28Z"/><path class="cls-7" d="M1926.73,944.28a54.85,54.85,0,0,1-54.83,54.84h-24c-1.27,0-2.53,0-3.78-.13a54.84,54.84,0,0,0,0-109.41c1.25-.08,2.51-.13,3.78-.13h24A54.85,54.85,0,0,1,1926.73,944.28Z"/><path class="cls-7" d="M1844.15,999c-1.25.08-2.52.13-3.79.13h-24a54.84,54.84,0,1,1,0-109.67h24c1.27,0,2.54,0,3.79.12a54.84,54.84,0,0,0,0,109.42Z"/><path class="cls-4" d="M1926.73,944.28a54.85,54.85,0,0,1-54.83,54.84h-24c-1.27,0-2.53,0-3.78-.13a54.84,54.84,0,0,0,0-109.41c1.25-.08,2.51-.13,3.78-.13h24A54.85,54.85,0,0,1,1926.73,944.28Z"/><path class="cls-4" d="M1840.36,999.13h-24a54.84,54.84,0,1,1,0-109.67h25.95"/><line class="cls-4" x1="1844.15" y1="889.58" x2="1844.15" y2="999"/><rect class="cls-6" x="1816.4" y="999.13" width="58.07" height="11.9"/><path class="cls-4" d="M1844.15,889.58a54.84,54.84,0,0,0,0,109.42"/><line class="cls-19" x1="2782.52" y1="795.17" x2="2782.52" y2="887.78"/><path class="cls-7" d="M2865.1,944.28a54.85,54.85,0,0,1-54.83,54.84h-55.5a54.84,54.84,0,1,1,0-109.67h55.5A54.85,54.85,0,0,1,2865.1,944.28Z"/><path class="cls-7" d="M2865.1,944.28a54.85,54.85,0,0,1-54.83,54.84h-24c-1.27,0-2.53,0-3.78-.13a54.84,54.84,0,0,0,0-109.41c1.25-.08,2.51-.13,3.78-.13h24A54.85,54.85,0,0,1,2865.1,944.28Z"/><path class="cls-7" d="M2782.52,999c-1.25.08-2.52.13-3.79.13h-24a54.84,54.84,0,1,1,0-109.67h24c1.27,0,2.54,0,3.79.12a54.84,54.84,0,0,0,0,109.42Z"/><path class="cls-4" d="M2865.1,944.28a54.85,54.85,0,0,1-54.83,54.84h-24c-1.27,0-2.53,0-3.78-.13a54.84,54.84,0,0,0,0-109.41c1.25-.08,2.51-.13,3.78-.13h24A54.85,54.85,0,0,1,2865.1,944.28Z"/><path class="cls-4" d="M2778.73,999.13h-24a54.84,54.84,0,1,1,0-109.67h25.94"/><line class="cls-4" x1="2782.52" y1="889.58" x2="2782.52" y2="999"/><rect class="cls-6" x="2754.77" y="999.13" width="58.07" height="11.9"/><path class="cls-4" d="M2782.52,889.58a54.84,54.84,0,0,0,0,109.42"/></g><g id="WINDOWS"><rect class="cls-9" x="1796.58" y="1056.09" width="137.93" height="453.01"/><line class="cls-20" x1="1865.54" y1="1056.09" x2="1865.54" y2="1509.1"/><line class="cls-20" x1="1934.51" y1="1433.6" x2="1796.58" y2="1433.6"/><line class="cls-20" x1="1934.51" y1="1358.1" x2="1796.58" y2="1358.1"/><line class="cls-20" x1="1934.51" y1="1282.59" x2="1796.58" y2="1282.59"/><line class="cls-20" x1="1934.51" y1="1207.09" x2="1796.58" y2="1207.09"/><line class="cls-20" x1="1934.51" y1="1131.59" x2="1796.58" y2="1131.59"/><rect class="cls-9" x="2690.63" y="1056.09" width="137.93" height="453.01"/><line class="cls-20" x1="2759.59" y1="1056.09" x2="2759.59" y2="1509.1"/><line class="cls-20" x1="2828.56" y1="1433.6" x2="2690.63" y2="1433.6"/><line class="cls-20" x1="2828.56" y1="1358.1" x2="2690.63" y2="1358.1"/><line class="cls-20" x1="2828.56" y1="1282.59" x2="2690.63" y2="1282.59"/><line class="cls-20" x1="2828.56" y1="1207.09" x2="2690.63" y2="1207.09"/><line class="cls-20" x1="2828.56" y1="1131.59" x2="2690.63" y2="1131.59"/><rect class="cls-9" x="2346.96" y="386.12" width="516.21" height="211.93"/><polyline class="cls-20" points="2411.48 386.12 2411.48 456.76 2346.95 456.76"/><polyline class="cls-20" points="2346.95 456.76 2411.48 456.76 2411.48 527.41 2346.95 527.41"/><polyline class="cls-20" points="2346.95 527.41 2411.48 527.41 2411.48 598.05"/><polyline class="cls-20" points="2476.01 386.12 2476.01 456.76 2411.48 456.76 2411.48 386.12"/><rect class="cls-20" x="2411.48" y="456.77" width="64.53" height="70.64"/><polyline class="cls-20" points="2411.48 598.05 2411.48 527.41 2476.01 527.41 2476.01 598.05"/><polyline class="cls-20" points="2540.53 386.12 2540.53 456.76 2476.01 456.76 2476.01 386.12"/><rect class="cls-20" x="2476.01" y="456.77" width="64.53" height="70.64"/><polyline class="cls-20" points="2476.01 598.05 2476.01 527.41 2540.53 527.41 2540.53 598.05"/><polyline class="cls-20" points="2605.06 386.12 2605.06 456.76 2540.53 456.76 2540.53 386.12"/><rect class="cls-20" x="2540.54" y="456.77" width="64.53" height="70.64"/><polyline class="cls-20" points="2540.53 598.05 2540.53 527.41 2605.06 527.41 2605.06 598.05"/><polyline class="cls-20" points="2669.59 386.12 2669.59 456.76 2605.06 456.76 2605.06 386.12"/><rect class="cls-20" x="2605.06" y="456.77" width="64.53" height="70.64"/><polyline class="cls-20" points="2605.06 598.05 2605.06 527.41 2669.59 527.41 2669.59 598.05"/><polyline class="cls-20" points="2734.12 386.12 2734.12 456.76 2669.59 456.76 2669.59 386.12"/><rect class="cls-20" x="2669.59" y="456.77" width="64.53" height="70.64"/><polyline class="cls-20" points="2669.59 598.05 2669.59 527.41 2734.12 527.41 2734.12 598.05"/><polyline class="cls-20" points="2798.64 386.12 2798.64 456.76 2734.12 456.76 2734.12 386.12"/><rect class="cls-20" x="2734.12" y="456.77" width="64.53" height="70.64"/><polyline class="cls-20" points="2734.12 598.05 2734.12 527.41 2798.64 527.41 2798.64 598.05"/><polyline class="cls-20" points="2863.17 456.76 2798.64 456.76 2798.64 386.12"/><polyline class="cls-20" points="2863.17 527.41 2798.64 527.41 2798.64 456.76 2863.17 456.76"/><polyline class="cls-20" points="2798.64 598.05 2798.64 527.41 2863.17 527.41"/><rect class="cls-9" x="1788.9" y="386.12" width="516.21" height="211.93"/><polyline class="cls-20" points="1853.43 386.12 1853.43 456.76 1788.9 456.76"/><polyline class="cls-20" points="1788.9 456.76 1853.43 456.76 1853.43 527.41 1788.9 527.41"/><polyline class="cls-20" points="1788.9 527.41 1853.43 527.41 1853.43 598.05"/><polyline class="cls-20" points="1917.95 386.12 1917.95 456.76 1853.43 456.76 1853.43 386.12"/><rect class="cls-20" x="1853.43" y="456.77" width="64.53" height="70.64"/><polyline class="cls-20" points="1853.43 598.05 1853.43 527.41 1917.95 527.41 1917.95 598.05"/><polyline class="cls-20" points="1982.48 386.12 1982.48 456.76 1917.95 456.76 1917.95 386.12"/><rect class="cls-20" x="1917.95" y="456.77" width="64.53" height="70.64"/><polyline class="cls-20" points="1917.95 598.05 1917.95 527.41 1982.48 527.41 1982.48 598.05"/><polyline class="cls-20" points="2047.01 386.12 2047.01 456.76 1982.48 456.76 1982.48 386.12"/><rect class="cls-20" x="1982.48" y="456.77" width="64.53" height="70.64"/><polyline class="cls-20" points="1982.48 598.05 1982.48 527.41 2047.01 527.41 2047.01 598.05"/><polyline class="cls-20" points="2111.53 386.12 2111.53 456.76 2047.01 456.76 2047.01 386.12"/><rect class="cls-20" x="2047.01" y="456.77" width="64.53" height="70.64"/><polyline class="cls-20" points="2047.01 598.05 2047.01 527.41 2111.53 527.41 2111.53 598.05"/><polyline class="cls-20" points="2176.06 386.12 2176.06 456.76 2111.53 456.76 2111.53 386.12"/><rect class="cls-20" x="2111.53" y="456.77" width="64.53" height="70.64"/><polyline class="cls-20" points="2111.53 598.05 2111.53 527.41 2176.06 527.41 2176.06 598.05"/><polyline class="cls-20" points="2240.59 386.12 2240.59 456.76 2176.06 456.76 2176.06 386.12"/><rect class="cls-20" x="2176.06" y="456.77" width="64.53" height="70.64"/><polyline class="cls-20" points="2176.06 598.05 2176.06 527.41 2240.59 527.41 2240.59 598.05"/><polyline class="cls-20" points="2305.11 456.76 2240.59 456.76 2240.59 386.12"/><polyline class="cls-20" points="2305.11 527.41 2240.59 527.41 2240.59 456.76 2305.11 456.76"/><polyline class="cls-20" points="2240.59 598.05 2240.59 527.41 2305.11 527.41"/></g><g id="SIGNBOARD-2" data-name="SIGNBOARD"><path class="cls-9" d="M1675.26,605.82H1469.19a6.19,6.19,0,0,1-6.19-6.19V393.56a6.2,6.2,0,0,1,6.19-6.2h206.07a6.21,6.21,0,0,1,6.2,6.2V599.63A6.2,6.2,0,0,1,1675.26,605.82Z"/><path class="cls-7" d="M1651.68,605.82H1465.21a16,16,0,0,1-16-16V403.36a16,16,0,0,1,16-16h186.47a16,16,0,0,1,16,16V589.82A16,16,0,0,1,1651.68,605.82Z"/><line class="cls-17" x1="1727.56" y1="604.1" x2="1667.67" y2="604.1"/><line class="cls-17" x1="1667.67" y1="389.09" x2="1727.56" y2="389.09"/><line class="cls-1" x1="1553.68" y1="489.74" x2="1533.99" y2="424.06"/><line class="cls-1" x1="1510.05" y1="426.07" x2="1544.73" y2="486.29"/><polygon class="cls-6" points="1565.09 558.33 1518.74 558.33 1492.9 486.29 1590.93 486.29 1565.09 558.33"/><polygon class="cls-9" points="1621.94 486.3 1596.1 558.33 1565.08 558.33 1590.93 486.3 1621.94 486.3"/><line class="cls-21" x1="1491.17" y1="486.29" x2="1623.67" y2="486.29"/></g><g id="DOOR-2" data-name="DOOR"><path class="cls-7" d="M2476.27,1665.41h-327.4a12.28,12.28,0,0,1-12.28-12.28V949.55a12.27,12.27,0,0,1,12.28-12.27h327.4a12.27,12.27,0,0,1,12.27,12.27v703.58A12.27,12.27,0,0,1,2476.27,1665.41Z"/><rect class="cls-20" x="2191.94" y="1016.36" width="64.15" height="75.05"/><rect class="cls-20" x="2280.17" y="1016.36" width="64.15" height="75.05"/><rect class="cls-20" x="2368.4" y="1016.36" width="64.15" height="75.05"/><rect class="cls-20" x="2191.94" y="1117.9" width="64.15" height="75.05"/><rect class="cls-20" x="2280.17" y="1117.9" width="64.15" height="75.05"/><rect class="cls-20" x="2368.4" y="1117.9" width="64.15" height="75.05"/><circle class="cls-14" cx="2435.14" cy="1273.57" r="17.8"/><polyline class="cls-4" points="2071.22 1702.99 2071.22 1666.41 2553.91 1666.41 2553.91 1702.99"/></g><g id="ROOF"><path class="cls-11" d="M2725.25,800.23H1899.89c108.68,0,186.89-57,233.18-141.33h359C2538.37,743.19,2616.57,800.23,2725.25,800.23Z"/><path class="cls-9" d="M1898,856.49a130.28,130.28,0,0,0,93.59,39.63h642a130.28,130.28,0,0,0,93.58-39.63l53.54-61.32a304.43,304.43,0,0,1-55.43,5.06H1899.9a304.65,304.65,0,0,1-55.45-5.06Z"/><path class="cls-19" d="M2780.68,795.17a304.43,304.43,0,0,1-55.43,5.06H1899.9a304.65,304.65,0,0,1-55.45-5.06"/><path class="cls-11" d="M3007.09,221.49H1616.36c105.21-19,194-70.75,247.29-140.55h896.13C2813.06,150.74,2901.88,202.52,3007.09,221.49Z"/><path class="cls-9" d="M3006.59,232.42a108.7,108.7,0,0,1-97.68,61h-1194a108.7,108.7,0,0,1-97.68-61Z"/><line class="cls-4" x1="2133.07" y1="658.9" x2="2492.07" y2="658.9"/></g></g><g id="CAFE"><g id="BUILDING-3" data-name="BUILDING"><rect class="cls-8" x="637.85" y="830.02" width="1089.46" height="871.97"/><line class="cls-1" x1="1727.31" y1="864.94" x2="637.85" y2="864.94"/><rect class="cls-2" x="637.85" y="800.33" width="1089.46" height="29.66"/></g><g id="TABLE_CHAIRS" data-name="TABLE &amp; CHAIRS"><circle class="cls-7" cx="330.97" cy="1403.78" r="41.75"/><path class="cls-11" d="M500.28,1510.86H391.86a16.3,16.3,0,0,0-16.3,16.3h141A16.3,16.3,0,0,0,500.28,1510.86Z"/><path class="cls-11" d="M256,1510.86H147.54a16.3,16.3,0,0,0-16.31,16.3h141A16.3,16.3,0,0,0,256,1510.86Z"/><line class="cls-22" x1="602.34" y1="1380.33" x2="411.62" y2="1701.99"/><polyline class="cls-22" points="604.15 1701.99 515.28 1527.16 375.56 1527.16"/><line class="cls-22" x1="45.5" y1="1380.33" x2="236.22" y2="1701.99"/><polyline class="cls-22" points="43.69 1701.99 132.56 1527.16 272.27 1527.16"/><line class="cls-22" x1="192.1" y1="1443.9" x2="471.89" y2="1443.9"/><line class="cls-22" x1="331.99" y1="1701.99" x2="331.99" y2="1443.9"/><ellipse class="cls-9" cx="332.01" cy="1377.15" rx="20.37" ry="15.12"/><path class="cls-11" d="M332,1387.41s-28.9,4.83-38.25-66.87C293.76,1320.54,338.34,1337.6,332,1387.41Z"/><path class="cls-11" d="M334,1387.41s1-31.15,45.51-24.71C379.51,1362.7,366.43,1385.49,334,1387.41Z"/><polyline class="cls-1" points="354.46 1345.96 332.01 1389.9 332.01 1311.6"/><ellipse class="cls-2" cx="332.41" cy="1297.94" rx="14.21" ry="22.99"/><ellipse class="cls-2" cx="342.38" cy="1303.46" rx="22.99" ry="11.43" transform="translate(-821.41 623.88) rotate(-45)"/><ellipse class="cls-2" cx="321.59" cy="1303.46" rx="11.43" ry="22.99" transform="translate(-827.49 609.18) rotate(-45)"/><ellipse class="cls-2" cx="362.5" cy="1338.47" rx="17.31" ry="10.7" transform="translate(-809.43 597.2) rotate(-42.53)"/><ellipse class="cls-2" cx="364.53" cy="1346.89" rx="8.6" ry="17.31" transform="translate(-996.82 1653.03) rotate(-87.53)"/><ellipse class="cls-2" cx="353.95" cy="1335.35" rx="17.31" ry="8.6" transform="translate(-995.42 1631.42) rotate(-87.53)"/></g><g id="LAMP"><path class="cls-1" d="M575.88,1209.34a31,31,0,0,0,31,31h0a31,31,0,0,0,31-31"/><polygon class="cls-23" points="609.09 1143.27 540.68 1143.27 555.93 1208.65 593.84 1208.65 609.09 1143.27"/><line class="cls-1" x1="531.25" y1="1143.27" x2="618.51" y2="1143.27"/><path class="cls-1" d="M586.83,1120.59h-23.9a12.61,12.61,0,0,0-10.27,5.29l-12.43,17.39h69.3l-12.42-17.39A12.63,12.63,0,0,0,586.83,1120.59Z"/><line class="cls-1" x1="551.49" y1="1208.65" x2="598.28" y2="1208.65"/></g><g id="TENT-2" data-name="TENT"><path class="cls-2" d="M637.85,830v226.06c0,21.84-27.89,39.55-62.28,39.55s-62.29-17.71-62.29-39.55c0,21.84-27.89,39.55-62.28,39.55s-62.28-17.71-62.28-39.55c0,21.84-27.89,39.55-62.29,39.55s-62.28-17.71-62.28-39.55c0,21.84-27.89,39.55-62.28,39.55s-62.29-17.71-62.29-39.55c0,21.84-27.88,39.55-62.28,39.55S15,1077.92,15,1056.08Z"/><line class="cls-24" x1="637.85" y1="1056.09" x2="15.02" y2="1056.09"/></g><g id="DOOR-3" data-name="DOOR"><rect class="cls-6" x="725.93" y="915.13" width="412.59" height="749.12"/><path class="cls-9" d="M815.76,1222.38h-63a9.06,9.06,0,0,1-9.06-9.06V1095.4a9.06,9.06,0,0,1,9.06-9.06h63a9.06,9.06,0,0,1,9.06,9.06v117.92A9.06,9.06,0,0,1,815.76,1222.38Z"/><path class="cls-9" d="M908.43,1222.38h-63a9.06,9.06,0,0,1-9-9.06V1095.4a9,9,0,0,1,9-9.06h63a9.06,9.06,0,0,1,9.05,9.06v117.92A9.06,9.06,0,0,1,908.43,1222.38Z"/><path class="cls-9" d="M815.76,1370h-63a9.06,9.06,0,0,1-9.06-9.06V1243a9.06,9.06,0,0,1,9.06-9.06h63a9.06,9.06,0,0,1,9.06,9.06v117.92A9.06,9.06,0,0,1,815.76,1370Z"/><path class="cls-9" d="M908.43,1370h-63a9.06,9.06,0,0,1-9-9.06V1243a9.06,9.06,0,0,1,9-9.06h63a9.06,9.06,0,0,1,9.05,9.06v117.92A9.06,9.06,0,0,1,908.43,1370Z"/><path class="cls-9" d="M815.76,1517.56h-63a9.06,9.06,0,0,1-9.06-9.06V1390.58a9.06,9.06,0,0,1,9.06-9.06h63a9.06,9.06,0,0,1,9.06,9.06V1508.5A9.06,9.06,0,0,1,815.76,1517.56Z"/><path class="cls-9" d="M908.43,1517.56h-63a9.06,9.06,0,0,1-9-9.06V1390.58a9.06,9.06,0,0,1,9-9.06h63a9.06,9.06,0,0,1,9.05,9.06V1508.5A9.06,9.06,0,0,1,908.43,1517.56Z"/><path class="cls-9" d="M815.76,1077h-63a9.06,9.06,0,0,1-9.06-9.06V950a9.06,9.06,0,0,1,9.06-9.06h63a9.06,9.06,0,0,1,9.06,9.06v117.92A9.06,9.06,0,0,1,815.76,1077Z"/><path class="cls-9" d="M908.43,1077h-63a9.06,9.06,0,0,1-9-9.06V950a9.06,9.06,0,0,1,9-9.06h63a9.06,9.06,0,0,1,9.05,9.06v117.92A9.06,9.06,0,0,1,908.43,1077Z"/><path class="cls-9" d="M1019.11,1222.38H956.52a9.06,9.06,0,0,1-9-9.06V1095.4a9,9,0,0,1,9-9.06h62.59a9.06,9.06,0,0,1,9.06,9.06v117.92A9.06,9.06,0,0,1,1019.11,1222.38Z"/><path class="cls-9" d="M1112.22,1222.38h-62.59a9.06,9.06,0,0,1-9.05-9.06V1095.4a9,9,0,0,1,9.05-9.06h62.59a9.06,9.06,0,0,1,9.06,9.06v117.92A9.06,9.06,0,0,1,1112.22,1222.38Z"/><path class="cls-9" d="M1019.11,1077H956.52a9.06,9.06,0,0,1-9-9.06V950a9.06,9.06,0,0,1,9-9.06h62.59a9.06,9.06,0,0,1,9.06,9.06v117.92A9.06,9.06,0,0,1,1019.11,1077Z"/><path class="cls-9" d="M1112.22,1077h-62.59a9.06,9.06,0,0,1-9.05-9.06V950a9.06,9.06,0,0,1,9.05-9.06h62.59a9.06,9.06,0,0,1,9.06,9.06v117.92A9.06,9.06,0,0,1,1112.22,1077Z"/><path class="cls-9" d="M1019.11,1370H956.52a9.06,9.06,0,0,1-9-9.06V1243a9.06,9.06,0,0,1,9-9.06h62.59a9.06,9.06,0,0,1,9.06,9.06v117.92A9.06,9.06,0,0,1,1019.11,1370Z"/><path class="cls-9" d="M1112.22,1370h-62.59a9.06,9.06,0,0,1-9.05-9.06V1243a9.06,9.06,0,0,1,9.05-9.06h62.59a9.06,9.06,0,0,1,9.06,9.06v117.92A9.06,9.06,0,0,1,1112.22,1370Z"/><path class="cls-9" d="M1019.11,1517.56H956.52a9.06,9.06,0,0,1-9-9.06V1390.58a9.06,9.06,0,0,1,9-9.06h62.59a9.06,9.06,0,0,1,9.06,9.06V1508.5A9.06,9.06,0,0,1,1019.11,1517.56Z"/><path class="cls-9" d="M1112.22,1517.56h-62.59a9.06,9.06,0,0,1-9.05-9.06V1390.58a9.06,9.06,0,0,1,9.05-9.06h62.59a9.06,9.06,0,0,1,9.06,9.06V1508.5A9.06,9.06,0,0,1,1112.22,1517.56Z"/><line class="cls-25" x1="932.23" y1="915.13" x2="932.23" y2="1665.41"/><polyline class="cls-1" points="695.19 1701.99 695.19 1665.41 1165.78 1665.41 1165.78 1701.99"/><circle class="cls-7" cx="892.77" cy="1228.83" r="16.88"/><circle class="cls-7" cx="972.23" cy="1228.83" r="16.88"/></g><g id="WINDOW-3" data-name="WINDOW"><g id="WINDOW-4" data-name="WINDOW"><rect class="cls-9" x="1237.95" y="1056.09" width="405.23" height="384.9"/><rect class="cls-4" x="1223.04" y="1056.09" width="436.04" height="384.9"/><line class="cls-4" x1="1325.64" y1="1319.43" x2="1534.62" y2="1110.46"/><line class="cls-4" x1="1440.95" y1="1248.5" x2="1534.62" y2="1154.84"/><line class="cls-4" x1="1386.61" y1="1302.84" x2="1417.07" y2="1272.39"/></g><g id="FLOWERS"><path class="cls-23" d="M1661.93,1441v22.75c0,25-21.16,45.36-47.27,45.36H1268.21c-26.1,0-47.26-20.31-47.26-45.36V1441Z"/><path class="cls-26" d="M1453.94,1438.83s-10-37.1-49.61-43.45c0,0,4.46,32.56,30.44,43.45Z"/><path class="cls-26" d="M1576.09,1439.63s20.18-25.32,53.36-27.46c0,0-6,18.19-21.23,27.46Z"/><path class="cls-26" d="M1521.54,1439.63s-52-51.56-45-135.08c0,0,66.48,67,61.56,135.08Z"/><path class="cls-26" d="M1568.88,1439.63s-3.59-50.68,51.55-71.8c0,0-2.36,41.88-40.63,71.8Z"/><line class="cls-27" x1="1546.87" y1="1363.83" x2="1546.87" y2="1442.14"/><path class="cls-27" d="M1564.58,1411.52s-8.52,4-8.11,30.72"/><path class="cls-6" d="M1592,1403.15q-.42.76-.9,1.47c1.22-2.48,1.53-4.9.67-6.85-2-4.43-9.25-5-16.85-1.43-1.38-8.26-5.93-14-10.69-13.1-2,.38-3.81,1.92-5.16,4.21a12.49,12.49,0,0,1,.63-1.34c3.23-6.14,10-8.91,15.21-6.19a9.47,9.47,0,0,0,13.6,7.18C1593.65,1389.82,1595.2,1397,1592,1403.15Z"/><path class="cls-7" d="M1580.61,1414.79c-6.44,3.58-13,4.24-16.55,2.08-3.8-1.73-6.94-7.5-7.63-14.84-.88-9.41,2.59-17.81,7.77-18.79,4.76-.89,9.31,4.84,10.69,13.1,7.6-3.52,14.9-3,16.85,1.43C1593.86,1402.59,1588.88,1410.21,1580.61,1414.79Z"/><path class="cls-7" d="M1566.54,1359.9c-5,7.33-13.06,11.95-19.8,11.87-6.79.08-14.9-4.72-19.8-12.24-6-9.2-4.93-19,2.38-21.85,5.12-2,13,1,17.62,8.88h0c4.39-8.17,12.65-10.66,17.71-8.56C1571.9,1341,1572.75,1350.82,1566.54,1359.9Z"/><path class="cls-28" d="M1395,1387.25s29.57,9.78,34.66,52.87"/><path class="cls-6" d="M1407.48,1363.83c-1.93-5.49-5.34-9.11-9-8.88-5.25.32-9,8.43-8.41,18.11.05.72.11,1.42.21,2.11-.75.06-1.5.16-2.26.28-9.57,1.54-16.66,7-15.82,12.18.54,3.37,4.29,5.8,9.47,6.66-6.78.21-12.65-3.34-13.9-8.86-.85-3.75.61-7.6,3.58-10.54-3.24-5.13-3.42-11.2,0-15.1,3.18-3.6,8.58-4.36,13.71-2.42,1.93-4.08,5.38-6.88,9.47-7.13C1401,1349.84,1406.61,1355.85,1407.48,1363.83Z"/><path class="cls-7" d="M1409.06,1371.88c.49,7.82-1.84,15.06-5.53,17.55-2.86,2.45-7.32,4-12.48,4.8-9.57,1.54-18-1.42-18.84-6.6s6.25-10.64,15.82-12.18c.76-.12,1.52-.22,2.26-.28-.1-.69-.16-1.4-.21-2.11-.6-9.68,3.16-17.79,8.41-18.11S1408.46,1362.2,1409.06,1371.88Z"/><circle class="cls-29" cx="1629.45" cy="1394.65" r="5.71"/><circle class="cls-29" cx="1424.42" cy="1378.87" r="5.71"/><circle class="cls-29" cx="1358.21" cy="1400.35" r="5.71"/><circle class="cls-29" cx="1254.1" cy="1424.14" r="5.71"/><circle class="cls-29" cx="1526.77" cy="1309.39" r="4.97"/><path class="cls-27" d="M1464,1396s3.86,24.33,35.9,45"/><circle class="cls-2" cx="1460.69" cy="1394.01" r="20.86"/><path class="cls-26" d="M1343.7,1438.83s-3.28-54.15-43.48-67c0,0-2.63,53.32,37.22,67Z"/><path class="cls-26" d="M1340.21,1439.63s21.6-26.74,57.11-29c0,0-6.4,19.21-22.72,29Z"/><line class="cls-27" x1="1339.3" y1="1363.83" x2="1339.3" y2="1442.14"/><circle class="cls-2" cx="1339.68" cy="1358.1" r="20.86"/><path class="cls-27" d="M1272.3,1412.89s6.5,24.48,42.86,28.1"/><path class="cls-6" d="M1288,1387.61a14.4,14.4,0,0,1,0,1.73c-.33-2.75-1.39-4.94-3.17-6.1-4.06-2.66-10.46.89-14.9,8-5.67-6.17-12.61-8.49-16.11-5.14-1.5,1.43-2.15,3.69-2,6.34q-.13-.72-.21-1.47c-.63-6.91,3.56-13,9.37-13.48a9.81,9.81,0,0,1,8,3.23,9.83,9.83,0,0,1,7.3-4.64C1282.08,1375.53,1287.31,1380.7,1288,1387.61Z"/><path class="cls-7" d="M1284.79,1403.57c-3.45,6.51-8.56,10.63-12.74,10.77-4.12.63-9.91-2.49-14.48-8.27-5.88-7.4-7.56-16.35-3.75-20,3.5-3.35,10.44-1,16.11,5.14,4.44-7.1,10.84-10.65,14.9-8C1289.23,1386.12,1289.22,1395.22,1284.79,1403.57Z"/><line class="cls-4" x1="1223.04" y1="1440.99" x2="1659.08" y2="1440.99"/><path class="cls-6" d="M1570.52,1350.24c.81-5.56-1.21-10.3-5.87-12.23-5.07-2.11-11.92,4.18-17.71,8.55h0c-5.69-4.48-12.51-10.89-17.62-8.88-4.84,1.9-6.94,6.82-6.07,12.61-2.72-7.24-.94-14.88,4.63-18.1a11.71,11.71,0,0,1,9.24-.92c2.18-4.23,5.74-7,9.75-7s7.58,2.75,9.76,7a11.71,11.71,0,0,1,9.24.92C1571.43,1335.4,1573.22,1343,1570.52,1350.24Z"/></g><g id="TENT-3" data-name="TENT"><path class="cls-2" d="M1689.7,1056.08c0,21.84-27.89,39.55-62.28,39.55s-62.28-17.71-62.28-39.55c0,21.84-27.89,39.55-62.29,39.55s-62.28-17.71-62.28-39.55c0,21.84-27.89,39.55-62.29,39.55s-62.28-17.71-62.28-39.55c0,21.84-27.89,39.55-62.28,39.55s-62.29-17.71-62.29-39.55l42.23-140.95h413.81Z"/><line class="cls-4" x1="1191.43" y1="1056.09" x2="1689.7" y2="1056.09"/><line class="cls-4" x1="1233.66" y1="915.13" x2="1647.47" y2="915.13"/></g></g><g id="SIGNBOARD-3" data-name="SIGNBOARD"><polyline class="cls-17" points="757.48 830.02 757.48 770.71 1100.54 770.71 1100.54 830.02"/><path class="cls-23" d="M1136.78,672.89v84.86a12.85,12.85,0,0,1-12.74,13H734a12.85,12.85,0,0,1-12.74-13V672.89c25-43.68,108.55-89,207.77-89S1111.77,629.21,1136.78,672.89Z"/><path class="cls-28" d="M1136.78,672.89v84.86a12.85,12.85,0,0,1-12.74,13H734a12.85,12.85,0,0,1-12.74-13V672.89c25-43.68,108.55-89,207.77-89S1111.77,629.21,1136.78,672.89Z"/><path class="cls-22" d="M860.38,664.34h-6.7a35.56,35.56,0,0,0-35.56,35.55h0a7.55,7.55,0,0,0,7.55,7.55H984"/><path class="cls-22" d="M910,643.73h-9.94a47.17,47.17,0,0,0-47.17,47.17v.36a16.18,16.18,0,0,0,16.18,16.18"/><path class="cls-22" d="M994.06,656.72a42.53,42.53,0,0,0-40.33-29.05h-9.86a42.51,42.51,0,0,0-42.51,42.51v20.06a17.2,17.2,0,0,0,17.2,17.2"/><path class="cls-22" d="M958.14,697.14v-9.93a30.49,30.49,0,0,1,30.49-30.49h2.89A45.83,45.83,0,0,1,1029,676.15l8.71,12.38a12,12,0,0,1-9.81,18.91H968.44A10.3,10.3,0,0,1,958.14,697.14Z"/><line class="cls-30" x1="854.52" y1="732.1" x2="1003.5" y2="732.1"/></g></g></g></svg>