<svg id="Calque_1" data-name="Calque 1" xmlns="http://www.w3.org/2000/svg" viewBox="0 0 2918.88 1624.55"><defs><style>.cls-1,.cls-10,.cls-14,.cls-17,.cls-19,.cls-20,.cls-21,.cls-3,.cls-4{fill:none;}.cls-1,.cls-17{stroke:#573240;}.cls-1,.cls-10,.cls-14,.cls-19,.cls-21,.cls-3,.cls-4{stroke-linecap:round;}.cls-1,.cls-14,.cls-17,.cls-3{stroke-linejoin:round;}.cls-1,.cls-17,.cls-3{stroke-width:4px;}.cls-2{fill:#f1b104;}.cls-14,.cls-19,.cls-3,.cls-4{stroke:#fff;}.cls-10,.cls-19,.cls-20,.cls-21,.cls-4{stroke-miterlimit:10;}.cls-10,.cls-14,.cls-20,.cls-21,.cls-4{stroke-width:5px;}.cls-5{fill:#82cdc5;}.cls-6{fill:#fff;}.cls-7{fill:#ff6e00;}.cls-8{fill:#169794;}.cls-9{fill:#573240;}.cls-10,.cls-20{stroke:#f1b104;}.cls-11{fill:#a9d8d5;}.cls-12{fill:#e0f1f0;}.cls-13{fill:#ff8b33;}.cls-15{fill:#fde5e3;}.cls-16{fill:#fcd4d0;}.cls-18{fill:#107775;}.cls-19{stroke-width:6px;}.cls-21{stroke:#a9d8d5;}</style></defs><title>restorer</title><g id="Слой_1" data-name="Слой 1"><g id="PIZZERIA"><g id="SIGNBOARD"><line class="cls-1" x1="2560.51" y1="735.86" x2="2599.29" y2="735.86"/><line class="cls-1" x1="2560.51" y1="756.72" x2="2599.29" y2="756.72"/><circle class="cls-2" cx="2724.55" cy="830.39" r="114.84" transform="translate(194.51 2088.82) rotate(-45)"/><path class="cls-3" d="M2772.23,849.09,2728.47,747l-45.63,100.4S2721.18,872.75,2772.23,849.09Z" transform="translate(-16.32 -80.94)"/><path class="cls-3" d="M2759.2,852.78l-37.34-89.69" transform="translate(-16.32 -80.94)"/><path class="cls-3" d="M2747.18,856.48l-32.46-78" transform="translate(-16.32 -80.94)"/><path class="cls-3" d="M2733.11,858.33l-26.22-63" transform="translate(-16.32 -80.94)"/><path class="cls-3" d="M2719.11,858.33l-19.57-47" transform="translate(-16.32 -80.94)"/><path class="cls-3" d="M2704.11,855.55l-11.86-28.47" transform="translate(-16.32 -80.94)"/><line class="cls-4" x1="2645.66" y1="800.39" x2="2770.8" y2="800.39"/><rect class="cls-5" x="2675.29" y="816.5" width="21.96" height="15.82"/><rect class="cls-6" x="2697.25" y="816.5" width="21.96" height="15.82"/><rect class="cls-7" x="2719.21" y="816.5" width="21.96" height="15.82"/></g><rect id="BUILDING" class="cls-8" x="1473.45" y="733.92" width="1087.06" height="887.13"/><g id="DOOR"><polyline class="cls-1" points="1491.79 1621.05 1491.79 1584.47 1962.38 1584.47 1962.38 1621.05"/><polyline class="cls-1" points="1527.16 1584.47 1527.16 1551.69 1927 1551.69 1927 1584.47"/><path class="cls-6" d="M1902,1630.48H1584.78a9.27,9.27,0,0,1-9.28-9.26V924.41a9.28,9.28,0,0,1,9.28-9.28H1902a9.29,9.29,0,0,1,9.28,9.28V1621.2a9.27,9.27,0,0,1-9.28,9.28Z" transform="translate(-16.32 -80.94)"/><path class="cls-9" d="M1868.3,1420.32H1618.5a16,16,0,0,1-16-16V957.8a16,16,0,0,1,16-16h249.8a16,16,0,0,1,16,16v446.54A16,16,0,0,1,1868.3,1420.32Z" transform="translate(-16.32 -80.94)"/><polyline class="cls-3" points="1755.48 969.05 1727.08 918.08 1699.24 969.05"/><path class="cls-2" d="M1819.55,1096.7H1667.11a8.72,8.72,0,0,1-8.7-8.7v-29.31a8.71,8.71,0,0,1,8.7-8.7h152.44a8.68,8.68,0,0,1,8.7,8.68V1088A8.7,8.7,0,0,1,1819.55,1096.7Z" transform="translate(-16.32 -80.94)"/><circle class="cls-10" cx="1833.32" cy="1141.6" r="15.45"/><line class="cls-4" x1="1629.05" y1="1160.52" x2="1822.15" y2="967.43"/><line class="cls-4" x1="1720.4" y1="1112.82" x2="1797.52" y2="1035.7"/><line class="cls-4" x1="1680.35" y1="1151.74" x2="1696.45" y2="1135.65"/></g><g id="WINDOW"><g id="WINDOW-2"><path class="cls-9" d="M2541.41,1420.32h-464a16.75,16.75,0,0,1-16.75-16.75V931.88a16.75,16.75,0,0,1,16.75-16.75h464a16.74,16.74,0,0,1,16.7,16.75v471.69A16.75,16.75,0,0,1,2541.41,1420.32Z" transform="translate(-16.32 -80.94)"/><line class="cls-4" x1="2208.94" y1="1232.63" x2="2439.23" y2="1002.34"/><line class="cls-4" x1="2433.25" y1="1060.36" x2="2445.77" y2="1047.84"/><line class="cls-4" x1="2317.88" y1="1175.73" x2="2418.97" y2="1074.64"/><line class="cls-4" x1="2137.19" y1="1085.44" x2="2229.16" y2="993.47"/></g><g id="TENT"><polygon class="cls-11" points="2044.44 834.19 2044.44 889.56 1992.92 889.56 2044.44 834.19"/><path class="cls-5" d="M2060.76,970.5v44.07h-38.59a12.93,12.93,0,0,1-12.93-12.93h0V970.5Z" transform="translate(-16.32 -80.94)"/><rect class="cls-6" x="2044.44" y="834.19" width="51.52" height="55.37"/><rect class="cls-12" x="2044.44" y="889.56" width="51.52" height="44.07"/><rect class="cls-13" x="2095.96" y="834.19" width="51.53" height="55.37"/><rect class="cls-7" x="2095.96" y="889.56" width="51.53" height="44.07"/><rect class="cls-11" x="2147.49" y="834.19" width="51.52" height="55.37"/><rect class="cls-5" x="2147.49" y="889.56" width="51.52" height="44.07"/><rect class="cls-6" x="2199" y="834.19" width="51.52" height="55.37"/><rect class="cls-12" x="2199" y="889.56" width="51.52" height="44.07"/><rect class="cls-13" x="2250.52" y="834.19" width="51.52" height="55.37"/><rect class="cls-7" x="2250.52" y="889.56" width="51.52" height="44.07"/><rect class="cls-11" x="2302.04" y="834.19" width="51.52" height="55.37"/><rect class="cls-5" x="2302.04" y="889.56" width="51.52" height="44.07"/><rect class="cls-6" x="2353.56" y="834.19" width="51.52" height="55.37"/><rect class="cls-12" x="2353.56" y="889.56" width="51.52" height="44.07"/><rect class="cls-13" x="2405.08" y="834.19" width="51.52" height="55.37"/><rect class="cls-7" x="2405.08" y="889.56" width="51.52" height="44.07"/><rect class="cls-11" x="2456.59" y="834.19" width="51.52" height="55.37"/><rect class="cls-5" x="2456.59" y="889.56" width="51.52" height="44.07"/><rect class="cls-6" x="2508.11" y="834.19" width="51.52" height="55.37"/><rect class="cls-12" x="2508.11" y="889.56" width="51.52" height="44.07"/><polygon class="cls-13" points="2611.16 889.56 2559.63 889.56 2559.63 834.19 2611.16 889.56"/><path class="cls-7" d="M2627.48,970.5v31.13a12.93,12.93,0,0,1-12.92,12.94H2576V970.5Z" transform="translate(-16.32 -80.94)"/></g></g><g id="BUSH"><path class="cls-11" d="M2160.91,1702a57.91,57.91,0,0,1,94.92-44.54,84.21,84.21,0,0,1-1.14-13.91,85.08,85.08,0,0,1,167.82-19.82,134.44,134.44,0,0,1,41.37-6.4c47.24,0,87.43,23.62,102.25,56.56a98.53,98.53,0,0,1,12.84-.84c29.45,0,53.31,13,53.31,29Z" transform="translate(-16.32 -80.94)"/><path class="cls-7" d="M2452.53,1662.21c-5.35,9.25-16.43,14.81-16.43,14.81a27.22,27.22,0,0,1,2.94-18.69c5.35-9.25,12.71-15.88,16.43-14.81S2457.88,1653,2452.53,1662.21Z" transform="translate(-16.32 -80.94)"/><path class="cls-7" d="M2236.85,1600.06c8.63,12,6.85,28,6.85,28s-15.76-3.41-24.39-15.39-11.69-24.52-6.84-28S2228.23,1588.07,2236.85,1600.06Z" transform="translate(-16.32 -80.94)"/><path class="cls-9" d="M2239.19,1674.6c8.7,9.43,10.13,22.25,10.13,22.25s-12.67-2.46-21.37-11.89-13.23-19.4-10.12-22.26S2230.5,1665.16,2239.19,1674.6Z" transform="translate(-16.32 -80.94)"/><path class="cls-7" d="M2336.11,1665.76c-8.32,9.22-21.46,13.63-21.46,13.63s2.63-13.92,11-23.13,16.29-12.85,19.19-10.23S2344.39,1656.55,2336.11,1665.76Z" transform="translate(-16.32 -80.94)"/><path class="cls-9" d="M2514.67,1673.65c-3.25,9-12.26,14.09-12.26,14.09s-3.75-9.62-.5-18.67,8.74-15.35,12.27-14.08S2517.92,1664.61,2514.67,1673.65Z" transform="translate(-16.32 -80.94)"/><path class="cls-9" d="M2427.66,1672.52a34.07,34.07,0,0,1,2,21.63s-11.27-6.76-16.33-17.59-6-20.51-2-21.63S2422.6,1661.69,2427.66,1672.52Z" transform="translate(-16.32 -80.94)"/><path class="cls-9" d="M2320.42,1632.82c1.19,17.23-6.86,33.53-6.86,33.53s-10.09-14.76-11.29-32,2.25-30.07,7-30.4S2319.22,1615.59,2320.42,1632.82Z" transform="translate(-16.32 -80.94)"/></g><g id="STAND"><polygon class="cls-9" points="2535.32 1569.55 2665.39 1569.54 2612.98 1182.1 2612.53 1182.1 2535.32 1569.55"/><line class="cls-1" x1="2537.65" y1="1568.55" x2="2526.73" y2="1620.06"/><polygon class="cls-7" points="2665.35 1569.55 2907.92 1569.55 2825.74 1182.1 2612.98 1182.1 2665.35 1569.55"/><polyline class="cls-1" points="2916.88 1621.05 2905.96 1569.54 2665.39 1569.54 2672.34 1621.05"/><path class="cls-14" d="M2857.77,1453.79c9,51.24-22.58,92.76-70.63,92.76s-94.3-41.52-103.33-92.76,22.58-92.76,70.62-92.76l16.35,92.76,62-53A114.56,114.56,0,0,1,2857.77,1453.79Z" transform="translate(-16.32 -80.94)"/><path class="cls-14" d="M2838.48,1370.18l-56.71,48.47-14.95-84.79C2793.84,1333.86,2820.24,1348.23,2838.48,1370.18Z" transform="translate(-16.32 -80.94)"/><ellipse class="cls-4" cx="2722.55" cy="1446.09" rx="12.29" ry="14.83" transform="translate(-313.95 1983.18) rotate(-39.54)"/><ellipse class="cls-4" cx="2817.86" cy="1494.99" rx="11.18" ry="13.33" transform="translate(-204.02 2482.65) rotate(-47.52)"/><line class="cls-4" x1="2703.74" y1="1330.39" x2="2720" y2="1339.84"/><line class="cls-4" x1="2780.28" y1="1382.47" x2="2801.38" y2="1382.47"/><line class="cls-4" x1="2741.57" y1="1389.92" x2="2758.25" y2="1401.86"/><line class="cls-14" x1="2706.31" y1="1406.34" x2="2723.02" y2="1405.05"/><ellipse class="cls-14" cx="2783.32" cy="1515.31" rx="5.4" ry="6.44" transform="translate(-230.23 2463.77) rotate(-47.52)"/><ellipse class="cls-14" cx="2739.47" cy="1389.49" rx="5.4" ry="6.44" transform="translate(-151.68 2390.57) rotate(-47.52)"/><ellipse class="cls-14" cx="2805.38" cy="1368.39" rx="5.4" ry="6.44" transform="translate(-114.71 2432.33) rotate(-47.52)"/><ellipse class="cls-14" cx="2835.31" cy="1449.67" rx="5.4" ry="6.44" transform="translate(-164.94 2480.8) rotate(-47.52)"/><line class="cls-14" x1="2770.14" y1="1291.21" x2="2776.19" y2="1304.6"/><line class="cls-14" x1="2733.73" y1="1424.04" x2="2742.29" y2="1440.3"/><line class="cls-14" x1="2805.11" y1="1347.59" x2="2820.2" y2="1347.59"/></g><g id="TERRACE"><g id="UMBRELLAS"><line class="cls-1" x1="2304.76" y1="561.24" x2="2304.76" y2="366.18"/><polygon class="cls-15" points="2557.69 366.18 2057.94 366.18 2307.82 244.22 2557.69 366.18"/><path class="cls-16" d="M2074.26,447.12c0,17.52,22.38,31.73,50,31.73s50-14.21,50-31.73Z" transform="translate(-16.32 -80.94)"/><path class="cls-16" d="M2174.21,447.12c0,17.52,22.38,31.73,50,31.73s50-14.21,50-31.73Z" transform="translate(-16.32 -80.94)"/><path class="cls-16" d="M2274.16,447.12c0,17.52,22.38,31.73,50,31.73s50-14.21,50-31.73Z" transform="translate(-16.32 -80.94)"/><path class="cls-16" d="M2374.11,447.12c0,17.52,22.38,31.73,50,31.73s50-14.21,50-31.73Z" transform="translate(-16.32 -80.94)"/><path class="cls-16" d="M2474.11,447.12c0,17.52,22.38,31.73,50,31.73s50-14.21,50-31.73Z" transform="translate(-16.32 -80.94)"/><line class="cls-1" x1="1762.44" y1="561.24" x2="1762.44" y2="366.18"/><polygon class="cls-15" points="2015.38 366.18 1515.63 366.18 1765.5 244.22 2015.38 366.18"/><path class="cls-16" d="M1532,447.12c0,17.52,22.37,31.73,50,31.73s50-14.21,50-31.73Z" transform="translate(-16.32 -80.94)"/><path class="cls-16" d="M1631.9,447.12c0,17.52,22.37,31.73,50,31.73s50-14.21,50-31.73Z" transform="translate(-16.32 -80.94)"/><path class="cls-16" d="M1731.85,447.12c0,17.52,22.37,31.73,50,31.73s50-14.21,50-31.73Z" transform="translate(-16.32 -80.94)"/><path class="cls-16" d="M1831.8,447.12c0,17.52,22.37,31.73,50,31.73s50-14.21,50-31.73Z" transform="translate(-16.32 -80.94)"/><path class="cls-16" d="M1931.75,447.12c0,17.52,22.37,31.73,50,31.73s50-14.21,50-31.73Z" transform="translate(-16.32 -80.94)"/></g><g id="PLANTS"><path class="cls-2" d="M2491.11,683.65h-294a21.93,21.93,0,0,1-21.27-16.58l-5.76-22.9h348.08l-5.76,22.9A21.92,21.92,0,0,1,2491.11,683.65Z" transform="translate(-16.32 -80.94)"/><path class="cls-5" d="M2173.11,643.59l.1.39a11.9,11.9,0,1,1,11.74-20.7,12.22,12.22,0,0,1,1.74,1.2c2.8-7.64,9.51-13,17.32-13,7.1,0,13.26,4.42,16.44,10.93a17,17,0,0,1,16.57.74c2.52-8,9.1-13.76,16.8-13.76,8.07,0,14.9,6.28,17.13,14.9a16.53,16.53,0,0,1,24.56,4.68c1.46-10.85,11.25-19.24,23.12-19.24a23.57,23.57,0,0,1,20,10.72,24.57,24.57,0,0,1,6.55-.89,24,24,0,0,1,17.36,7.32c.58-11.61,9.29-20.82,20-20.82,8.66,0,16,6.07,18.82,14.57a23,23,0,0,1,14.88-5.4,22.6,22.6,0,0,1,22.28,17.62c3.4-5.05,10-8.47,17.53-8.47a23.88,23.88,0,0,1,7.17,1.08c3.76-8.3,11.41-14,20.24-14s16.41,5.63,20.18,13.87c8.63,2.52,15,9.65,15.81,18.26Z" transform="translate(-16.32 -80.94)"/><circle class="cls-5" cx="2213.25" cy="519.06" r="6.04"/><circle class="cls-5" cx="2501.84" cy="536.38" r="6.04"/><circle class="cls-5" cx="2390.59" cy="522.92" r="6.04"/><circle class="cls-5" cx="2322.09" cy="502.64" r="6.04"/><path class="cls-5" d="M1569.22,644.17l.1.38a11.9,11.9,0,1,1,11.73-20.71,11.76,11.76,0,0,1,1.76,1.22c2.8-7.64,9.5-13,17.32-13,7.09,0,13.26,4.42,16.44,10.93a16.86,16.86,0,0,1,16.56.74c2.53-8,9.1-13.76,16.81-13.76,8.06,0,14.9,6.28,17.12,14.9a16.54,16.54,0,0,1,23.23,2.73,15.24,15.24,0,0,1,1.33,1.95c1.46-10.85,11.26-19.24,23.13-19.24a23.57,23.57,0,0,1,20,10.72,24.5,24.5,0,0,1,6.54-.89,24,24,0,0,1,17.37,7.32c.57-11.61,9.28-20.83,20-20.83,8.66,0,16,6.07,18.82,14.57a23.07,23.07,0,0,1,14.88-5.39,22.6,22.6,0,0,1,22.28,17.62c3.39-5,10-8.47,17.53-8.47a23.88,23.88,0,0,1,7.17,1.08c3.75-8.3,11.41-14,20.24-14s16.41,5.63,20.18,13.87c8.62,2.51,15,9.65,15.8,18.26Z" transform="translate(-16.32 -80.94)"/><path class="cls-2" d="M1890.28,683.65h-294A21.92,21.92,0,0,1,1575,667.07l-5.76-22.9h348l-5.76,22.9A21.93,21.93,0,0,1,1890.28,683.65Z" transform="translate(-16.32 -80.94)"/><circle class="cls-5" cx="1734.42" cy="503.53" r="7.47"/><circle class="cls-5" cx="1899.71" cy="537.69" r="6.38"/><circle class="cls-5" cx="1560" cy="524.9" r="6.38"/><circle class="cls-5" cx="1526.9" cy="577.96" r="6.38"/></g><polyline class="cls-17" points="1473.45 561.24 2558.52 561.24 2558.52 733.93"/><line class="cls-17" x1="1545.92" y1="561.24" x2="1545.92" y2="733.92"/><line class="cls-17" x1="1618.39" y1="561.24" x2="1618.39" y2="733.92"/><line class="cls-17" x1="1690.86" y1="561.24" x2="1690.86" y2="733.92"/><line class="cls-17" x1="1763.33" y1="561.24" x2="1763.33" y2="733.92"/><line class="cls-17" x1="1835.8" y1="561.24" x2="1835.8" y2="733.92"/><line class="cls-17" x1="1908.27" y1="561.24" x2="1908.27" y2="733.92"/><line class="cls-17" x1="1980.74" y1="561.24" x2="1980.74" y2="733.92"/><line class="cls-17" x1="2053.21" y1="561.24" x2="2053.21" y2="733.92"/><line class="cls-17" x1="2125.68" y1="561.24" x2="2125.68" y2="733.92"/><line class="cls-17" x1="2198.15" y1="561.24" x2="2198.15" y2="733.92"/><line class="cls-17" x1="2270.63" y1="561.24" x2="2270.63" y2="733.92"/><line class="cls-17" x1="2343.09" y1="561.24" x2="2343.09" y2="733.92"/><line class="cls-17" x1="2415.57" y1="561.24" x2="2415.57" y2="733.92"/><line class="cls-17" x1="2488.04" y1="561.24" x2="2488.04" y2="733.92"/></g></g><g id="CHINESE_RESTARAUNT" data-name="CHINESE RESTARAUNT"><g id="BUILDING-2"><rect class="cls-18" x="278.1" y="212.48" width="1195.35" height="1408.57"/><rect class="cls-6" x="547.52" y="814.33" width="74.49" height="806.72"/><rect class="cls-6" x="1104.7" y="814.33" width="74.49" height="806.72"/></g><g id="LIGHTS"><line class="cls-19" x1="394.94" y1="714.23" x2="394.94" y2="806.84"/><path class="cls-7" d="M493.84,944.28A54.85,54.85,0,0,1,439,999.12h-55.5a54.84,54.84,0,0,1,0-109.67H439A54.85,54.85,0,0,1,493.84,944.28Z" transform="translate(-16.32 -80.94)"/><path class="cls-7" d="M493.84,944.28A54.85,54.85,0,0,1,439,999.12H415a36.53,36.53,0,0,1-3.78-.13,54.84,54.84,0,0,0,0-109.41c1.25-.08,2.51-.13,3.78-.13h24A54.85,54.85,0,0,1,493.84,944.28Z" transform="translate(-16.32 -80.94)"/><path class="cls-7" d="M411.26,999c-1.25.08-2.52.13-3.79.13h-24A54.84,54.84,0,0,1,382,889.46h25.48c1.27,0,2.54,0,3.79.12a54.84,54.84,0,0,0,0,109.42Z" transform="translate(-16.32 -80.94)"/><path class="cls-4" d="M493.84,944.28A54.85,54.85,0,0,1,439,999.12H415a36.53,36.53,0,0,1-3.78-.13,54.84,54.84,0,0,0,0-109.41c1.25-.08,2.51-.13,3.78-.13h24A54.85,54.85,0,0,1,493.84,944.28Z" transform="translate(-16.32 -80.94)"/><path class="cls-4" d="M407.47,999.13h-24A54.84,54.84,0,0,1,382,889.46h27.43" transform="translate(-16.32 -80.94)"/><line class="cls-4" x1="394.94" y1="808.64" x2="394.94" y2="918.06"/><rect class="cls-6" x="367.19" y="918.19" width="58.07" height="11.9"/><path class="cls-4" d="M411.26,889.58a54.84,54.84,0,0,0,0,109.42" transform="translate(-16.32 -80.94)"/><line class="cls-19" x1="1333.31" y1="714.23" x2="1333.31" y2="806.84"/><path class="cls-7" d="M1432.21,944.28a54.85,54.85,0,0,1-54.83,54.84h-55.5a54.84,54.84,0,1,1-1.48-109.67h57A54.85,54.85,0,0,1,1432.21,944.28Z" transform="translate(-16.32 -80.94)"/><path class="cls-7" d="M1432.21,944.28a54.85,54.85,0,0,1-54.83,54.84h-24a36.53,36.53,0,0,1-3.78-.13,54.84,54.84,0,0,0,0-109.41c1.25-.08,2.51-.13,3.78-.13h24A54.85,54.85,0,0,1,1432.21,944.28Z" transform="translate(-16.32 -80.94)"/><path class="cls-7" d="M1349.63,999c-1.25.08-2.52.13-3.79.13h-24a54.84,54.84,0,1,1-1.48-109.67h25.48c1.27,0,2.54,0,3.79.12a54.84,54.84,0,0,0,0,109.42Z" transform="translate(-16.32 -80.94)"/><path class="cls-4" d="M1432.21,944.28a54.85,54.85,0,0,1-54.83,54.84h-24a36.53,36.53,0,0,1-3.78-.13,54.84,54.84,0,0,0,0-109.41c1.25-.08,2.51-.13,3.78-.13h24A54.85,54.85,0,0,1,1432.21,944.28Z" transform="translate(-16.32 -80.94)"/><path class="cls-4" d="M1345.84,999.13h-24a54.84,54.84,0,1,1-1.48-109.67h27.42" transform="translate(-16.32 -80.94)"/><line class="cls-4" x1="1333.31" y1="808.64" x2="1333.31" y2="918.06"/><rect class="cls-6" x="1305.56" y="918.19" width="58.07" height="11.9"/><path class="cls-4" d="M1349.63,889.58a54.84,54.84,0,0,0,0,109.42" transform="translate(-16.32 -80.94)"/></g><g id="WINDOWS"><rect class="cls-9" x="347.37" y="975.15" width="137.93" height="453.01"/><line class="cls-20" x1="416.33" y1="975.15" x2="416.33" y2="1428.16"/><line class="cls-20" x1="485.3" y1="1352.66" x2="347.37" y2="1352.66"/><line class="cls-20" x1="485.3" y1="1277.16" x2="347.37" y2="1277.16"/><line class="cls-20" x1="485.3" y1="1201.65" x2="347.37" y2="1201.65"/><line class="cls-20" x1="485.3" y1="1126.15" x2="347.37" y2="1126.15"/><line class="cls-20" x1="485.3" y1="1050.65" x2="347.37" y2="1050.65"/><rect class="cls-9" x="1241.42" y="975.15" width="137.93" height="453.01"/><line class="cls-20" x1="1310.38" y1="975.15" x2="1310.38" y2="1428.16"/><line class="cls-20" x1="1379.35" y1="1352.66" x2="1241.42" y2="1352.66"/><line class="cls-20" x1="1379.35" y1="1277.16" x2="1241.42" y2="1277.16"/><line class="cls-20" x1="1379.35" y1="1201.65" x2="1241.42" y2="1201.65"/><line class="cls-20" x1="1379.35" y1="1126.15" x2="1241.42" y2="1126.15"/><line class="cls-20" x1="1379.35" y1="1050.65" x2="1241.42" y2="1050.65"/><rect class="cls-9" x="897.75" y="305.18" width="516.21" height="211.93"/><polyline class="cls-20" points="962.27 305.18 962.27 375.82 897.74 375.82"/><polyline class="cls-20" points="897.74 375.82 962.27 375.82 962.27 446.47 897.74 446.47"/><polyline class="cls-20" points="897.74 446.47 962.27 446.47 962.27 517.11"/><polyline class="cls-20" points="1026.8 305.18 1026.8 375.82 962.27 375.82 962.27 305.18"/><rect class="cls-20" x="962.27" y="375.83" width="64.53" height="70.64"/><polyline class="cls-20" points="962.27 517.11 962.27 446.47 1026.8 446.47 1026.8 517.11"/><polyline class="cls-20" points="1091.32 305.18 1091.32 375.82 1026.8 375.82 1026.8 305.18"/><rect class="cls-20" x="1026.8" y="375.83" width="64.53" height="70.64"/><polyline class="cls-20" points="1026.8 517.11 1026.8 446.47 1091.32 446.47 1091.32 517.11"/><polyline class="cls-20" points="1155.85 305.18 1155.85 375.82 1091.32 375.82 1091.32 305.18"/><rect class="cls-20" x="1091.33" y="375.83" width="64.53" height="70.64"/><polyline class="cls-20" points="1091.32 517.11 1091.32 446.47 1155.85 446.47 1155.85 517.11"/><polyline class="cls-20" points="1220.38 305.18 1220.38 375.82 1155.85 375.82 1155.85 305.18"/><rect class="cls-20" x="1155.85" y="375.83" width="64.53" height="70.64"/><polyline class="cls-20" points="1155.85 517.11 1155.85 446.47 1220.38 446.47 1220.38 517.11"/><polyline class="cls-20" points="1284.91 305.18 1284.91 375.82 1220.38 375.82 1220.38 305.18"/><rect class="cls-20" x="1220.38" y="375.83" width="64.53" height="70.64"/><polyline class="cls-20" points="1220.38 517.11 1220.38 446.47 1284.91 446.47 1284.91 517.11"/><polyline class="cls-20" points="1349.43 305.18 1349.43 375.82 1284.91 375.82 1284.91 305.18"/><rect class="cls-20" x="1284.91" y="375.83" width="64.53" height="70.64"/><polyline class="cls-20" points="1284.91 517.11 1284.91 446.47 1349.43 446.47 1349.43 517.11"/><polyline class="cls-20" points="1413.96 375.82 1349.43 375.82 1349.43 305.18"/><polyline class="cls-20" points="1413.96 446.47 1349.43 446.47 1349.43 375.82 1413.96 375.82"/><polyline class="cls-20" points="1349.43 517.11 1349.43 446.47 1413.96 446.47"/><rect class="cls-9" x="339.69" y="305.18" width="516.21" height="211.93"/><polyline class="cls-20" points="404.22 305.18 404.22 375.82 339.69 375.82"/><polyline class="cls-20" points="339.69 375.82 404.22 375.82 404.22 446.47 339.69 446.47"/><polyline class="cls-20" points="339.69 446.47 404.22 446.47 404.22 517.11"/><polyline class="cls-20" points="468.74 305.18 468.74 375.82 404.22 375.82 404.22 305.18"/><rect class="cls-20" x="404.22" y="375.83" width="64.53" height="70.64"/><polyline class="cls-20" points="404.22 517.11 404.22 446.47 468.74 446.47 468.74 517.11"/><polyline class="cls-20" points="533.27 305.18 533.27 375.82 468.74 375.82 468.74 305.18"/><rect class="cls-20" x="468.74" y="375.83" width="64.53" height="70.64"/><polyline class="cls-20" points="468.74 517.11 468.74 446.47 533.27 446.47 533.27 517.11"/><polyline class="cls-20" points="597.8 305.18 597.8 375.82 533.27 375.82 533.27 305.18"/><rect class="cls-20" x="533.27" y="375.83" width="64.53" height="70.64"/><polyline class="cls-20" points="533.27 517.11 533.27 446.47 597.8 446.47 597.8 517.11"/><polyline class="cls-20" points="662.32 305.18 662.32 375.82 597.8 375.82 597.8 305.18"/><rect class="cls-20" x="597.8" y="375.83" width="64.53" height="70.64"/><polyline class="cls-20" points="597.8 517.11 597.8 446.47 662.32 446.47 662.32 517.11"/><polyline class="cls-20" points="726.85 305.18 726.85 375.82 662.32 375.82 662.32 305.18"/><rect class="cls-20" x="662.32" y="375.83" width="64.53" height="70.64"/><polyline class="cls-20" points="662.32 517.11 662.32 446.47 726.85 446.47 726.85 517.11"/><polyline class="cls-20" points="791.38 305.18 791.38 375.82 726.85 375.82 726.85 305.18"/><rect class="cls-20" x="726.85" y="375.83" width="64.53" height="70.64"/><polyline class="cls-20" points="726.85 517.11 726.85 446.47 791.38 446.47 791.38 517.11"/><polyline class="cls-20" points="855.9 375.82 791.38 375.82 791.38 305.18"/><polyline class="cls-20" points="855.9 446.47 791.38 446.47 791.38 375.82 855.9 375.82"/><polyline class="cls-20" points="791.38 517.11 791.38 446.47 855.9 446.47"/></g><g id="SIGNBOARD-2"><path class="cls-9" d="M242.37,605.82H36.3a6.19,6.19,0,0,1-6.19-6.19V393.56a6.2,6.2,0,0,1,6.19-6.2H242.37a6.21,6.21,0,0,1,6.2,6.2V599.63A6.2,6.2,0,0,1,242.37,605.82Z" transform="translate(-16.32 -80.94)"/><path class="cls-7" d="M218.79,605.82H32.32a16,16,0,0,1-16-16V403.36a16,16,0,0,1,16-16H218.79a16,16,0,0,1,16,16V589.82A16,16,0,0,1,218.79,605.82Z" transform="translate(-16.32 -80.94)"/><line class="cls-17" x1="278.35" y1="523.16" x2="218.46" y2="523.16"/><line class="cls-17" x1="218.46" y1="308.15" x2="278.35" y2="308.15"/><line class="cls-1" x1="104.47" y1="408.8" x2="84.78" y2="343.12"/><line class="cls-1" x1="60.84" y1="345.13" x2="95.52" y2="405.35"/><polygon class="cls-6" points="115.88 477.39 69.53 477.39 43.69 405.35 141.72 405.35 115.88 477.39"/><polygon class="cls-9" points="172.73 405.36 146.89 477.39 115.87 477.39 141.72 405.36 172.73 405.36"/><line class="cls-21" x1="41.96" y1="405.35" x2="174.46" y2="405.35"/></g><g id="DOOR-2"><path class="cls-7" d="M1043.38,1665.41H716a12.28,12.28,0,0,1-12.28-12.28h0V949.55A12.27,12.27,0,0,1,716,937.28h327.41a12.27,12.27,0,0,1,12.27,12.27h0v703.58a12.27,12.27,0,0,1-12.26,12.28Z" transform="translate(-16.32 -80.94)"/><rect class="cls-20" x="742.73" y="935.42" width="64.15" height="75.05"/><rect class="cls-20" x="830.96" y="935.42" width="64.15" height="75.05"/><rect class="cls-20" x="919.19" y="935.42" width="64.15" height="75.05"/><rect class="cls-20" x="742.73" y="1036.96" width="64.15" height="75.05"/><rect class="cls-20" x="830.96" y="1036.96" width="64.15" height="75.05"/><rect class="cls-20" x="919.19" y="1036.96" width="64.15" height="75.05"/><circle class="cls-14" cx="985.93" cy="1192.63" r="17.8"/><polyline class="cls-4" points="622.01 1622.05 622.01 1585.47 1104.7 1585.47 1104.7 1622.05"/></g><g id="ROOF"><path class="cls-11" d="M1292.36,800.23H467c108.68,0,186.89-57,233.18-141.33h359C1105.48,743.19,1183.68,800.23,1292.36,800.23Z" transform="translate(-16.32 -80.94)"/><path class="cls-9" d="M465.11,856.49a130.26,130.26,0,0,0,93.59,39.63h642a130.3,130.3,0,0,0,93.58-39.63l53.54-61.32a304,304,0,0,1-55.43,5.06H467a304.22,304.22,0,0,1-55.45-5.06Z" transform="translate(-16.32 -80.94)"/><path class="cls-19" d="M1347.79,795.17a304,304,0,0,1-55.43,5.06H467a304.22,304.22,0,0,1-55.45-5.06" transform="translate(-16.32 -80.94)"/><path class="cls-11" d="M1574.2,221.49H183.47c105.21-19,194-70.75,247.29-140.55h896.13C1380.17,150.74,1469,202.52,1574.2,221.49Z" transform="translate(-16.32 -80.94)"/><path class="cls-9" d="M1573.7,232.42a108.7,108.7,0,0,1-97.68,61H282a108.7,108.7,0,0,1-97.68-61Z" transform="translate(-16.32 -80.94)"/><line class="cls-4" x1="683.86" y1="577.96" x2="1042.86" y2="577.96"/></g></g></g></svg>