<svg id="Calque_1" data-name="Calque 1" xmlns="http://www.w3.org/2000/svg" viewBox="0 0 579.23 291.38"><defs><style>.cls-1{fill:#ed6e1e;}.cls-2{fill:#fff;}.cls-3{fill:#aad9d6;}.cls-12,.cls-13,.cls-4,.cls-6,.cls-8{fill:none;}.cls-13,.cls-4{stroke:#aad9d6;}.cls-11,.cls-13,.cls-4,.cls-6,.cls-8{stroke-miterlimit:10;}.cls-11,.cls-4,.cls-6,.cls-8{stroke-width:5px;}.cls-11,.cls-5{fill:#f0b10a;}.cls-11,.cls-12,.cls-6{stroke:#583340;stroke-linecap:round;}.cls-7{fill:#e0f0f0;}.cls-8{stroke:#fff;}.cls-9{fill:#583340;}.cls-10{fill:#23a78e;}.cls-12{stroke-linejoin:round;}.cls-12,.cls-13{stroke-width:4px;}.cls-14{fill:#fad4d0;}.cls-15{fill:#f4acc1;}.cls-16{fill:#fce5e3;}.cls-17{fill:#f7bed6;}.cls-18{fill:#f3f7fd;}</style></defs><title>user</title><g id="Слой_1" data-name="Слой 1"><g id="DRINK"><polygon class="cls-1" points="532.68 171.09 525.27 171.09 513.28 66.81 520.7 66.81 532.68 171.09"/><polygon class="cls-2" points="521.55 74.24 514.99 81.64 514.57 77.98 521.13 70.58 521.55 74.24"/><polygon class="cls-2" points="522.61 83.46 516.05 90.87 515.63 87.2 522.19 79.8 522.61 83.46"/><polygon class="cls-2" points="523.67 92.68 517.11 100.09 516.69 96.43 523.25 89.02 523.67 92.68"/><polygon class="cls-2" points="524.73 101.91 518.17 109.31 517.75 105.65 524.31 98.25 524.73 101.91"/><polygon class="cls-2" points="525.79 111.13 519.23 118.53 518.81 114.88 525.37 107.47 525.79 111.13"/><polygon class="cls-2" points="526.85 120.35 520.29 127.76 519.87 124.1 526.43 116.69 526.85 120.35"/><polygon class="cls-2" points="527.91 129.58 521.35 136.98 520.93 133.32 527.49 125.92 527.91 129.58"/><polygon class="cls-2" points="528.97 138.8 522.41 146.2 521.99 142.54 528.55 135.14 528.97 138.8"/><polygon class="cls-2" points="530.03 148.02 523.47 155.43 523.05 151.77 529.61 144.36 530.03 148.02"/><polygon class="cls-2" points="531.09 157.24 524.53 164.65 524.11 160.99 530.67 153.58 531.09 157.24"/><path class="cls-3" d="M571.57,172,559.33,279.37a11.74,11.74,0,0,1-11.67,10.4h-40A11.74,11.74,0,0,1,496,279.37L483.69,172Z" transform="translate(-1.83 -0.89)"/><polygon class="cls-2" points="532.15 166.47 528.06 171.09 525.27 171.09 525.17 170.21 531.73 162.81 532.15 166.47"/><path class="cls-4" d="M573.66,154.65,559.33,279.37a11.75,11.75,0,0,1-11.67,10.4h-40A11.73,11.73,0,0,1,496,279.37L481.67,154.65Z" transform="translate(-1.83 -0.89)"/><path class="cls-5" d="M517.22,219.67l38.17-27.38c4.9,10.67,2.1,23.35-7.32,30.1S525.77,227.73,517.22,219.67Z" transform="translate(-1.83 -0.89)"/><path class="cls-1" d="M541.54,222.31l-3.39-13.83,12,7.64a19.42,19.42,0,0,1-8.6,6.19Z" transform="translate(-1.83 -0.89)"/><path class="cls-1" d="M539.61,206.54l14.82-3.29a20.51,20.51,0,0,1-2.74,10.6Z" transform="translate(-1.83 -0.89)"/><path class="cls-1" d="M528,222.28l7.9-13,3.07,13.81A20.48,20.48,0,0,1,528,222.28Z" transform="translate(-1.83 -0.89)"/><path class="cls-1" d="M524.76,220.86a22.24,22.24,0,0,1-4.57-3.32l13.2-9.47Z" transform="translate(-1.83 -0.89)"/><path class="cls-1" d="M539.09,204l13.33-9.57a21.55,21.55,0,0,1,1.69,5.45Z" transform="translate(-1.83 -0.89)"/><path class="cls-6" d="M571.44,147.52H483.9a7.13,7.13,0,0,0-7.13,7.13h101.8a7.13,7.13,0,0,0-7.13-7.13Z" transform="translate(-1.83 -0.89)"/><path class="cls-6" d="M571.64,147.52a40,40,0,0,0-38.91-30.84H522.61a40,40,0,0,0-38.91,30.84Z" transform="translate(-1.83 -0.89)"/><path class="cls-7" d="M540.86,282.23H525.61a3.45,3.45,0,0,1-3.45-3.44h0V263.53a3.46,3.46,0,0,1,3.45-3.45h15.25a3.44,3.44,0,0,1,3.45,3.45h0v15.25a3.44,3.44,0,0,1-3.44,3.45Z" transform="translate(-1.83 -0.89)"/><path class="cls-7" d="M553.09,254.78h-12a3.44,3.44,0,0,1-3.45-3.45v-12a3.45,3.45,0,0,1,3.44-3.45h12a3.45,3.45,0,0,1,3.45,3.45h0v12a3.44,3.44,0,0,1-3.45,3.45Z" transform="translate(-1.83 -0.89)"/><path class="cls-7" d="M512.34,264h-12a3.44,3.44,0,0,1-3.45-3.45v-12a3.45,3.45,0,0,1,3.44-3.45h12a3.46,3.46,0,0,1,3.45,3.45h0v12a3.45,3.45,0,0,1-3.45,3.45Z" transform="translate(-1.83 -0.89)"/><path class="cls-8" d="M520.43,204.11a2,2,0,1,1-2,2h0A2.05,2.05,0,0,1,520.43,204.11Z" transform="translate(-1.83 -0.89)"/><circle class="cls-8" cx="507.84" cy="235.19" r="2.05"/><circle class="cls-8" cx="502.9" cy="187.58" r="2.9"/><circle class="cls-8" cx="552.13" cy="217.4" r="2.9"/><circle class="cls-8" cx="528.63" cy="236.85" r="1.66"/><circle class="cls-8" cx="556.15" cy="223.22" r="1.09"/><circle class="cls-8" cx="544.96" cy="186.79" r="1.81"/><circle class="cls-8" cx="497.43" cy="193.6" r="1.09"/><circle class="cls-8" cx="498.51" cy="227.42" r="1.09"/></g><g id="PACKAGE"><polygon class="cls-9" points="359.61 11.61 359.61 37.07 348.45 37.07 348.45 11.25 293.9 11.25 293.9 37.07 282.75 37.07 282.75 11.61 294.35 0 348 0 359.61 11.61"/><path class="cls-10" d="M357,38V12.51L345.35.9H291.7L280.1,12.51V38H235.47l-28.95,251.8H401.13V38ZM345.8,38H291.25V12.15H345.8Z" transform="translate(-1.83 -0.89)"/><polygon class="cls-9" points="434.17 288.88 399.3 288.88 399.3 37.07 405.23 37.07 434.17 288.88"/><line class="cls-6" x1="278.26" y1="11.46" x2="355.12" y2="11.46"/></g><g id="SALAD"><path class="cls-11" d="M454.47,246l-15.71-31.56a21.75,21.75,0,0,0-19.46-12.05H317.18a21.72,21.72,0,0,0-19.44,12L282,246Z" transform="translate(-1.83 -0.89)"/><path class="cls-2" d="M424.49,255.94c-8.14,8.69-18.66,12.06-26.34,4.86s-5-17.92,3.12-26.61,21.36-12.38,27.77-6.37S432.64,247.25,424.49,255.94Z" transform="translate(-1.83 -0.89)"/><circle class="cls-5" cx="408.75" cy="246.27" r="9.97"/><path class="cls-2" d="M515.47,238.7c2.89,9.21,1.08,18-7.06,20.53s-14.64-3.59-17.53-12.8-.24-20,6.55-22.13S512.58,229.5,515.47,238.7Z" transform="translate(-1.83 -0.89)"/><circle class="cls-5" cx="501.91" cy="244.1" r="8.08"/><path class="cls-1" d="M358.84,257.27l-35.18-19.39c5.89-6.7,16.29-8.45,25-3.67S361.36,248.72,358.84,257.27Z" transform="translate(-1.83 -0.89)"/><path class="cls-12" d="M345.74,242.8c-.61,1.12-3.38,2.77-3.38,2.77s-.08-3.22.54-4.33,1.75-1.67,2.53-1.24S346.35,241.69,345.74,242.8Z" transform="translate(-1.83 -0.89)"/><path class="cls-12" d="M349.31,248.48c-1.26.16-4.22-1.1-4.22-1.1s2.55-2,3.81-2.13,2.37.43,2.49,1.32S350.57,248.32,349.31,248.48Z" transform="translate(-1.83 -0.89)"/><path class="cls-12" d="M336.19,241.24c.53,1.16,3.18,3,3.18,3s.3-3.22-.24-4.36-1.63-1.79-2.44-1.4S335.65,240.09,336.19,241.24Z" transform="translate(-1.83 -0.89)"/><path class="cls-1" d="M454.83,250.57,484,225.63c4,7.61,2,17.57-5.18,23.71S461.58,255.79,454.83,250.57Z" transform="translate(-1.83 -0.89)"/><path class="cls-12" d="M472.13,243.79c-.78-.94-1.31-4-1.31-4s2.89,1.05,3.67,2,.89,2.14.24,2.71S472.91,244.73,472.13,243.79Z" transform="translate(-1.83 -0.89)"/><path class="cls-12" d="M465.88,245c.28-1.19,2.41-3.42,2.41-3.42s.88,3,.59,4.17-1.18,2-2,1.78S465.59,246.23,465.88,245Z" transform="translate(-1.83 -0.89)"/><path class="cls-12" d="M476.76,235.74c-1.21.08-3.74,1.83-3.74,1.83s2.75,1.38,4,1.29,2.14-.85,2.07-1.71S478,235.66,476.76,235.74Z" transform="translate(-1.83 -0.89)"/><path class="cls-3" d="M404,251.11S392.79,246,393.3,230.8s14.08-20,16.61-15.28c1.67,3.12-.29,7-5.72,9-6.15,2.27-9.82,4.17-8.92,11.4A21.56,21.56,0,0,0,404,251.11Z" transform="translate(-1.83 -0.89)"/><path class="cls-12" d="M404,251.11s-12.89-8.71-8.1-22.89c4-11.81,11.89-10.78,11.89-10.78" transform="translate(-1.83 -0.89)"/><path class="cls-12" d="M397.93,223.7a7.41,7.41,0,0,0,1.18-5.43" transform="translate(-1.83 -0.89)"/><circle class="cls-3" cx="377.94" cy="244.04" r="11.86" transform="translate(25.06 524.51) rotate(-71.56)"/><path class="cls-12" d="M379.7,239.48a8.88,8.88,0,0,1-1.49,2.65,9,9,0,0,1-.75-2.94c.11-.88.71-1.53,1.33-1.45S379.82,238.6,379.7,239.48Z" transform="translate(-1.83 -0.89)"/><path class="cls-12" d="M376.21,248.74a8.88,8.88,0,0,1,1.49-2.65,8.88,8.88,0,0,1,.75,2.94c-.12.88-.71,1.52-1.33,1.44S376.09,249.61,376.21,248.74Z" transform="translate(-1.83 -0.89)"/><path class="cls-12" d="M373.33,242.36a9.25,9.25,0,0,1,2.65,1.49,9.16,9.16,0,0,1-3,.76c-.87-.12-1.52-.72-1.44-1.33S372.45,242.25,373.33,242.36Z" transform="translate(-1.83 -0.89)"/><path class="cls-12" d="M382.58,245.86a9.11,9.11,0,0,1-2.65-1.49,9.16,9.16,0,0,1,2.95-.76c.88.12,1.52.72,1.44,1.33S383.46,246,382.58,245.86Z" transform="translate(-1.83 -0.89)"/><circle class="cls-2" cx="296.45" cy="245.89" r="7.04"/><path class="cls-3" d="M323.91,246.05a33.91,33.91,0,0,1-9.7-2.21c-14.35-5-14.26-18-9.67-19.13,3.59-.86,6.28,2.54,6.58,8.33.34,6.55,1.54,11.19,8.72,12.49A37.11,37.11,0,0,0,323.91,246.05Z" transform="translate(-1.83 -0.89)"/><path class="cls-12" d="M325.94,246.08a20.77,20.77,0,0,1-13.37-3.83c-7.56-5.3-7.25-15-7.25-15" transform="translate(-1.83 -0.89)"/><path class="cls-3" d="M325,245.9c.54.09-8.07-.69-10.41-8.18-1.75-5.57,2.58-6.86,4.31-5.11,1.94,2,.43,7.32,2.89,10.87C322.45,244.51,322.35,245.48,325,245.9Z" transform="translate(-1.83 -0.89)"/><path class="cls-12" d="M317.28,234.26s-1.26,9.46,8.66,11.82" transform="translate(-1.83 -0.89)"/><path class="cls-3" d="M447.45,246.27a3.42,3.42,0,0,1-1.68-.05c4.65-2.1,6.2-6.66,7.31-12.61,1.3-7,5.25-10.71,9.64-9.11C468.33,226.54,466.37,242.38,447.45,246.27Z" transform="translate(-1.83 -0.89)"/><path class="cls-12" d="M430.18,248.36c5.17.51,14.3-.24,20.33-3.94a21.25,21.25,0,0,0,9.93-16.95" transform="translate(-1.83 -0.89)"/><path class="cls-3" d="M431.45,248.2c-.68.08,10.29-.4,13.71-9.43,2.54-6.73-2.88-8.55-5.19-6.5-2.57,2.28-1,8.92-4.3,13.14C434.7,246.64,434.78,247.83,431.45,248.2Z" transform="translate(-1.83 -0.89)"/><path class="cls-12" d="M441.87,234.37s1.06,11.65-11.69,14" transform="translate(-1.83 -0.89)"/><path class="cls-6" d="M524.08,246l-15.71-31.56a21.73,21.73,0,0,0-19.46-12.05H419.3a21.75,21.75,0,0,1,19.45,12L454.45,246Z" transform="translate(-1.83 -0.89)"/><path class="cls-6" d="M454.47,246l-15.71-31.56a21.75,21.75,0,0,0-19.46-12.05H317.18a21.72,21.72,0,0,0-19.44,12L282,246Z" transform="translate(-1.83 -0.89)"/><rect class="cls-9" x="335.81" y="201.54" width="50.05" height="24.01"/><path class="cls-2" d="M454.47,246.17l-15.71,31.57a21.7,21.7,0,0,1-19.44,12H317.18a21.7,21.7,0,0,1-19.44-12L282,246.17Z" transform="translate(-1.83 -0.89)"/><path class="cls-2" d="M524.08,246l-15.71,31.56a21.71,21.71,0,0,1-19.44,12H419.31a21.71,21.71,0,0,0,19.45-12L454.47,246Z" transform="translate(-1.83 -0.89)"/><path class="cls-2" d="M524.08,246l-15.71,31.56a21.71,21.71,0,0,1-19.44,12H317.18a21.73,21.73,0,0,1-19.45-12L282,246Z" transform="translate(-1.83 -0.89)"/><path class="cls-6" d="M508.36,277.59a21.71,21.71,0,0,1-19.44,12H419.31a21.71,21.71,0,0,0,19.44-12L454.46,246" transform="translate(-1.83 -0.89)"/><path class="cls-6" d="M454.47,246l-15.71,31.56a21.71,21.71,0,0,1-19.45,12H312.84" transform="translate(-1.83 -0.89)"/><line class="cls-6" x1="275.21" y1="245.28" x2="527.22" y2="245.28"/><path class="cls-13" d="M367.09,218h-4.31v-4.31a8.1,8.1,0,0,1,8.1-8.1h4.31v4.31A8.1,8.1,0,0,1,367.09,218Z" transform="translate(-1.83 -0.89)"/><line class="cls-13" x1="373.35" y1="204.68" x2="358.1" y2="219.93"/><polyline class="cls-13" points="368.73 204.82 368.73 209.3 373.21 209.3"/><polyline class="cls-13" points="364.49 206.16 364.49 213.54 371.88 213.54"/><path class="cls-13" d="M359.14,218.29h1.13v-1.13a8.1,8.1,0,0,0-8.09-8.1H351v1.13A8.1,8.1,0,0,0,359.14,218.29Z" transform="translate(-1.83 -0.89)"/><line class="cls-13" x1="349.21" y1="208.17" x2="359.54" y2="218.49"/><polyline class="cls-13" points="355.08 209.7 355.08 214.04 350.74 214.04"/></g><g id="SMALL_BOX" data-name="SMALL BOX"><path class="cls-9" d="M472.43,169.85l-11.12,22.33a17.81,17.81,0,0,1-15.95,9.87H415.9a17.8,17.8,0,0,0,15.94-9.87L443,169.85Z" transform="translate(-1.83 -0.89)"/><path class="cls-1" d="M443,169.85l-1.18,2.38-9.94,20a17.8,17.8,0,0,1-15.94,9.87H373.68a17.82,17.82,0,0,1-15.95-9.87l-9.93-20-1.18-2.38Z" transform="translate(-1.83 -0.89)"/><polygon class="cls-9" points="441.13 168.96 439.39 172.48 346.57 172.48 344.78 168.96 441.13 168.96"/><path class="cls-14" d="M476.59,169.85,463.23,143a18.48,18.48,0,0,0-16.53-10.24H416.11A18.49,18.49,0,0,1,432.64,143L446,169.85Z" transform="translate(-1.83 -0.89)"/><path class="cls-2" d="M446,169.85,432.64,143a18.49,18.49,0,0,0-16.53-10.24H372.34A18.48,18.48,0,0,0,355.81,143l-13.36,26.83Z" transform="translate(-1.83 -0.89)"/></g><g id="DONUTS"><path class="cls-15" d="M216.47,142.61l-9.85,85.7H72.46l10.1-87.92H214.49a2,2,0,0,1,2,2C216.48,142.46,216.47,142.54,216.47,142.61Z" transform="translate(-1.83 -0.89)"/><path class="cls-14" d="M196.21,140.39a3.13,3.13,0,0,0-3.11,2.77l-1,8.86a13.7,13.7,0,0,1-13.6,12.13H71.89A13.68,13.68,0,0,1,58.2,150.46c0-.53,0-1.05.08-1.57l.74-6.38a2.39,2.39,0,0,1,2.38-2.12Z" transform="translate(-1.83 -0.89)"/><ellipse class="cls-9" cx="152.85" cy="244.22" rx="41.77" ry="42.6"/><path class="cls-3" d="M147.31,202.52c-23.08,0-41.77,19.07-41.77,42.6s18.7,42.6,41.77,42.6,41.76-19.08,41.76-42.6S170.38,202.52,147.31,202.52Zm0,57.26a14.34,14.34,0,1,1,14.06-14.34A14.21,14.21,0,0,1,147.31,259.78Z" transform="translate(-1.83 -0.89)"/><path class="cls-2" d="M153.47,210H149.9a.71.71,0,0,1-.71-.71v-.05a.71.71,0,0,1,.71-.72h3.57a.72.72,0,0,1,.72.72v.05A.71.71,0,0,1,153.47,210Z" transform="translate(-1.83 -0.89)"/><path class="cls-9" d="M159.22,225.28h-3.57a.71.71,0,0,1-.71-.71v0a.71.71,0,0,1,.71-.71h3.57a.71.71,0,0,1,.72.71v0A.71.71,0,0,1,159.22,225.28Z" transform="translate(-1.83 -0.89)"/><path class="cls-2" d="M129.47,216.19l-3,1.91a.71.71,0,0,1-1-.21h0l0,0a.71.71,0,0,1,.21-1h0l3-1.91a.72.72,0,0,1,1,.22h0l0,0a.72.72,0,0,1-.21,1h0Z" transform="translate(-1.83 -0.89)"/><path class="cls-2" d="M175.91,223.45l-1.95,3a.71.71,0,0,1-1,.22h0l0,0a.71.71,0,0,1-.21-1h0l1.94-3a.71.71,0,0,1,1-.22h0l0,0a.73.73,0,0,1,.22,1Z" transform="translate(-1.83 -0.89)"/><path class="cls-2" d="M146.09,223l-3,1.91a.72.72,0,0,1-1-.22h0l0,0a.72.72,0,0,1,.22-1h0l3-1.9a.72.72,0,0,1,1,.21h0l0,.05a.7.7,0,0,1-.21,1h0Z" transform="translate(-1.83 -0.89)"/><path class="cls-9" d="M138.49,213.13l-2.08-2.9a.71.71,0,0,1,.15-1h0l0,0a.71.71,0,0,1,1,.15h0l2.08,2.9a.72.72,0,0,1-.15,1h0l0,0a.72.72,0,0,1-1-.16Z" transform="translate(-1.83 -0.89)"/><path class="cls-1" d="M167.35,224.24l-2.07-2.9a.7.7,0,0,1,.15-1h0l0,0a.71.71,0,0,1,1,.15h0l2.08,2.9a.72.72,0,0,1-.16,1h0l0,0a.71.71,0,0,1-1-.16h0Z" transform="translate(-1.83 -0.89)"/><path class="cls-1" d="M122.56,225.37l-2.77-2.24a.72.72,0,0,1-.12-1h0l0,0a.73.73,0,0,1,1-.12h0l2.78,2.24a.72.72,0,0,1,.11,1h0l0,0a.7.7,0,0,1-1,.12Z" transform="translate(-1.83 -0.89)"/><path class="cls-2" d="M165.57,215.23,162.8,213a.7.7,0,0,1-.11-1h0l0,0a.71.71,0,0,1,1-.12h0l2.77,2.25a.71.71,0,0,1,.12,1h0l0,0a.71.71,0,0,1-1,.11Z" transform="translate(-1.83 -0.89)"/><path class="cls-5" d="M133,224.5l.61-3.52a.7.7,0,0,1,.82-.58h.06a.71.71,0,0,1,.59.82h0l-.61,3.51a.71.71,0,0,1-.82.59h-.06a.7.7,0,0,1-.58-.82Z" transform="translate(-1.83 -0.89)"/><path class="cls-5" d="M128.64,236.92l.61-3.51a.72.72,0,0,1,.82-.59h.06a.71.71,0,0,1,.59.82h0l-.6,3.52a.72.72,0,0,1-.82.59h-.07a.73.73,0,0,1-.59-.82Z" transform="translate(-1.83 -0.89)"/><path class="cls-1" d="M144.66,216l2.81-2.21a.71.71,0,0,1,1,.11h0l0,0a.7.7,0,0,1-.11,1h0l-2.8,2.21a.7.7,0,0,1-1-.11h0l0,0a.71.71,0,0,1,.1-1Z" transform="translate(-1.83 -0.89)"/><path class="cls-5" d="M155.85,217.62l.61-3.52a.71.71,0,0,1,.82-.58h.06a.7.7,0,0,1,.59.81v0l-.6,3.51a.73.73,0,0,1-.82.59h-.07a.71.71,0,0,1-.59-.82Z" transform="translate(-1.83 -0.89)"/><path class="cls-2" d="M172.51,267.9l2.12-2.86a.71.71,0,0,1,1-.16h0l0,0a.72.72,0,0,1,.16,1h0l-2.12,2.87a.72.72,0,0,1-1,.16h0l0,0a.72.72,0,0,1-.16-1h0Z" transform="translate(-1.83 -0.89)"/><path class="cls-9" d="M158.5,262.47l2.12-2.87a.72.72,0,0,1,1-.16h0l0,0a.72.72,0,0,1,.16,1h0l-2.12,2.85a.71.71,0,0,1-1,.16h0l0,0a.71.71,0,0,1-.15-1Z" transform="translate(-1.83 -0.89)"/><path class="cls-2" d="M181.85,244.94l.27-3.55a.71.71,0,0,1,.76-.67h.06a.71.71,0,0,1,.66.76h0l-.26,3.56a.73.73,0,0,1-.76.67h-.06a.72.72,0,0,1-.67-.76h0Z" transform="translate(-1.83 -0.89)"/><path class="cls-2" d="M162.19,233.75l.26-3.56a.72.72,0,0,1,.76-.67h.06a.73.73,0,0,1,.67.76h0v0l-.27,3.55a.7.7,0,0,1-.76.67h-.06a.7.7,0,0,1-.66-.76h0Z" transform="translate(-1.83 -0.89)"/><path class="cls-2" d="M150.48,280.3,149.23,277a.71.71,0,0,1,.41-.92h0l0,0a.72.72,0,0,1,.92.41v0l1.25,3.34a.71.71,0,0,1-.41.92h0l0,0a.72.72,0,0,1-.92-.41Z" transform="translate(-1.83 -0.89)"/><path class="cls-2" d="M166.47,254.24l.26-3.55a.72.72,0,0,1,.76-.67h.06a.72.72,0,0,1,.67.76h0l-.26,3.56a.73.73,0,0,1-.76.67h-.06a.72.72,0,0,1-.67-.76h0Z" transform="translate(-1.83 -0.89)"/><path class="cls-9" d="M179,254l3.57,0a.71.71,0,0,1,.71.72v.06a.71.71,0,0,1-.71.72h0l-3.57-.06a.71.71,0,0,1-.72-.71v-.08a.72.72,0,0,1,.73-.7h0Z" transform="translate(-1.83 -0.89)"/><path class="cls-9" d="M144.51,266.15l3.57.05a.71.71,0,0,1,.72.71V267a.71.71,0,0,1-.72.71h0l-3.57-.05a.71.71,0,0,1-.72-.71v-.07a.71.71,0,0,1,.72-.71Z" transform="translate(-1.83 -0.89)"/><path class="cls-1" d="M152.84,270.61l3.57.05a.71.71,0,0,1,.72.71v.07a.71.71,0,0,1-.72.71h0l-3.57,0a.71.71,0,0,1-.72-.71v-.07a.71.71,0,0,1,.72-.71Z" transform="translate(-1.83 -0.89)"/><path class="cls-1" d="M178.59,233.94,182,233a.71.71,0,0,1,.87.51h0v.05a.7.7,0,0,1-.5.87h0l-3.45.89a.71.71,0,0,1-.88-.5h0v-.05a.71.71,0,0,1,.5-.87Z" transform="translate(-1.83 -0.89)"/><path class="cls-1" d="M166.48,238l3.45-.89a.72.72,0,0,1,.88.5h0v.05a.72.72,0,0,1-.5.88h0l-3.46.89a.71.71,0,0,1-.87-.5v-.06a.71.71,0,0,1,.5-.88Z" transform="translate(-1.83 -0.89)"/><path class="cls-2" d="M161.15,274.54l3.45-.9a.71.71,0,0,1,.87.51h0l0,0a.71.71,0,0,1-.51.87h0l-3.45.89a.72.72,0,0,1-.88-.5h0v0a.71.71,0,0,1,.5-.87Z" transform="translate(-1.83 -0.89)"/><path class="cls-5" d="M173.09,242.82l2.46,2.58a.72.72,0,0,1,0,1h0l0,0a.71.71,0,0,1-1,0h0L172,243.85a.71.71,0,0,1,0-1h0l0,0a.71.71,0,0,1,1,0h0Z" transform="translate(-1.83 -0.89)"/><path class="cls-1" d="M173,257.28l.11,3.57a.7.7,0,0,1-.68.74h-.07a.71.71,0,0,1-.74-.68h0v0l-.11-3.57a.72.72,0,0,1,.69-.74h.06a.71.71,0,0,1,.74.69h0Z" transform="translate(-1.83 -0.89)"/><path class="cls-5" d="M165,265.31l2.46,2.58a.72.72,0,0,1,0,1h0l0,0a.71.71,0,0,1-1,0h0l-2.46-2.58a.71.71,0,0,1,0-1h0l0,0a.71.71,0,0,1,1,0h0Z" transform="translate(-1.83 -0.89)"/><path class="cls-2" d="M115.5,255.79l1.57,3.2a.71.71,0,0,1-.32,1h0l0,0a.72.72,0,0,1-1-.32h0l-1.57-3.21a.71.71,0,0,1,.31-1h0l0,0a.73.73,0,0,1,1,.32h0Z" transform="translate(-1.83 -0.89)"/><path class="cls-9" d="M126.77,245.85l1.57,3.2a.72.72,0,0,1-.32,1h0l0,0a.72.72,0,0,1-1-.32h0l-1.57-3.2a.71.71,0,0,1,.31-1h0l0,0a.71.71,0,0,1,1,.32h0Z" transform="translate(-1.83 -0.89)"/><path class="cls-2" d="M131.6,274.64l3,1.86a.71.71,0,0,1,.24,1h0l0,.05a.72.72,0,0,1-1,.24h0l-3-1.87a.71.71,0,0,1-.24-1h0l0,0a.71.71,0,0,1,1-.24Z" transform="translate(-1.83 -0.89)"/><path class="cls-2" d="M115.81,230.27l3.54.43a.72.72,0,0,1,.63.79v.06a.72.72,0,0,1-.79.63h0l-3.55-.43A.72.72,0,0,1,115,231v-.06a.71.71,0,0,1,.79-.63h0Z" transform="translate(-1.83 -0.89)"/><path class="cls-2" d="M130.41,256.7l3,1.87a.72.72,0,0,1,.25,1h0l0,0a.72.72,0,0,1-1,.25h0l-3-1.87a.72.72,0,0,1-.24-1h0l0-.05a.72.72,0,0,1,1-.24Z" transform="translate(-1.83 -0.89)"/><path class="cls-9" d="M124.87,267.88,123.18,271a.71.71,0,0,1-1,.3h0l0,0a.71.71,0,0,1-.3-1h0l1.69-3.14a.7.7,0,0,1,1-.3h0l0,0a.71.71,0,0,1,.3,1Z" transform="translate(-1.83 -0.89)"/><path class="cls-1" d="M122.13,237.08l-1.68,3.14a.72.72,0,0,1-1,.3h0l0,0a.72.72,0,0,1-.3-1h0l1.68-3.14a.72.72,0,0,1,1-.3h0l0,0a.72.72,0,0,1,.3,1Z" transform="translate(-1.83 -0.89)"/><path class="cls-1" d="M142.87,276.8l-.79,3.48a.71.71,0,0,1-.86.53h-.05a.71.71,0,0,1-.53-.85h0l.79-3.48a.73.73,0,0,1,.86-.54h0l.05,0a.7.7,0,0,1,.53.85Z" transform="translate(-1.83 -0.89)"/><path class="cls-2" d="M113.84,241.65l-.8,3.47a.71.71,0,0,1-.85.54h0a.73.73,0,0,1-.54-.86l.8-3.48a.72.72,0,0,1,.85-.54h0l0,0a.72.72,0,0,1,.54.85Z" transform="translate(-1.83 -0.89)"/><path class="cls-5" d="M137.51,267.83l-3.43,1a.72.72,0,0,1-.89-.47h0v0a.72.72,0,0,1,.47-.9h0l3.42-1a.72.72,0,0,1,.89.48h0V267a.71.71,0,0,1-.47.89h0Z" transform="translate(-1.83 -0.89)"/><path class="cls-1" d="M124.72,261.08l-3.21-1.54a.71.71,0,0,1-.35-1h0l0-.05a.72.72,0,0,1,.95-.34h0l3.22,1.54a.72.72,0,0,1,.34.95h0l0,.05a.72.72,0,0,1-1,.34Z" transform="translate(-1.83 -0.89)"/><rect class="cls-5" x="116.83" y="249.35" width="5.01" height="1.49" transform="translate(-67.3 42.72) rotate(-16.32)"/><path class="cls-9" d="M60.74,182.89c-24.19,0-43.8,20-43.8,44.65s19.62,44.66,43.8,44.66,43.79-20,43.79-44.66S84.93,182.89,60.74,182.89Zm0,58.52A13.54,13.54,0,1,1,74,227.88,13.4,13.4,0,0,1,60.74,241.41Z" transform="translate(-1.83 -0.89)"/><path class="cls-1" d="M54.8,182.89c-24.18,0-43.79,20-43.79,44.65S30.62,272.2,54.8,272.2s43.8-20,43.8-44.66S79,182.89,54.8,182.89Zm0,60a15,15,0,1,1,14.75-15A14.89,14.89,0,0,1,54.8,242.91Z" transform="translate(-1.83 -0.89)"/><path class="cls-2" d="M60.62,192.09H56.71a.71.71,0,0,1-.71-.72v-.15a.71.71,0,0,1,.71-.71h3.91a.71.71,0,0,1,.72.71v.15A.72.72,0,0,1,60.62,192.09Z" transform="translate(-1.83 -0.89)"/><path class="cls-3" d="M83.72,225.09H79.81a.71.71,0,0,1-.72-.71v-.15a.72.72,0,0,1,.72-.72h3.91a.71.71,0,0,1,.71.72v.15A.71.71,0,0,1,83.72,225.09Z" transform="translate(-1.83 -0.89)"/><path class="cls-9" d="M92.54,220.27l-3.75,1.1a.71.71,0,0,1-.89-.48h0l0-.14a.73.73,0,0,1,.48-.9h0l3.75-1.09a.7.7,0,0,1,.89.47h0l0,.14a.71.71,0,0,1-.48.89h0Z" transform="translate(-1.83 -0.89)"/><path class="cls-2" d="M34.9,223.66H31a.71.71,0,0,1-.71-.71v-.15a.71.71,0,0,1,.71-.71H34.9a.71.71,0,0,1,.71.71V223A.71.71,0,0,1,34.9,223.66Z" transform="translate(-1.83 -0.89)"/><path class="cls-5" d="M77.29,218.85l-3.76-1.08a.7.7,0,0,1-.5-.87v0l0-.14a.71.71,0,0,1,.88-.5h0l3.76,1.07a.71.71,0,0,1,.5.87v0l0,.15a.71.71,0,0,1-.88.5Z" transform="translate(-1.83 -0.89)"/><path class="cls-5" d="M23.09,212.84H19.18a.71.71,0,0,1-.72-.71V212a.72.72,0,0,1,.72-.72h3.91a.71.71,0,0,1,.71.72v.15A.71.71,0,0,1,23.09,212.84Z" transform="translate(-1.83 -0.89)"/><path class="cls-9" d="M64.86,207.26H61a.71.71,0,0,1-.71-.71v-.15a.71.71,0,0,1,.71-.72h3.91a.71.71,0,0,1,.71.72v.15A.71.71,0,0,1,64.86,207.26Z" transform="translate(-1.83 -0.89)"/><path class="cls-15" d="M83.59,203.22l-3.4-2a.72.72,0,0,1-.26-1l.08-.13a.72.72,0,0,1,1-.27h0l3.39,2a.7.7,0,0,1,.27,1h0l-.07.13a.72.72,0,0,1-1,.26Z" transform="translate(-1.83 -0.89)"/><path class="cls-2" d="M37,199.06l-3.3,2.09a.72.72,0,0,1-1-.21h0v0l-.08-.12a.72.72,0,0,1,.21-1h0l3.31-2.09a.72.72,0,0,1,1,.22h0l.08.13a.71.71,0,0,1-.22,1h0Z" transform="translate(-1.83 -0.89)"/><path class="cls-2" d="M86.4,209.24l-2.13,3.28a.71.71,0,0,1-1,.21h0l-.13-.08a.73.73,0,0,1-.21-1l2.14-3.27a.71.71,0,0,1,1-.22h0l.12.08a.72.72,0,0,1,.22,1Z" transform="translate(-1.83 -0.89)"/><path class="cls-2" d="M54.27,207.48,51,209.56a.71.71,0,0,1-1-.21h0l-.08-.13a.71.71,0,0,1,.21-1h0l3.31-2.08a.72.72,0,0,1,1,.2h0l.08.13a.7.7,0,0,1-.22,1Z" transform="translate(-1.83 -0.89)"/><path class="cls-5" d="M43.34,206.82,42,203.16a.72.72,0,0,1,.41-.93h0l.15,0a.71.71,0,0,1,.92.42h0l1.35,3.67a.71.71,0,0,1-.42.92h0l-.14.05a.71.71,0,0,1-.92-.41h0Z" transform="translate(-1.83 -0.89)"/><path class="cls-9" d="M44.59,195.42l-2.28-3.17a.73.73,0,0,1,.15-1h0l.12-.09a.72.72,0,0,1,1,.16h0l2.28,3.17a.72.72,0,0,1-.16,1h0l-.12.09a.72.72,0,0,1-1-.16Z" transform="translate(-1.83 -0.89)"/><path class="cls-9" d="M77.75,209.32l-2.28-3.18a.73.73,0,0,1,.15-1h0l.12-.08a.71.71,0,0,1,1,.15h0L79,208.39a.72.72,0,0,1-.16,1h0l-.12.09a.72.72,0,0,1-1-.16Z" transform="translate(-1.83 -0.89)"/><path class="cls-3" d="M27.58,207.23l-3-2.46a.7.7,0,0,1-.11-1h0l.1-.12a.71.71,0,0,1,1-.12h0l3,2.45a.72.72,0,0,1,.11,1h0l-.09.12a.73.73,0,0,1-1,.12h0Z" transform="translate(-1.83 -0.89)"/><path class="cls-5" d="M73.54,197.65l-3-2.45a.73.73,0,0,1-.11-1h0l.09-.11a.73.73,0,0,1,1-.12h0l3,2.46a.71.71,0,0,1,.12,1h0l-.1.12a.71.71,0,0,1-1,.12Z" transform="translate(-1.83 -0.89)"/><path class="cls-3" d="M20.9,224l-2.42-3.07a.72.72,0,0,1,.11-1h0l.12-.09a.71.71,0,0,1,1,.11h0L22.14,223a.7.7,0,0,1-.11,1h0l-.12.1a.71.71,0,0,1-1-.12Z" transform="translate(-1.83 -0.89)"/><path class="cls-15" d="M34.48,211.79l.67-3.85a.71.71,0,0,1,.82-.59h0l.15,0a.71.71,0,0,1,.59.82h0l-.67,3.85a.71.71,0,0,1-.82.59h0l-.15,0a.72.72,0,0,1-.59-.82Z" transform="translate(-1.83 -0.89)"/><path class="cls-3" d="M49.57,200l3.07-2.42a.72.72,0,0,1,1,.11h0l.09.12a.71.71,0,0,1-.11,1h0l-3.07,2.42a.7.7,0,0,1-1-.11h0l-.1-.12a.72.72,0,0,1,.11-1Z" transform="translate(-1.83 -0.89)"/><path class="cls-9" d="M25.69,217.83l3.07-2.42a.71.71,0,0,1,1,.1v0l.09.11a.72.72,0,0,1-.11,1h0l-3.07,2.42a.72.72,0,0,1-1-.11h0l-.09-.12a.72.72,0,0,1,.11-1Z" transform="translate(-1.83 -0.89)"/><path class="cls-15" d="M63.11,200.23l.66-3.85a.71.71,0,0,1,.82-.59h0l.14,0a.71.71,0,0,1,.59.82v0l-.66,3.85a.72.72,0,0,1-.82.59h0l-.15,0a.71.71,0,0,1-.59-.82Z" transform="translate(-1.83 -0.89)"/><path class="cls-3" d="M67.72,212.17l2.6-2.92a.72.72,0,0,1,1-.06h0l.11.1a.71.71,0,0,1,.07,1h0l-2.61,2.91a.7.7,0,0,1-1,.07h0l-.12-.1a.72.72,0,0,1-.06-1Z" transform="translate(-1.83 -0.89)"/><path class="cls-2" d="M49.59,263.71l3.91.06a.71.71,0,0,1,.71.72v.16a.71.71,0,0,1-.71.72h0l-3.91-.06a.71.71,0,0,1-.71-.72v-.16a.71.71,0,0,1,.71-.72Z" transform="translate(-1.83 -0.89)"/><path class="cls-3" d="M27,230.36l3.9.06a.71.71,0,0,1,.72.71v.17a.72.72,0,0,1-.72.72h0L27,232a.72.72,0,0,1-.72-.72v-.17a.71.71,0,0,1,.72-.71Z" transform="translate(-1.83 -0.89)"/><path class="cls-9" d="M18.11,235.05l3.77-1a.71.71,0,0,1,.89.47h0v0l.05.15a.72.72,0,0,1-.48.89h0l-3.78,1a.71.71,0,0,1-.89-.48h0v0l0-.15a.71.71,0,0,1,.49-.88Z" transform="translate(-1.83 -0.89)"/><path class="cls-2" d="M75.79,232.53l3.91.06a.71.71,0,0,1,.72.71v.18a.71.71,0,0,1-.72.71h0l-3.91-.06a.71.71,0,0,1-.72-.71v-.17a.71.71,0,0,1,.72-.71Z" transform="translate(-1.83 -0.89)"/><path class="cls-5" d="M33.35,236.69l3.74,1.13a.71.71,0,0,1,.49.88h0l0,.15a.7.7,0,0,1-.88.48h0l-3.75-1.12a.72.72,0,0,1-.48-.89h0l0-.14a.72.72,0,0,1,.89-.49Z" transform="translate(-1.83 -0.89)"/><path class="cls-5" d="M87.44,243.53l3.91.06a.71.71,0,0,1,.71.71v.18a.71.71,0,0,1-.71.71h0l-3.91-.05a.71.71,0,0,1-.71-.72v-.18a.71.71,0,0,1,.71-.71Z" transform="translate(-1.83 -0.89)"/><path class="cls-9" d="M45.59,248.48l3.91.06a.71.71,0,0,1,.71.71v.17a.71.71,0,0,1-.71.71h0l-3.91-.06a.71.71,0,0,1-.71-.71v-.17a.71.71,0,0,1,.71-.71Z" transform="translate(-1.83 -0.89)"/><path class="cls-15" d="M26.8,252.23l3.36,2a.72.72,0,0,1,.25,1h0l-.08.13a.7.7,0,0,1-1,.25h0l-3.36-2a.72.72,0,0,1-.25-1h0l.07-.13a.73.73,0,0,1,1-.26h0Z" transform="translate(-1.83 -0.89)"/><path class="cls-2" d="M73.29,257.1l3.33-2a.72.72,0,0,1,1,.23h0l.08.13a.72.72,0,0,1-.23,1h0l-3.34,2a.71.71,0,0,1-1-.23h0l-.08-.13a.71.71,0,0,1,.23-1Z" transform="translate(-1.83 -0.89)"/><path class="cls-2" d="M24.08,246.17l2.18-3.25a.71.71,0,0,1,1-.2h0l.13.08a.73.73,0,0,1,.19,1l-2.18,3.24a.71.71,0,0,1-1,.2h0l-.13-.09a.71.71,0,0,1-.19-1Z" transform="translate(-1.83 -0.89)"/><path class="cls-2" d="M56.18,248.42l3.33-2a.72.72,0,0,1,1,.23h0l.08.13a.72.72,0,0,1-.23,1h0l-3.34,2a.72.72,0,0,1-1-.22h0l-.07-.13a.7.7,0,0,1,.21-1Z" transform="translate(-1.83 -0.89)"/><path class="cls-5" d="M67.1,249.24l1.29,3.69a.7.7,0,0,1-.43.91h0l-.14,0a.72.72,0,0,1-.91-.42h0l-1.29-3.69a.7.7,0,0,1,.43-.91h0l.14-.05a.7.7,0,0,1,.91.43Z" transform="translate(-1.83 -0.89)"/><path class="cls-9" d="M65.68,260.61l2.23,3.22a.72.72,0,0,1-.17,1h0l-.13.09a.71.71,0,0,1-1-.17h0l-2.24-3.21a.73.73,0,0,1,.17-1h0l.13-.09a.71.71,0,0,1,1,.17h0Z" transform="translate(-1.83 -0.89)"/><path class="cls-9" d="M32.73,246.22,35,249.43a.71.71,0,0,1-.17,1h0l-.12.09a.73.73,0,0,1-1-.18h0l-2.23-3.21a.72.72,0,0,1,.17-1h0l.12-.09a.72.72,0,0,1,1,.17Z" transform="translate(-1.83 -0.89)"/><path class="cls-3" d="M82.87,249.07l3,2.5a.72.72,0,0,1,.1,1h0l-.1.11a.7.7,0,0,1-1,.1h0l-3-2.5a.7.7,0,0,1-.1-1h0l.1-.12a.71.71,0,0,1,1-.1h0Z" transform="translate(-1.83 -0.89)"/><path class="cls-5" d="M36.76,258l3,2.49a.72.72,0,0,1,.1,1h0l-.09.12a.72.72,0,0,1-1,.1h0l-3-2.5a.72.72,0,0,1-.1-1h0l.1-.11a.71.71,0,0,1,1-.11h0Z" transform="translate(-1.83 -0.89)"/><path class="cls-3" d="M89.8,232.41l2.37,3.11a.71.71,0,0,1-.12,1h0l-.12.09a.73.73,0,0,1-1-.12v0l-2.37-3.1a.72.72,0,0,1,.13-1h0l.12-.09a.7.7,0,0,1,1,.12Z" transform="translate(-1.83 -0.89)"/><path class="cls-15" d="M76,244.41l-.73,3.84a.71.71,0,0,1-.83.57h0l-.15,0a.72.72,0,0,1-.57-.83v0l.72-3.84a.71.71,0,0,1,.83-.57h0l.15,0a.72.72,0,0,1,.58.83Z" transform="translate(-1.83 -0.89)"/><path class="cls-3" d="M60.76,256l-3.11,2.37a.71.71,0,0,1-1-.12h0l-.09-.12a.72.72,0,0,1,.13-1h0l3.1-2.38a.73.73,0,0,1,1,.13h0l.09.12a.72.72,0,0,1-.13,1Z" transform="translate(-1.83 -0.89)"/><path class="cls-9" d="M84.92,238.51l-3.11,2.37a.71.71,0,0,1-1-.12v0l-.09-.12a.71.71,0,0,1,.12-1h0L84,237.24a.72.72,0,0,1,1,.13h0l.09.12a.71.71,0,0,1-.12,1Z" transform="translate(-1.83 -0.89)"/><path class="cls-15" d="M47.23,255.53l-.72,3.84a.71.71,0,0,1-.83.58h0l-.15,0a.71.71,0,0,1-.57-.83h0l.72-3.84a.71.71,0,0,1,.83-.58h0l.15,0a.71.71,0,0,1,.58.83h0Z" transform="translate(-1.83 -0.89)"/><path class="cls-3" d="M42.81,243.52l-2.65,2.88a.72.72,0,0,1-1,0h0l-.11-.1a.71.71,0,0,1-.05-1h0l2.64-2.88a.71.71,0,0,1,1,0h0l.11.1a.71.71,0,0,1,.06,1h0Z" transform="translate(-1.83 -0.89)"/><polygon class="cls-16" points="191.11 143.69 190.99 144.71 56.83 144.71 56.95 143.69 191.11 143.69"/><path class="cls-16" d="M190.58,156.88c-.18.35-.39.68-.6,1H60.39a10.32,10.32,0,0,1-.6-1Z" transform="translate(-1.83 -0.89)"/><path class="cls-16" d="M192.23,150.73l-.11,1H58.25c0-.34,0-.68-.06-1Z" transform="translate(-1.83 -0.89)"/><rect class="cls-15" x="149.79" y="227.42" width="54.9" height="61.46"/><rect class="cls-14" y="227.42" width="149.79" height="61.46"/><rect class="cls-16" y="233.06" width="149.86" height="1.01"/><rect class="cls-16" y="239.2" width="149.79" height="1.01"/><rect class="cls-16" y="245.35" width="149.79" height="1.01"/><rect class="cls-16" y="251.5" width="149.79" height="1.01"/><rect class="cls-16" y="257.64" width="149.79" height="1.01"/><rect class="cls-16" y="263.79" width="149.79" height="1.01"/><rect class="cls-16" y="276.08" width="149.79" height="1.01"/><rect class="cls-16" y="269.94" width="149.79" height="1.01"/><rect class="cls-16" y="282.23" width="149.79" height="1.01"/><rect class="cls-17" x="149.86" y="233.06" width="54.83" height="1.01"/><rect class="cls-17" x="149.79" y="239.2" width="54.9" height="1.01"/><rect class="cls-17" x="149.79" y="245.35" width="54.9" height="1.01"/><rect class="cls-17" x="149.79" y="251.5" width="54.9" height="1.01"/><rect class="cls-17" x="149.79" y="257.64" width="54.9" height="1.01"/><rect class="cls-17" x="149.79" y="263.79" width="54.9" height="1.01"/><rect class="cls-17" x="149.79" y="276.08" width="54.9" height="1.01"/><rect class="cls-17" x="149.79" y="269.94" width="54.9" height="1.01"/><rect class="cls-17" x="149.79" y="282.23" width="54.9" height="1.01"/></g><g id="COFFEE"><polygon class="cls-2" points="261.24 175.37 248.19 288.88 183.39 288.88 170.34 175.37 261.24 175.37"/><polygon class="cls-7" points="261.24 175.37 248.19 288.88 234.08 288.88 246.62 179.71 170.84 179.71 170.34 175.37 261.24 175.37"/><path class="cls-9" d="M270.11,176.26h-105l.83-4.64a4.17,4.17,0,0,1,4.11-3.43h1.8l1.32-5a8.05,8.05,0,0,1,7.78-6h73.31a8,8,0,0,1,7.77,6l1.32,5h1.8a4.17,4.17,0,0,1,4.1,3.43Z" transform="translate(-1.83 -0.89)"/><line class="cls-6" x1="183.39" y1="288.88" x2="248.19" y2="288.88"/><ellipse class="cls-3" cx="213.32" cy="224.46" rx="20.33" ry="21.71"/><path class="cls-9" d="M218.33,219.18l-7.28,11.17a1,1,0,0,1-1.42.3h0a.92.92,0,0,1-.25-.23c-1.83-2.32-1.87-6,.1-9s5.36-4.48,8.23-3.75a1,1,0,0,1,.61,1.55Z" transform="translate(-1.83 -0.89)"/><path class="cls-9" d="M221,228.87c-2,3-5.3,4.45-8.15,3.77a1,1,0,0,1-.75-1.23h0a1,1,0,0,1,.14-.32L219.47,220a1,1,0,0,1,1.43-.3,1.37,1.37,0,0,1,.25.23C222.92,222.22,223,225.86,221,228.87Z" transform="translate(-1.83 -0.89)"/></g></g><path class="cls-10" d="M272.26,134.86c3.8-4,7.67-8,11.37-12.15a3.45,3.45,0,0,0,.87-3.58c-1.88-7-2.28-14-.13-21.06A49.66,49.66,0,0,1,286.32,93c.33-.76.82-.82,1.53-.69,1.54.29,3.08.61,4.64.78,1.05.12,1.15.49.87,1.43a47.59,47.59,0,0,0-2.27,12.41,10.71,10.71,0,0,0,.46,4.2c1.51-3.76,2.92-7.29,4.32-10.81.59-1.45,1.25-2.88,1.73-4.37.33-1,.8-1.11,1.7-.71a35.74,35.74,0,0,0,4.25,1.62c1.19.35,1.22.85.77,1.88-1.7,4-3.31,8-4.95,12-.11.26-.34.5-.12.88a14.4,14.4,0,0,0,4.53-4.29,39.41,39.41,0,0,0,4.73-7.79c.57-1.26,1.15-1.38,2.27-.77a16.4,16.4,0,0,0,3.1,1.34c1.22.37,1.27,1,.88,2.08a35.54,35.54,0,0,1-7.11,11.44,63.31,63.31,0,0,1-12.72,10.89,5.45,5.45,0,0,0-1.71,1.77A70.93,70.93,0,0,1,283.87,138l-1.61,1.71c-1.81-.25-3.3-1.34-5-2-1.37-.5-2.66-1.19-4-1.81C272.84,135.69,272.27,135.54,272.26,134.86Z" transform="translate(-1.83 -0.89)"/><path class="cls-18" d="M309.1,84.24a.76.76,0,0,1,.46-.19.75.75,0,0,1,.33.17Z" transform="translate(-1.83 -0.89)"/><path class="cls-18" d="M321.59,138.38h-7.52l-.2-3.51a3.43,3.43,0,0,1,.09-1c.37-1.47,2-5.33,8.71-8.86.8-.48,3.62-2,3.1-7.52-.48-5.06-2.93-27-3.36-30.84a3.24,3.24,0,0,0-.39-1.22c-.72-1.36-2.58-4-4.11.52a3.5,3.5,0,0,0-.17,1.25c.12,3.48,1.3,19.24,1.62,23.52a3.44,3.44,0,0,1-.6,2.23c-1.12,1.62-3.44,4-5.74-.29a3.49,3.49,0,0,1-.4-1.45c-.31-5.88-.94-20.52-1.1-24.34a3.45,3.45,0,0,0-.79-2,1.68,1.68,0,0,0-1.17-.76c-.45-.1-.93.29-1.3.74a3.42,3.42,0,0,0-.78,2c-.17,3.83-.8,18.46-1.11,24.35a3.49,3.49,0,0,1-.4,1.45c-2.3,4.23-4.62,1.91-5.75.28a3.47,3.47,0,0,1-.59-2.22c.32-4.29,1.49-20,1.63-23.53a3.73,3.73,0,0,0-.18-1.24c-1.54-4.54-3.39-1.89-4.12-.53a3.51,3.51,0,0,0-.38,1.24c-.43,3.87-2.87,25.77-3.36,30.83-.52,5.55,2.31,7,3.1,7.51,6.76,3.53,8.35,7.4,8.72,8.87a3.12,3.12,0,0,1,.08,1l-.2,3.52h-9.13c-13.64-.55-22.85-14.92-21.75-28.2S297.82,67.8,310.35,67.8s30.58,22.48,32.8,45.15S321.59,138.38,321.59,138.38Z" transform="translate(-1.83 -0.89)"/><path class="cls-18" d="M309.89,84.22l-.79,0a.76.76,0,0,1,.46-.19A.75.75,0,0,1,309.89,84.22Z" transform="translate(-1.83 -0.89)"/></svg>