<svg xmlns="http://www.w3.org/2000/svg" viewBox="0 0 3235.56 1788"><defs><style>.cls-1{fill:#ff6e00;}.cls-2{fill:#fff;}.cls-3{fill:#a9d8d5;}.cls-12,.cls-13,.cls-4,.cls-6,.cls-8{fill:none;}.cls-13,.cls-4{stroke:#a9d8d5;}.cls-11,.cls-13,.cls-4,.cls-6,.cls-8{stroke-miterlimit:10;}.cls-11,.cls-4,.cls-6,.cls-8{stroke-width:5px;}.cls-11,.cls-5{fill:#f1b104;}.cls-11,.cls-12,.cls-6{stroke:#573240;stroke-linecap:round;}.cls-7{fill:#e0f1f0;}.cls-8{stroke:#fff;}.cls-9{fill:#573240;}.cls-10{fill:#22a78d;}.cls-12{stroke-linejoin:round;}.cls-12,.cls-13{stroke-width:4px;}.cls-14{fill:#fcd4d0;}.cls-15{fill:#f6acc1;}.cls-16{fill:#fde5e3;}.cls-17{fill:#fabfd6;}</style></defs><title>illustration</title><g id="Слой_1" data-name="Слой 1"><g id="DRINK"><polygon class="cls-1" points="2985.78 1039.47 2944.26 1039.47 2877.11 455.21 2918.63 455.21 2985.78 1039.47"/><polygon class="cls-2" points="2923.42 496.85 2886.67 538.34 2884.31 517.83 2921.06 476.33 2923.42 496.85"/><polygon class="cls-2" points="2929.36 548.52 2892.61 590.01 2890.24 569.5 2927 528 2929.36 548.52"/><polygon class="cls-2" points="2935.29 600.19 2898.55 641.69 2896.19 621.17 2932.94 579.68 2935.29 600.19"/><polygon class="cls-2" points="2941.24 651.86 2904.48 693.36 2902.12 672.85 2938.88 631.35 2941.24 651.86"/><polygon class="cls-2" points="2947.17 703.53 2910.43 745.02 2908.07 724.52 2944.82 683.02 2947.17 703.53"/><polygon class="cls-2" points="2953.11 755.21 2916.36 796.7 2914 776.19 2950.76 734.7 2953.11 755.21"/><polygon class="cls-2" points="2959.06 806.88 2922.3 848.37 2919.95 827.86 2956.7 786.37 2959.06 806.88"/><polygon class="cls-2" points="2964.99 858.54 2928.24 900.04 2925.89 879.54 2962.63 838.04 2964.99 858.54"/><polygon class="cls-2" points="2970.94 910.22 2934.18 951.71 2931.82 931.2 2968.58 889.71 2970.94 910.22"/><polygon class="cls-2" points="2976.87 961.89 2940.12 1003.39 2937.77 982.87 2974.51 941.38 2976.87 961.89"/><path class="cls-3" d="M3193.39,1039.47l-68.61,601.62a65.8,65.8,0,0,1-65.37,58.29h-224a65.8,65.8,0,0,1-65.37-58.29l-69-601.62Z"/><polygon class="cls-2" points="2982.82 1013.56 2959.86 1039.47 2944.27 1039.47 2943.7 1034.54 2980.46 993.05 2982.82 1013.56"/><path class="cls-4" d="M3205.1,942.36l-80.32,698.73a65.81,65.81,0,0,1-65.37,58.29h-224a65.81,65.81,0,0,1-65.38-58.29l-80.31-698.73Z"/><path class="cls-5" d="M2888.89,1306.63l213.85-153.43c27.43,59.82,11.75,130.83-41,168.65S2936.76,1351.77,2888.89,1306.63Z"/><path class="cls-1" d="M3025.14,1321.42l-19-77.47,67.21,42.78a108.38,108.38,0,0,1-48.18,34.69Z"/><path class="cls-1" d="M3014.34,1233.07l83-18.42A114.89,114.89,0,0,1,3082,1274Z"/><path class="cls-1" d="M2949,1321.24l44.26-73.08,17.18,77.39A114.78,114.78,0,0,1,2949,1321.24Z"/><path class="cls-1" d="M2931.14,1313.28a123.66,123.66,0,0,1-25.61-18.59l73.95-53.06Z"/><path class="cls-1" d="M3011.38,1218.75l74.71-53.61a122.62,122.62,0,0,1,9.46,30.53Z"/><path class="cls-6" d="M3192.63,902.42H2702.18a39.93,39.93,0,0,0-39.93,39.94h570.32A39.94,39.94,0,0,0,3192.63,902.42Z"/><path class="cls-6" d="M3193.79,902.42a224,224,0,0,0-218-172.8h-56.7a224,224,0,0,0-218,172.8Z"/><path class="cls-7" d="M3021.34,1657.13h-85.43a19.33,19.33,0,0,1-19.33-19.33v-85.44a19.33,19.33,0,0,1,19.33-19.33h85.43a19.33,19.33,0,0,1,19.33,19.33v85.44A19.33,19.33,0,0,1,3021.34,1657.13Z"/><path class="cls-7" d="M3089.83,1503.34H3022.6a19.34,19.34,0,0,1-19.33-19.33v-67.23a19.33,19.33,0,0,1,19.33-19.33h67.23a19.32,19.32,0,0,1,19.33,19.33V1484A19.33,19.33,0,0,1,3089.83,1503.34Z"/><path class="cls-7" d="M2861.52,1555h-67.23a19.34,19.34,0,0,1-19.33-19.33v-67.23a19.33,19.33,0,0,1,19.33-19.33h67.23a19.32,19.32,0,0,1,19.33,19.33v67.23A19.33,19.33,0,0,1,2861.52,1555Z"/><path class="cls-8" d="M2906.86,1219.45a11.46,11.46,0,1,1-11.46,11.46A11.46,11.46,0,0,1,2906.86,1219.45Z"/><circle class="cls-8" cx="2846.59" cy="1398.57" r="11.46"/><circle class="cls-8" cx="2818.91" cy="1131.83" r="16.22"/><circle class="cls-8" cx="3094.74" cy="1298.9" r="16.22"/><circle class="cls-8" cx="2963.08" cy="1407.89" r="9.32"/><circle class="cls-8" cx="3117.25" cy="1331.54" r="6.08"/><circle class="cls-8" cx="3054.57" cy="1127.44" r="10.14"/><circle class="cls-8" cx="2788.27" cy="1165.59" r="6.08"/><circle class="cls-8" cx="2794.35" cy="1355.03" r="6.08"/></g><g id="PACKAGE"><polygon class="cls-9" points="2016.14 145.96 2016.14 288.63 1953.64 288.63 1953.64 143.95 1648.03 143.95 1648.03 288.63 1585.54 288.63 1585.54 145.96 1650.54 80.94 1951.13 80.94 2016.14 145.96"/><path class="cls-10" d="M1991,288.64V146l-65-65H1625.41l-65,65V288.64h-250L1148.21,1699.38H2238.49V288.64Zm-62.49,0H1622.9V144h305.61Z"/><polygon class="cls-9" points="2433.89 1699.38 2238.49 1699.38 2238.49 288.63 2271.73 288.63 2433.89 1699.38"/><path class="cls-2" d="M1955.57,755.35c0,106.38-65.69,196.61-156.73,228.26v-173c0-15.72,7.77-30.46,20.85-40.39,13.74-10.43,22.84-28.63,22.84-49.33,0-32.4-22.28-58.63-49.76-58.63S1743,688.53,1743,720.93c0,20.7,9.1,38.9,22.84,49.33,13.08,9.93,20.85,24.67,20.85,40.39V987.44a219.25,219.25,0,0,1-118.8.12V833.62c0-15.72,7.77-30.46,20.85-40.39a57,57,0,0,0,17.85-23.71,67.14,67.14,0,0,0,5-25.61V668.37a6.08,6.08,0,0,0-6.08-6.08h0a6.08,6.08,0,0,0-6.08,6.08v81.9a15.77,15.77,0,1,1-31.53,0v-81.9a6.08,6.08,0,1,0-12.15,0v81.9A15.77,15.77,0,0,1,1640,766h0a15.78,15.78,0,0,1-15.77-15.77v-81.9a6.07,6.07,0,1,0-12.14,0v75.54a67.14,67.14,0,0,0,5,25.61,56.92,56.92,0,0,0,17.85,23.71c13.09,9.93,20.85,24.67,20.85,40.39V983.75c-91.24-31.52-157.13-121.87-157.13-228.4,0-132.74,102.29-240.36,228.48-240.36S1955.57,622.61,1955.57,755.35Z"/><line class="cls-6" x1="1560.4" y1="145.14" x2="1991" y2="145.14"/></g><g id="SALAD"><path class="cls-11" d="M2537.3,1454.3l-88-176.82A121.67,121.67,0,0,0,2340.33,1210H1768.16a121.68,121.68,0,0,0-108.93,67.45l-88,176.82Z"/><path class="cls-2" d="M2369.37,1509.83c-45.6,48.67-104.52,67.55-147.6,27.2s-28.08-100.39,17.52-149.06,119.63-69.34,155.55-35.69S2415,1461.16,2369.37,1509.83Z"/><circle class="cls-5" cx="2291.45" cy="1460.64" r="55.85"/><path class="cls-2" d="M2879.07,1413.26c16.2,51.56,6.06,100.66-39.56,115s-82-20.14-98.22-71.7-1.31-112,36.73-124S2862.87,1361.71,2879.07,1413.26Z"/><circle class="cls-5" cx="2813.37" cy="1448.51" r="45.25"/><path class="cls-1" d="M2001.55,1517.3l-197.06-108.64c33-37.56,91.24-47.35,139.81-20.57S2015.7,1469.36,2001.55,1517.3Z"/><path class="cls-12" d="M1928.16,1436.22c-3.43,6.24-18.92,15.48-18.92,15.48s-.45-18,3-24.26,9.8-9.33,14.2-6.9S1931.6,1430,1928.16,1436.22Z"/><path class="cls-12" d="M1948.18,1468c-7.07.9-23.66-6.16-23.66-6.16s14.29-11,21.35-11.9,13.31,2.42,13.94,7.4S1955.24,1467.11,1948.18,1468Z"/><path class="cls-12" d="M1874.66,1427.48c3,6.46,17.84,16.72,17.84,16.72s1.67-18-1.34-24.41-9.14-10-13.69-7.84S1871.66,1421,1874.66,1427.48Z"/><path class="cls-1" d="M2539.33,1479.72,2702.68,1340c22.23,42.66,11.21,98.44-29.06,132.87S2577.17,1509,2539.33,1479.72Z"/><path class="cls-12" d="M2636.28,1441.75c-4.38-5.25-7.35-22.38-7.35-22.38s16.19,5.83,20.57,11.08,5,12,1.32,15.15S2640.66,1447,2636.28,1441.75Z"/><path class="cls-12" d="M2601.24,1448.75c1.59-6.66,13.49-19.14,13.49-19.14s4.94,16.65,3.35,23.32-6.65,11.13-11.3,10S2599.65,1455.42,2601.24,1448.75Z"/><path class="cls-12" d="M2662.18,1396.65c-6.76.47-20.91,10.26-20.91,10.26s15.4,7.71,22.16,7.24,12-4.78,11.61-9.61S2668.93,1396.18,2662.18,1396.65Z"/><path class="cls-3" d="M2254.46,1482.77S2191.77,1454,2194.63,1369s78.86-112.21,93.06-85.61c9.34,17.48-1.61,39.2-32.05,50.44-34.46,12.74-55,23.37-50,63.91C2210.16,1434.35,2227.12,1462,2254.46,1482.77Z"/><path class="cls-12" d="M2254.46,1482.77s-72.19-48.78-45.39-128.27c22.3-66.15,66.6-60.35,66.6-60.35"/><path class="cls-12" d="M2220.55,1329.2a41.28,41.28,0,0,0,6.61-30.42"/><circle class="cls-3" cx="2108.5" cy="1443.1" r="66.43"/><path class="cls-12" d="M2118.44,1417.61c-.64,4.92-8.33,14.84-8.33,14.84s-4.88-11.57-4.24-16.49,4-8.53,7.45-8.08S2119.09,1412.69,2118.44,1417.61Z"/><path class="cls-12" d="M2098.86,1469.47c.65-4.92,8.34-14.85,8.34-14.85s4.88,11.58,4.23,16.49-4,8.54-7.45,8.08S2098.22,1474.38,2098.86,1469.47Z"/><path class="cls-12" d="M2082.72,1433.75c4.92.64,14.85,8.34,14.85,8.34s-11.58,4.87-16.49,4.23-8.54-4-8.08-7.45S2077.81,1433.1,2082.72,1433.75Z"/><path class="cls-12" d="M2134.58,1453.33c-4.92-.65-14.84-8.34-14.84-8.34s11.57-4.88,16.49-4.23,8.53,4,8.08,7.45S2139.5,1454,2134.58,1453.33Z"/><circle class="cls-2" cx="1662.31" cy="1458.5" r="39.46"/><path class="cls-3" d="M1805.89,1454.41c-16.19-.54-34.19-5.33-54.35-12.37-80.38-28.08-79.89-101-54.2-107.18,20.11-4.82,35.22,14.23,36.88,46.65,1.89,36.71,8.63,62.69,48.83,70A203.09,203.09,0,0,0,1805.89,1454.41Z"/><path class="cls-12" d="M1817.24,1454.58a116.48,116.48,0,0,1-74.91-21.46c-42.34-29.71-40.6-84.28-40.6-84.28"/><path class="cls-3" d="M1811.7,1453.59c3,.49-45.19-3.91-58.35-45.85-9.79-31.22,14.46-38.45,24.18-28.63,10.85,11,2.41,41,16.17,60.89C1797.69,1445.78,1797.15,1451.2,1811.7,1453.59Z"/><path class="cls-12" d="M1768.73,1388.35s-7.08,53,48.51,66.23"/><path class="cls-3" d="M2498,1455.63a19.08,19.08,0,0,1-9.39-.26c26-11.76,34.73-37.31,40.93-70.67,7.28-39.16,29.4-60,54-51C2615,1345.11,2604,1433.87,2498,1455.63Z"/><path class="cls-12" d="M2401.23,1467.38c28.95,2.82,80.11-1.39,113.91-22.08,55.54-34,55.62-95,55.62-95"/><path class="cls-3" d="M2408.33,1466.48c-3.81.43,57.67-2.26,76.83-52.88,14.26-37.67-16.14-47.88-29.08-36.4-14.41,12.8-5.43,50-24.08,73.65C2426.59,1457.7,2427,1464.37,2408.33,1466.48Z"/><path class="cls-12" d="M2466.73,1389s5.93,65.27-65.5,78.37"/><path class="cls-6" d="M2927.3,1454.3l-88-176.82A121.68,121.68,0,0,0,2730.33,1210h-390a121.67,121.67,0,0,1,108.93,67.45l88,176.82Z"/><path class="cls-6" d="M2537.3,1454.3l-88-176.82A121.67,121.67,0,0,0,2340.33,1210H1768.16a121.68,121.68,0,0,0-108.93,67.45l-88,176.82Z"/><rect class="cls-9" x="1882.81" y="1210.03" width="280.39" height="134.54"/><path class="cls-2" d="M2537.3,1455.11l-88,176.82a121.66,121.66,0,0,1-108.92,67.45H1768.15a121.66,121.66,0,0,1-108.92-67.45l-88-176.82Z"/><path class="cls-2" d="M2927.3,1454.3l-88,176.82a121.69,121.69,0,0,1-108.93,67.45h-390a121.68,121.68,0,0,0,108.93-67.45l88-176.82Z"/><path class="cls-2" d="M2927.29,1454.29l-88,176.82a121.69,121.69,0,0,1-108.93,67.45H1768.16a121.69,121.69,0,0,1-108.94-67.45l-88-176.82Z"/><path class="cls-6" d="M2839.26,1631.12a121.69,121.69,0,0,1-108.93,67.45h-390a121.68,121.68,0,0,0,108.93-67.45l88-176.82"/><path class="cls-6" d="M2537.3,1454.3l-88,176.82a121.68,121.68,0,0,1-108.93,67.45h-596.5"/><line class="cls-6" x1="1543.33" y1="1455.11" x2="2955.16" y2="1455.11"/><path class="cls-13" d="M2047.79,1297.13h-24.13V1273a45.35,45.35,0,0,1,45.35-45.35h24.13v24.13A45.35,45.35,0,0,1,2047.79,1297.13Z"/><line class="cls-13" x1="2093.14" y1="1227.64" x2="2007.69" y2="1313.09"/><polyline class="cls-13" points="2067.25 1228.45 2067.25 1253.53 2092.33 1253.53"/><polyline class="cls-13" points="2043.47 1235.91 2043.47 1277.31 2084.88 1277.31"/><path class="cls-13" d="M2003.24,1298.87h6.34v-6.33a45.35,45.35,0,0,0-45.36-45.35h-6.33v6.33A45.35,45.35,0,0,0,2003.24,1298.87Z"/><line class="cls-13" x1="1957.89" y1="1247.19" x2="2015.74" y2="1305.04"/><polyline class="cls-13" points="1990.78 1255.77 1990.78 1280.08 1966.47 1280.08"/></g><g id="SMALL_BOX" data-name="SMALL BOX"><path class="cls-9" d="M2637.92,1027.52l-62.27,125.07a99.82,99.82,0,0,1-89.35,55.32H2321.23a99.79,99.79,0,0,0,89.34-55.32l62.27-125.07Z"/><path class="cls-1" d="M2472.84,1027.52l-6.62,13.3-55.65,111.77a99.79,99.79,0,0,1-89.34,55.32H2084.7a99.82,99.82,0,0,1-89.34-55.32l-55.65-111.77-6.62-13.3Z"/><polygon class="cls-9" points="2472.84 1027.52 2463.11 1047.27 1943.09 1047.27 1933.09 1027.52 2472.84 1027.52"/><path class="cls-14" d="M2661.25,1027.52,2586.4,877.19a103.45,103.45,0,0,0-92.61-57.34h-171.4A103.46,103.46,0,0,1,2415,877.19l74.84,150.33Z"/><path class="cls-2" d="M2489.84,1027.52,2415,877.19a103.46,103.46,0,0,0-92.61-57.34H2077.21a103.46,103.46,0,0,0-92.61,57.34l-74.84,150.33Z"/></g><g id="DONUTS"><path class="cls-15" d="M1203.92,874.92,1148.74,1355H397.13l56.61-492.54h739.09A11.16,11.16,0,0,1,1203.92,874.92Z"/><path class="cls-14" d="M1090.46,862.48A17.54,17.54,0,0,0,1073,878l-5.71,49.62a76.7,76.7,0,0,1-76.19,67.94H393.92a76.7,76.7,0,0,1-76.2-85.46l4.11-35.75a13.44,13.44,0,0,1,13.35-11.9Z"/><ellipse class="cls-9" cx="857.81" cy="1449.19" rx="234.04" ry="238.66"/><path class="cls-3" d="M816.46,1210.53c-129.26,0-234,106.85-234,238.66s104.78,238.66,234,238.66,234-106.85,234-238.66S945.72,1210.53,816.46,1210.53Zm0,320.78c-43.51,0-78.78-36-78.78-80.34s35.27-80.34,78.78-80.34,78.79,36,78.79,80.34S860,1531.31,816.46,1531.31Z"/><path class="cls-2" d="M851,1252.68H831a4,4,0,0,1-4-4v-.28a4,4,0,0,1,4-4h20a4,4,0,0,1,4,4v.28A4,4,0,0,1,851,1252.68Z"/><path class="cls-9" d="M883.22,1338.07h-20a4,4,0,0,1-4-4v-.27a4,4,0,0,1,4-4h20a4,4,0,0,1,4,4v.27A4,4,0,0,1,883.22,1338.07Z"/><path class="cls-2" d="M716.52,1287.15l-16.89,10.67a4,4,0,0,1-5.57-1.26l-.15-.23a4,4,0,0,1,1.26-5.57l16.89-10.67a4,4,0,0,1,5.57,1.26l.14.24A4,4,0,0,1,716.52,1287.15Z"/><path class="cls-2" d="M976.7,1327.8l-10.9,16.74a4,4,0,0,1-5.59,1.18l-.23-.15a4,4,0,0,1-1.18-5.58l10.9-16.74a4,4,0,0,1,5.59-1.18l.23.15A4,4,0,0,1,976.7,1327.8Z"/><path class="cls-2" d="M809.66,1325.41l-16.9,10.67a4,4,0,0,1-5.56-1.26l-.15-.23a4,4,0,0,1,1.26-5.57l16.89-10.66a4,4,0,0,1,5.57,1.25l.14.24A4,4,0,0,1,809.66,1325.41Z"/><path class="cls-9" d="M767.06,1270l-11.64-16.24a4,4,0,0,1,.92-5.63l.23-.16a4,4,0,0,1,5.63.93l11.64,16.23a4,4,0,0,1-.92,5.63l-.23.16A4,4,0,0,1,767.06,1270Z"/><path class="cls-1" d="M928.78,1332.21,917.14,1316a4,4,0,0,1,.92-5.63l.23-.16a4,4,0,0,1,5.63.92l11.65,16.24a4,4,0,0,1-.93,5.63l-.23.16A4,4,0,0,1,928.78,1332.21Z"/><path class="cls-1" d="M677.81,1338.53,662.28,1326a4,4,0,0,1-.6-5.67l.17-.22a4,4,0,0,1,5.68-.6L683.06,1332a4,4,0,0,1,.6,5.67l-.17.22A4,4,0,0,1,677.81,1338.53Z"/><path class="cls-2" d="M918.8,1281.72l-15.53-12.56a4,4,0,0,1-.6-5.67l.17-.22a4,4,0,0,1,5.68-.6l15.53,12.56a4,4,0,0,1,.6,5.68l-.18.21A4,4,0,0,1,918.8,1281.72Z"/><path class="cls-5" d="M736.16,1333.67l3.4-19.69a4,4,0,0,1,4.67-3.28l.27,0a4,4,0,0,1,3.29,4.67l-3.4,19.68a4,4,0,0,1-4.67,3.29l-.27-.05A4,4,0,0,1,736.16,1333.67Z"/><path class="cls-5" d="M711.91,1403.28l3.4-19.68a4,4,0,0,1,4.67-3.29l.27,0a4,4,0,0,1,3.29,4.67l-3.4,19.68a4,4,0,0,1-4.67,3.29l-.27,0A4,4,0,0,1,711.91,1403.28Z"/><path class="cls-1" d="M801.66,1286l15.69-12.37a4,4,0,0,1,5.67.68l.17.21a4,4,0,0,1-.67,5.67l-15.69,12.37a4,4,0,0,1-5.67-.68l-.17-.21A4,4,0,0,1,801.66,1286Z"/><path class="cls-5" d="M864.35,1295.12l3.41-19.69a4,4,0,0,1,4.66-3.28l.27,0a4,4,0,0,1,3.29,4.67l-3.4,19.68a4,4,0,0,1-4.67,3.29l-.27,0A4,4,0,0,1,864.35,1295.12Z"/><path class="cls-2" d="M957.67,1576.84l11.88-16.06a4.05,4.05,0,0,1,5.65-.85l.22.17a4,4,0,0,1,.84,5.64l-11.88,16.06a4,4,0,0,1-5.64.84l-.23-.16A4,4,0,0,1,957.67,1576.84Z"/><path class="cls-9" d="M879.18,1546.38l11.88-16.06a4,4,0,0,1,5.64-.84l.23.16a4,4,0,0,1,.84,5.65l-11.88,16a4.05,4.05,0,0,1-5.65.85L880,1552A4,4,0,0,1,879.18,1546.38Z"/><path class="cls-2" d="M1010,1448.22l1.48-19.93a4,4,0,0,1,4.32-3.72l.28,0a4,4,0,0,1,3.72,4.32l-1.47,19.92a4,4,0,0,1-4.32,3.73l-.28,0A4,4,0,0,1,1010,1448.22Z"/><path class="cls-2" d="M899.82,1385.49l1.48-19.92a4,4,0,0,1,4.32-3.73l.27,0a4,4,0,0,1,3.73,4.33l-1.48,19.92a4,4,0,0,1-4.32,3.73l-.27,0A4,4,0,0,1,899.82,1385.49Z"/><path class="cls-2" d="M834.23,1646.32l-7-18.72a4,4,0,0,1,2.37-5.19l.26-.1a4,4,0,0,1,5.19,2.38l7,18.72a4,4,0,0,1-2.37,5.19l-.26.1A4,4,0,0,1,834.23,1646.32Z"/><path class="cls-2" d="M923.81,1500.32l1.48-19.92a4,4,0,0,1,4.32-3.73l.27,0a4,4,0,0,1,3.73,4.33l-1.47,19.92a4,4,0,0,1-4.33,3.73l-.27,0A4,4,0,0,1,923.81,1500.32Z"/><path class="cls-9" d="M993.72,1499.07l20,.29a4,4,0,0,1,4,4.1v.27a4,4,0,0,1-4.1,4l-20-.3a4,4,0,0,1-4-4.09V1503A4,4,0,0,1,993.72,1499.07Z"/><path class="cls-9" d="M800.82,1567l20,.29a4,4,0,0,1,4,4.1v.28a4,4,0,0,1-4.09,4l-20-.29a4,4,0,0,1-4-4.1V1571A4,4,0,0,1,800.82,1567Z"/><path class="cls-1" d="M847.48,1592l20,.29a4,4,0,0,1,4,4.1v.27a4,4,0,0,1-4.1,4l-20-.3a4,4,0,0,1-4-4.09V1596A4,4,0,0,1,847.48,1592Z"/><path class="cls-1" d="M991.7,1386.54l19.34-5a4,4,0,0,1,4.92,2.9l.07.26a4,4,0,0,1-2.89,4.92l-19.34,5a4,4,0,0,1-4.92-2.89l-.07-.27A4,4,0,0,1,991.7,1386.54Z"/><path class="cls-1" d="M923.89,1409.43l19.34-5a4,4,0,0,1,4.92,2.89l.07.27a4,4,0,0,1-2.89,4.92l-19.34,5a4,4,0,0,1-4.92-2.89l-.07-.27A4,4,0,0,1,923.89,1409.43Z"/><path class="cls-2" d="M894,1614l19.34-5a4,4,0,0,1,4.92,2.9l.07.26a4,4,0,0,1-2.89,4.92l-19.34,5a4,4,0,0,1-4.92-2.89l-.07-.27A4,4,0,0,1,894,1614Z"/><path class="cls-5" d="M960.89,1436.33l13.8,14.45a4,4,0,0,1-.13,5.7l-.2.2a4,4,0,0,1-5.7-.13l-13.8-14.45a4,4,0,0,1,.13-5.7l.2-.2A4,4,0,0,1,960.89,1436.33Z"/><path class="cls-1" d="M960.25,1517.34l.61,20a4,4,0,0,1-3.92,4.16h-.27a4,4,0,0,1-4.16-3.92l-.6-20a4,4,0,0,1,3.91-4.16h.28A4,4,0,0,1,960.25,1517.34Z"/><path class="cls-5" d="M915.62,1562.31l13.8,14.45a4,4,0,0,1-.13,5.7l-.2.19a4,4,0,0,1-5.7-.13l-13.8-14.44a4,4,0,0,1,.13-5.71l.2-.19A4,4,0,0,1,915.62,1562.31Z"/><path class="cls-2" d="M638.27,1509l8.79,17.93a4,4,0,0,1-1.84,5.4l-.25.13a4,4,0,0,1-5.4-1.85l-8.8-17.94a4,4,0,0,1,1.85-5.4l.25-.12A4,4,0,0,1,638.27,1509Z"/><path class="cls-9" d="M701.4,1453.28l8.8,17.93a4,4,0,0,1-1.85,5.4l-.24.12a4,4,0,0,1-5.4-1.84l-8.8-17.94a4,4,0,0,1,1.85-5.4l.24-.12A4,4,0,0,1,701.4,1453.28Z"/><path class="cls-2" d="M728.44,1614.56l17,10.47a4,4,0,0,1,1.32,5.55l-.14.24a4,4,0,0,1-5.55,1.32l-17-10.47a4,4,0,0,1-1.32-5.55l.14-.24A4,4,0,0,1,728.44,1614.56Z"/><path class="cls-2" d="M640,1366l19.83,2.42a4,4,0,0,1,3.52,4.49l0,.28a4,4,0,0,1-4.49,3.51L639,1374.28a4,4,0,0,1-3.52-4.5l0-.27A4,4,0,0,1,640,1366Z"/><path class="cls-2" d="M721.78,1514.09l17,10.47a4,4,0,0,1,1.33,5.55l-.15.24a4,4,0,0,1-5.55,1.32l-17-10.47a4,4,0,0,1-1.33-5.55l.15-.24A4,4,0,0,1,721.78,1514.09Z"/><path class="cls-9" d="M690.75,1576.74l-9.45,17.61a4,4,0,0,1-5.46,1.65l-.24-.13a4,4,0,0,1-1.65-5.47l9.45-17.6a4,4,0,0,1,5.46-1.65l.24.13A4,4,0,0,1,690.75,1576.74Z"/><path class="cls-1" d="M675.43,1404.14l-9.44,17.6a4,4,0,0,1-5.47,1.65l-.24-.13a4,4,0,0,1-1.65-5.47l9.45-17.6a4,4,0,0,1,5.46-1.65l.25.13A4,4,0,0,1,675.43,1404.14Z"/><path class="cls-1" d="M791.6,1626.69l-4.44,19.48a4,4,0,0,1-4.83,3l-.27-.06a4,4,0,0,1-3-4.83l4.45-19.48a4,4,0,0,1,4.83-3l.27.06A4,4,0,0,1,791.6,1626.69Z"/><path class="cls-2" d="M628.94,1429.75l-4.44,19.48a4,4,0,0,1-4.83,3l-.27-.06a4.05,4.05,0,0,1-3-4.84l4.44-19.47a4,4,0,0,1,4.83-3l.27.06A4,4,0,0,1,628.94,1429.75Z"/><path class="cls-5" d="M761.55,1576.44l-19.17,5.61a4,4,0,0,1-5-2.73l-.08-.27a4,4,0,0,1,2.74-5l19.17-5.61a4,4,0,0,1,5,2.74l.07.26A4,4,0,0,1,761.55,1576.44Z"/><path class="cls-1" d="M689.91,1538.62l-18-8.64a4,4,0,0,1-1.89-5.39l.12-.24a4,4,0,0,1,5.38-1.9l18,8.65a4,4,0,0,1,1.9,5.38l-.12.25A4,4,0,0,1,689.91,1538.62Z"/><rect class="cls-5" x="645.73" y="1472.91" width="28.05" height="8.35" transform="translate(-388.48 244.91) rotate(-16.32)"/><path class="cls-9" d="M331.45,1100.54c-135.5,0-245.35,112-245.35,250.19S196,1600.92,331.45,1600.92s245.35-112,245.35-250.19S467,1100.54,331.45,1100.54Zm0,327.86c-41.05,0-74.34-33.93-74.34-75.8s33.29-75.82,74.34-75.82,74.35,34,74.35,75.82S372.51,1428.4,331.45,1428.4Z"/><path class="cls-1" d="M298.21,1100.54c-135.5,0-245.35,112-245.35,250.19s109.85,250.19,245.35,250.19,245.35-112,245.35-250.19S433.71,1100.54,298.21,1100.54Zm0,336.28c-45.61,0-82.59-37.71-82.59-84.22s37-84.23,82.59-84.23,82.6,37.71,82.6,84.23S343.83,1436.82,298.21,1436.82Z"/><path class="cls-2" d="M330.82,1152.08h-21.9a4,4,0,0,1-4-4v-.85a4,4,0,0,1,4-4h21.9a4,4,0,0,1,4,4v.85A4,4,0,0,1,330.82,1152.08Z"/><path class="cls-3" d="M460.2,1337H438.3a4,4,0,0,1-4-4v-.85a4,4,0,0,1,4-4h21.9a4,4,0,0,1,4,4v.85A4,4,0,0,1,460.2,1337Z"/><path class="cls-9" d="M509.61,1310l-21,6.14a4,4,0,0,1-5-2.74l-.23-.81a4,4,0,0,1,2.74-5l21-6.14a4,4,0,0,1,5,2.74l.24.82A4,4,0,0,1,509.61,1310Z"/><path class="cls-2" d="M186.71,1329H164.8a4,4,0,0,1-4-4v-.84a4,4,0,0,1,4-4h21.91a4,4,0,0,1,4,4v.84A4,4,0,0,1,186.71,1329Z"/><path class="cls-5" d="M424.18,1302l-21.07-6a4,4,0,0,1-2.77-5l.23-.82a4,4,0,0,1,5-2.78l21.06,6a4,4,0,0,1,2.78,5l-.23.82A4.05,4.05,0,0,1,424.18,1302Z"/><path class="cls-5" d="M120.53,1268.37H98.62a4,4,0,0,1-4-4v-.85a4,4,0,0,1,4-4h21.91a4,4,0,0,1,4,4v.85A4,4,0,0,1,120.53,1268.37Z"/><path class="cls-9" d="M354.55,1237.12h-21.9a4,4,0,0,1-4-4v-.85a4,4,0,0,1,4-4h21.9a4,4,0,0,1,4,4v.85A4,4,0,0,1,354.55,1237.12Z"/><path class="cls-15" d="M459.47,1214.44l-19-11A4.05,4.05,0,0,1,439,1198l.43-.73a4,4,0,0,1,5.51-1.48l19,11a4,4,0,0,1,1.47,5.51l-.42.74A4,4,0,0,1,459.47,1214.44Z"/><path class="cls-2" d="M198.65,1191.16l-18.51,11.7a4,4,0,0,1-5.57-1.26l-.45-.72a4,4,0,0,1,1.25-5.57l18.52-11.69a4,4,0,0,1,5.57,1.26l.45.72A4,4,0,0,1,198.65,1191.16Z"/><path class="cls-2" d="M475.25,1248.19l-11.95,18.35a4,4,0,0,1-5.59,1.18l-.71-.46a4.06,4.06,0,0,1-1.18-5.59l11.95-18.35a4,4,0,0,1,5.59-1.18l.71.46A4,4,0,0,1,475.25,1248.19Z"/><path class="cls-2" d="M295.24,1238.31,276.72,1250a4,4,0,0,1-5.56-1.25l-.46-.72a4,4,0,0,1,1.26-5.57l18.52-11.69a4,4,0,0,1,5.57,1.26l.45.71A4,4,0,0,1,295.24,1238.31Z"/><path class="cls-5" d="M234,1234.65l-7.58-20.55a4,4,0,0,1,2.39-5.19l.8-.29a4,4,0,0,1,5.18,2.39l7.57,20.55a4,4,0,0,1-2.39,5.18l-.79.3A4,4,0,0,1,234,1234.65Z"/><path class="cls-9" d="M241,1170.77,228.23,1153a4,4,0,0,1,.92-5.63l.69-.5a4,4,0,0,1,5.63.93l12.77,17.79a4,4,0,0,1-.93,5.63l-.69.5A4,4,0,0,1,241,1170.77Z"/><path class="cls-9" d="M426.76,1248.62,414,1230.83a4,4,0,0,1,.93-5.64l.69-.49a4,4,0,0,1,5.63.93L434,1243.42a4,4,0,0,1-.93,5.63l-.69.5A4,4,0,0,1,426.76,1248.62Z"/><path class="cls-3" d="M145.68,1236.92l-17-13.77a4,4,0,0,1-.6-5.68l.53-.65a4,4,0,0,1,5.68-.6l17,13.77a4,4,0,0,1,.6,5.67l-.53.66A4,4,0,0,1,145.68,1236.92Z"/><path class="cls-5" d="M403.18,1183.28l-17-13.77a4,4,0,0,1-.6-5.67l.53-.66a4,4,0,0,1,5.67-.6l17,13.77a4,4,0,0,1,.6,5.67l-.53.66A4,4,0,0,1,403.18,1183.28Z"/><path class="cls-3" d="M108.27,1330.91l-13.56-17.2a4,4,0,0,1,.67-5.67l.67-.52a4,4,0,0,1,5.67.67l13.55,17.2a4,4,0,0,1-.67,5.67l-.67.52A4,4,0,0,1,108.27,1330.91Z"/><path class="cls-15" d="M184.38,1262.48l3.73-21.58a4,4,0,0,1,4.66-3.29l.84.15a4,4,0,0,1,3.29,4.66L193.17,1264a4,4,0,0,1-4.66,3.29l-.84-.14A4,4,0,0,1,184.38,1262.48Z"/><path class="cls-3" d="M268.92,1196.51l17.2-13.55a4,4,0,0,1,5.67.67l.52.67a4,4,0,0,1-.67,5.66l-17.2,13.56a4,4,0,0,1-5.67-.67l-.52-.67A4,4,0,0,1,268.92,1196.51Z"/><path class="cls-9" d="M135.1,1296.29l17.2-13.56a4,4,0,0,1,5.67.67l.52.67a4,4,0,0,1-.67,5.67l-17.2,13.55a4,4,0,0,1-5.67-.67l-.52-.67A4,4,0,0,1,135.1,1296.29Z"/><path class="cls-15" d="M344.74,1197.7l3.73-21.58a4,4,0,0,1,4.67-3.29l.83.14a4,4,0,0,1,3.29,4.67l-3.73,21.58a4,4,0,0,1-4.66,3.29l-.84-.15A4,4,0,0,1,344.74,1197.7Z"/><path class="cls-3" d="M370.57,1264.61l14.58-16.34a4,4,0,0,1,5.7-.33l.63.57a4,4,0,0,1,.33,5.69l-14.58,16.35a4,4,0,0,1-5.7.32l-.63-.56A4,4,0,0,1,370.57,1264.61Z"/><path class="cls-2" d="M269,1553.36l21.9.34a4,4,0,0,1,4,4.09v.85a4,4,0,0,1-4.1,4l-21.9-.33a4,4,0,0,1-4-4.1v-.84A4,4,0,0,1,269,1553.36Z"/><path class="cls-3" d="M142.48,1366.52l21.9.33a4,4,0,0,1,4,4.1v.84a4,4,0,0,1-4.1,4l-21.9-.34a4,4,0,0,1-4-4.09v-.85A4,4,0,0,1,142.48,1366.52Z"/><path class="cls-9" d="M92.66,1392.76l21.12-5.82a4,4,0,0,1,5,2.82l.23.82a4,4,0,0,1-2.82,5L95,1401.36a4,4,0,0,1-5-2.82l-.22-.82A4,4,0,0,1,92.66,1392.76Z"/><path class="cls-2" d="M415.82,1378.66l21.9.33a4,4,0,0,1,4,4.1v.85a4,4,0,0,1-4.1,4l-21.9-.33a4,4,0,0,1-4-4.1v-.85A4,4,0,0,1,415.82,1378.66Z"/><path class="cls-5" d="M178,1402l21,6.31a4,4,0,0,1,2.71,5l-.25.81a4,4,0,0,1-5,2.7l-21-6.31a4,4,0,0,1-2.7-5l.25-.81A4,4,0,0,1,178,1402Z"/><path class="cls-5" d="M481.07,1440.29l21.9.33a4,4,0,0,1,4,4.1v.85a4,4,0,0,1-4.1,4l-21.9-.33a4,4,0,0,1-4-4.1v-.85A4,4,0,0,1,481.07,1440.29Z"/><path class="cls-9" d="M246.59,1468l21.9.34a4,4,0,0,1,4,4.09l0,.85a4,4,0,0,1-4.09,4l-21.9-.34a4,4,0,0,1-4-4.09v-.85A4,4,0,0,1,246.59,1468Z"/><path class="cls-15" d="M141.34,1489.05l18.8,11.24a4,4,0,0,1,1.39,5.53l-.43.73a4,4,0,0,1-5.54,1.39l-18.79-11.24a4,4,0,0,1-1.4-5.53l.44-.73A4,4,0,0,1,141.34,1489.05Z"/><path class="cls-2" d="M401.77,1516.3l18.7-11.41a4,4,0,0,1,5.54,1.34l.44.73a4,4,0,0,1-1.34,5.54l-18.69,11.41a4,4,0,0,1-5.55-1.34l-.44-.72A4,4,0,0,1,401.77,1516.3Z"/><path class="cls-2" d="M126.08,1455.06l12.23-18.16a4,4,0,0,1,5.6-1.1l.7.47a4.05,4.05,0,0,1,1.1,5.61L133.48,1460a4,4,0,0,1-5.6,1.1l-.71-.48A4,4,0,0,1,126.08,1455.06Z"/><path class="cls-2" d="M305.91,1467.68l18.7-11.41a4,4,0,0,1,5.55,1.35l.44.72a4,4,0,0,1-1.34,5.55l-18.7,11.41A4,4,0,0,1,305,1474l-.44-.72A4,4,0,0,1,305.91,1467.68Z"/><path class="cls-5" d="M367.09,1472.28l7.26,20.66a4,4,0,0,1-2.48,5.15l-.8.28a4,4,0,0,1-5.14-2.47l-7.26-20.67a4,4,0,0,1,2.47-5.14l.8-.28A4,4,0,0,1,367.09,1472.28Z"/><path class="cls-9" d="M359.13,1536l12.49,18a4,4,0,0,1-1,5.62l-.7.48a4,4,0,0,1-5.61-1l-12.5-18a4,4,0,0,1,1-5.62l.69-.48A4,4,0,0,1,359.13,1536Z"/><path class="cls-9" d="M174.57,1455.37l12.49,18a4,4,0,0,1-1,5.62l-.7.49a4,4,0,0,1-5.61-1l-12.5-18a4,4,0,0,1,1-5.61l.69-.49A4,4,0,0,1,174.57,1455.37Z"/><path class="cls-3" d="M455.44,1471.35l16.82,14a4,4,0,0,1,.51,5.69l-.54.65a4,4,0,0,1-5.69.51l-16.81-14a4,4,0,0,1-.52-5.68l.55-.65A4,4,0,0,1,455.44,1471.35Z"/><path class="cls-5" d="M197.15,1521.06l16.81,14a4,4,0,0,1,.52,5.68l-.55.65a4,4,0,0,1-5.68.52l-16.82-14a4,4,0,0,1-.51-5.68l.54-.65A4,4,0,0,1,197.15,1521.06Z"/><path class="cls-3" d="M494.28,1378l13.29,17.4a4,4,0,0,1-.76,5.66l-.67.51a4,4,0,0,1-5.66-.75l-13.29-17.41a4,4,0,0,1,.76-5.66l.67-.51A4,4,0,0,1,494.28,1378Z"/><path class="cls-15" d="M417.13,1445.2l-4.06,21.53a4,4,0,0,1-4.71,3.21l-.83-.15a4,4,0,0,1-3.22-4.72l4.06-21.52a4,4,0,0,1,4.71-3.22l.83.16A4,4,0,0,1,417.13,1445.2Z"/><path class="cls-3" d="M331.6,1509.88l-17.41,13.29a4,4,0,0,1-5.66-.76l-.51-.67a4,4,0,0,1,.76-5.66l17.4-13.29a4,4,0,0,1,5.66.76l.51.67A4,4,0,0,1,331.6,1509.88Z"/><path class="cls-9" d="M466.92,1412.16l-17.4,13.29a4,4,0,0,1-5.66-.76l-.52-.67a4,4,0,0,1,.76-5.66l17.41-13.29a4,4,0,0,1,5.66.76l.51.67A4,4,0,0,1,466.92,1412.16Z"/><path class="cls-15" d="M255.8,1507.54l-4.06,21.52a4,4,0,0,1-4.71,3.22l-.84-.16a4,4,0,0,1-3.21-4.71l4.05-21.53a4,4,0,0,1,4.72-3.21l.83.15A4,4,0,0,1,255.8,1507.54Z"/><path class="cls-3" d="M231,1440.24l-14.83,16.12a4,4,0,0,1-5.7.24l-.63-.58a4,4,0,0,1-.23-5.7l14.82-16.12a4,4,0,0,1,5.7-.24l.63.58A4,4,0,0,1,231,1440.24Z"/><polygon class="cls-16" points="1072.12 885.97 1071.46 891.65 319.85 891.65 320.5 885.97 1072.12 885.97"/><path class="cls-16" d="M1058.88,954.84c-1,1.95-2.14,3.84-3.32,5.68H329.49c-1.19-1.84-2.31-3.74-3.34-5.68Z"/><path class="cls-16" d="M1068.16,920.41l-.66,5.67h-750c-.18-1.87-.28-3.76-.31-5.67Z"/><rect class="cls-15" x="840.66" y="1355.03" width="307.55" height="344.35"/><rect class="cls-14" x="1.46" y="1355.03" width="839.2" height="344.35"/><rect class="cls-16" x="1.46" y="1386.63" width="839.57" height="5.68"/><rect class="cls-16" x="1.46" y="1421.07" width="839.2" height="5.68"/><rect class="cls-16" x="1.46" y="1455.5" width="839.2" height="5.68"/><rect class="cls-16" x="1.46" y="1489.93" width="839.2" height="5.68"/><rect class="cls-16" x="1.46" y="1524.37" width="839.2" height="5.68"/><rect class="cls-16" x="1.46" y="1558.8" width="839.2" height="5.68"/><rect class="cls-16" x="1.46" y="1627.67" width="839.2" height="5.68"/><rect class="cls-16" x="1.46" y="1593.24" width="839.2" height="5.68"/><rect class="cls-16" x="1.46" y="1662.11" width="839.2" height="5.68"/><rect class="cls-17" x="841.03" y="1386.63" width="307.18" height="5.68"/><rect class="cls-17" x="840.66" y="1421.07" width="307.55" height="5.68"/><rect class="cls-17" x="840.66" y="1455.5" width="307.55" height="5.68"/><rect class="cls-17" x="840.66" y="1489.93" width="307.55" height="5.68"/><rect class="cls-17" x="840.66" y="1524.37" width="307.55" height="5.68"/><rect class="cls-17" x="840.66" y="1558.8" width="307.55" height="5.68"/><rect class="cls-17" x="840.66" y="1627.67" width="307.55" height="5.68"/><rect class="cls-17" x="840.66" y="1593.24" width="307.55" height="5.68"/><rect class="cls-17" x="840.66" y="1662.11" width="307.55" height="5.68"/></g><g id="COFFEE"><polygon class="cls-2" points="1465.05 1063.42 1391.95 1699.38 1028.89 1699.38 955.8 1063.42 1465.05 1063.42"/><polygon class="cls-7" points="1465.04 1063.42 1391.95 1699.38 1312.86 1699.38 1383.15 1087.74 958.59 1087.74 955.79 1063.42 1465.04 1063.42"/><path class="cls-9" d="M1504.46,1063.42H916.38l4.66-26a23.32,23.32,0,0,1,23-19.19h10.09l7.4-28.23a45.08,45.08,0,0,1,43.6-33.65h410.68A45.09,45.09,0,0,1,1459.37,990l7.39,28.23h10.1a23.29,23.29,0,0,1,22.93,19.19Z"/><line class="cls-6" x1="1028.89" y1="1699.38" x2="1391.95" y2="1699.38"/><ellipse class="cls-3" cx="1196.55" cy="1338.45" rx="113.92" ry="121.62"/><path class="cls-9" d="M1214.34,1303.89l-40.74,62.57a5.77,5.77,0,0,1-9.36.41c-10.24-13-10.5-33.66.58-50.68s30-25.11,46.11-21A5.76,5.76,0,0,1,1214.34,1303.89Z"/><path class="cls-9" d="M1229.26,1358.16c-11,16.85-29.67,24.95-45.63,21.14a5.75,5.75,0,0,1-3.46-8.73l40.58-62.33a5.76,5.76,0,0,1,9.39-.36C1240.08,1320.93,1240.24,1341.3,1229.26,1358.16Z"/></g></g></svg>