<svg id="Calque_1" data-name="Calque 1" xmlns="http://www.w3.org/2000/svg" viewBox="0 0 3233.61 1620.94"><defs><style>.cls-1{fill:#ff6e00;}.cls-2{fill:#fff;}.cls-3{fill:#a9d8d5;}.cls-12,.cls-13,.cls-4,.cls-6,.cls-8{fill:none;}.cls-13,.cls-4{stroke:#a9d8d5;}.cls-11,.cls-13,.cls-4,.cls-6,.cls-8{stroke-miterlimit:10;}.cls-11,.cls-4,.cls-6,.cls-8{stroke-width:5px;}.cls-11,.cls-5{fill:#f1b104;}.cls-11,.cls-12,.cls-6{stroke:#573240;stroke-linecap:round;}.cls-7{fill:#e0f1f0;}.cls-8{stroke:#fff;}.cls-9{fill:#573240;}.cls-10{fill:#22a78d;}.cls-12{stroke-linejoin:round;}.cls-12,.cls-13{stroke-width:4px;}.cls-14{fill:#fcd4d0;}.cls-15{fill:#f6acc1;}.cls-16{fill:#fde5e3;}.cls-17{fill:#fabfd6;}.cls-18{fill:#f0f5fb;}</style></defs><title>user</title><g id="Слой_1" data-name="Слой 1"><g id="DRINK"><polygon class="cls-1" points="2984.32 958.53 2942.8 958.53 2875.65 374.27 2917.17 374.27 2984.32 958.53"/><polygon class="cls-2" points="2921.96 415.91 2885.21 457.4 2882.85 436.89 2919.6 395.39 2921.96 415.91"/><polygon class="cls-2" points="2927.9 467.58 2891.15 509.07 2888.78 488.56 2925.54 447.06 2927.9 467.58"/><polygon class="cls-2" points="2933.83 519.25 2897.09 560.75 2894.73 540.23 2931.48 498.74 2933.83 519.25"/><polygon class="cls-2" points="2939.78 570.92 2903.02 612.42 2900.66 591.91 2937.42 550.41 2939.78 570.92"/><polygon class="cls-2" points="2945.71 622.59 2908.97 664.08 2906.61 643.58 2943.36 602.08 2945.71 622.59"/><polygon class="cls-2" points="2951.65 674.27 2914.9 715.76 2912.54 695.25 2949.3 653.76 2951.65 674.27"/><polygon class="cls-2" points="2957.6 725.94 2920.84 767.43 2918.49 746.92 2955.24 705.43 2957.6 725.94"/><polygon class="cls-2" points="2963.53 777.6 2926.78 819.1 2924.43 798.6 2961.17 757.1 2963.53 777.6"/><polygon class="cls-2" points="2969.48 829.28 2932.72 870.77 2930.36 850.26 2967.12 808.77 2969.48 829.28"/><polygon class="cls-2" points="2975.41 880.95 2938.66 922.45 2936.31 901.93 2973.05 860.44 2975.41 880.95"/><path class="cls-3" d="M3193.39,1039.47l-68.61,601.62a65.8,65.8,0,0,1-65.37,58.29h-224a65.8,65.8,0,0,1-65.37-58.29l-69-601.62Z" transform="translate(-1.46 -80.94)"/><polygon class="cls-2" points="2981.36 932.62 2958.4 958.53 2942.81 958.53 2942.24 953.6 2979 912.11 2981.36 932.62"/><path class="cls-4" d="M3205.1,942.36l-80.32,698.73a65.81,65.81,0,0,1-65.37,58.29h-224a65.81,65.81,0,0,1-65.38-58.29l-80.31-698.73Z" transform="translate(-1.46 -80.94)"/><path class="cls-5" d="M2888.89,1306.63l213.85-153.43c27.43,59.82,11.75,130.83-41,168.65S2936.76,1351.77,2888.89,1306.63Z" transform="translate(-1.46 -80.94)"/><path class="cls-1" d="M3025.14,1321.42l-19-77.47,67.21,42.78a108.36,108.36,0,0,1-48.18,34.69Z" transform="translate(-1.46 -80.94)"/><path class="cls-1" d="M3014.34,1233.07l83-18.42A114.89,114.89,0,0,1,3082,1274Z" transform="translate(-1.46 -80.94)"/><path class="cls-1" d="M2949,1321.24l44.26-73.08,17.18,77.39A114.73,114.73,0,0,1,2949,1321.24Z" transform="translate(-1.46 -80.94)"/><path class="cls-1" d="M2931.14,1313.28a123.49,123.49,0,0,1-25.61-18.59l73.95-53.06Z" transform="translate(-1.46 -80.94)"/><path class="cls-1" d="M3011.38,1218.75l74.71-53.61a122.73,122.73,0,0,1,9.46,30.53Z" transform="translate(-1.46 -80.94)"/><path class="cls-6" d="M3192.63,902.42H2702.18a39.93,39.93,0,0,0-39.93,39.93h570.32a39.94,39.94,0,0,0-39.94-39.94Z" transform="translate(-1.46 -80.94)"/><path class="cls-6" d="M3193.79,902.42a224,224,0,0,0-218-172.8h-56.7a224,224,0,0,0-218,172.8Z" transform="translate(-1.46 -80.94)"/><path class="cls-7" d="M3021.34,1657.13h-85.43a19.32,19.32,0,0,1-19.33-19.33h0v-85.44a19.32,19.32,0,0,1,19.33-19.33h85.43a19.32,19.32,0,0,1,19.33,19.33h0v85.44a19.32,19.32,0,0,1-19.33,19.33Z" transform="translate(-1.46 -80.94)"/><path class="cls-7" d="M3089.83,1503.34H3022.6a19.35,19.35,0,0,1-19.33-19.33v-67.23a19.32,19.32,0,0,1,19.33-19.33h67.23a19.32,19.32,0,0,1,19.33,19.31V1484a19.32,19.32,0,0,1-19.32,19.34Z" transform="translate(-1.46 -80.94)"/><path class="cls-7" d="M2861.52,1555h-67.23a19.35,19.35,0,0,1-19.33-19.33v-67.23a19.32,19.32,0,0,1,19.33-19.33h67.23a19.32,19.32,0,0,1,19.33,19.31v67.25a19.32,19.32,0,0,1-19.33,19.33Z" transform="translate(-1.46 -80.94)"/><path class="cls-8" d="M2906.86,1219.45a11.46,11.46,0,1,1-11.46,11.46h0A11.46,11.46,0,0,1,2906.86,1219.45Z" transform="translate(-1.46 -80.94)"/><circle class="cls-8" cx="2845.13" cy="1317.63" r="11.46"/><circle class="cls-8" cx="2817.45" cy="1050.89" r="16.22"/><circle class="cls-8" cx="3093.28" cy="1217.96" r="16.22"/><circle class="cls-8" cx="2961.62" cy="1326.95" r="9.32"/><circle class="cls-8" cx="3115.79" cy="1250.6" r="6.08"/><circle class="cls-8" cx="3053.11" cy="1046.5" r="10.14"/><circle class="cls-8" cx="2786.81" cy="1084.65" r="6.08"/><circle class="cls-8" cx="2792.89" cy="1274.09" r="6.08"/></g><g id="PACKAGE"><polygon class="cls-9" points="2014.68 65.02 2014.68 207.69 1952.18 207.69 1952.18 63.01 1646.57 63.01 1646.57 207.69 1584.08 207.69 1584.08 65.02 1649.08 0 1949.67 0 2014.68 65.02"/><path class="cls-10" d="M1991,288.64V146l-65-65H1625.41l-65,65V288.64h-250l-162.2,1410.74H2238.49V288.64Zm-62.49,0H1622.9V144h305.61Z" transform="translate(-1.46 -80.94)"/><polygon class="cls-9" points="2432.43 1618.44 2237.03 1618.44 2237.03 207.69 2270.27 207.69 2432.43 1618.44"/><line class="cls-6" x1="1558.94" y1="64.2" x2="1989.54" y2="64.2"/></g><g id="SALAD"><path class="cls-11" d="M2537.3,1454.3l-88-176.82a121.68,121.68,0,0,0-109-67.48H1768.16a121.67,121.67,0,0,0-108.93,67.45l-88,176.82Z" transform="translate(-1.46 -80.94)"/><path class="cls-2" d="M2369.37,1509.83c-45.6,48.67-104.52,67.55-147.6,27.2s-28.08-100.39,17.52-149.06,119.63-69.34,155.55-35.69S2415,1461.16,2369.37,1509.83Z" transform="translate(-1.46 -80.94)"/><circle class="cls-5" cx="2289.99" cy="1379.7" r="55.85"/><path class="cls-2" d="M2879.07,1413.26c16.2,51.56,6.06,100.66-39.56,115s-82-20.14-98.22-71.7-1.31-112,36.73-124S2862.87,1361.71,2879.07,1413.26Z" transform="translate(-1.46 -80.94)"/><circle class="cls-5" cx="2811.91" cy="1367.57" r="45.25"/><path class="cls-1" d="M2001.55,1517.3l-197.06-108.64c33-37.56,91.24-47.35,139.81-20.57S2015.7,1469.36,2001.55,1517.3Z" transform="translate(-1.46 -80.94)"/><path class="cls-12" d="M1928.16,1436.22c-3.43,6.24-18.92,15.48-18.92,15.48s-.45-18,3-24.26,9.8-9.33,14.2-6.9S1931.6,1430,1928.16,1436.22Z" transform="translate(-1.46 -80.94)"/><path class="cls-12" d="M1948.18,1468c-7.07.9-23.66-6.16-23.66-6.16s14.29-11,21.35-11.9,13.31,2.42,13.94,7.4S1955.24,1467.11,1948.18,1468Z" transform="translate(-1.46 -80.94)"/><path class="cls-12" d="M1874.66,1427.48c3,6.46,17.84,16.72,17.84,16.72s1.67-18-1.34-24.41-9.14-10-13.69-7.84S1871.66,1421,1874.66,1427.48Z" transform="translate(-1.46 -80.94)"/><path class="cls-1" d="M2539.33,1479.72,2702.68,1340c22.23,42.66,11.21,98.44-29.06,132.87S2577.17,1509,2539.33,1479.72Z" transform="translate(-1.46 -80.94)"/><path class="cls-12" d="M2636.28,1441.75c-4.38-5.25-7.35-22.38-7.35-22.38s16.19,5.83,20.57,11.08,5,12,1.32,15.15S2640.66,1447,2636.28,1441.75Z" transform="translate(-1.46 -80.94)"/><path class="cls-12" d="M2601.24,1448.75c1.59-6.66,13.49-19.14,13.49-19.14s4.94,16.65,3.35,23.32-6.65,11.13-11.3,10S2599.65,1455.42,2601.24,1448.75Z" transform="translate(-1.46 -80.94)"/><path class="cls-12" d="M2662.18,1396.65c-6.76.47-20.91,10.26-20.91,10.26s15.4,7.71,22.16,7.24,12-4.78,11.61-9.61S2668.93,1396.18,2662.18,1396.65Z" transform="translate(-1.46 -80.94)"/><path class="cls-3" d="M2254.46,1482.77S2191.77,1454,2194.63,1369s78.86-112.21,93.06-85.61c9.34,17.48-1.61,39.2-32.05,50.44-34.46,12.74-55,23.37-50,63.91C2210.16,1434.35,2227.12,1462,2254.46,1482.77Z" transform="translate(-1.46 -80.94)"/><path class="cls-12" d="M2254.46,1482.77s-72.19-48.78-45.39-128.27c22.3-66.15,66.6-60.35,66.6-60.35" transform="translate(-1.46 -80.94)"/><path class="cls-12" d="M2220.55,1329.2a41.28,41.28,0,0,0,6.61-30.42" transform="translate(-1.46 -80.94)"/><circle class="cls-3" cx="2108.5" cy="1443.1" r="66.43" transform="translate(344.83 3212.27) rotate(-80.78)"/><path class="cls-12" d="M2118.44,1417.61c-.64,4.92-8.33,14.84-8.33,14.84s-4.88-11.57-4.24-16.49,4-8.53,7.45-8.08S2119.09,1412.69,2118.44,1417.61Z" transform="translate(-1.46 -80.94)"/><path class="cls-12" d="M2098.86,1469.47c.65-4.92,8.34-14.85,8.34-14.85s4.88,11.58,4.23,16.49-4,8.54-7.45,8.08S2098.22,1474.38,2098.86,1469.47Z" transform="translate(-1.46 -80.94)"/><path class="cls-12" d="M2082.72,1433.75c4.92.64,14.85,8.34,14.85,8.34s-11.58,4.87-16.49,4.23-8.54-4-8.08-7.45S2077.81,1433.1,2082.72,1433.75Z" transform="translate(-1.46 -80.94)"/><path class="cls-12" d="M2134.58,1453.33c-4.92-.65-14.84-8.34-14.84-8.34s11.57-4.88,16.49-4.23,8.53,4,8.08,7.45S2139.5,1454,2134.58,1453.33Z" transform="translate(-1.46 -80.94)"/><circle class="cls-2" cx="1660.85" cy="1377.56" r="39.46"/><path class="cls-3" d="M1805.89,1454.41c-16.19-.54-34.19-5.33-54.35-12.37-80.38-28.08-79.89-101-54.2-107.18,20.11-4.82,35.22,14.23,36.88,46.65,1.89,36.71,8.63,62.69,48.83,70A201.65,201.65,0,0,0,1805.89,1454.41Z" transform="translate(-1.46 -80.94)"/><path class="cls-12" d="M1817.24,1454.58a116.49,116.49,0,0,1-74.91-21.46c-42.34-29.71-40.6-84.28-40.6-84.28" transform="translate(-1.46 -80.94)"/><path class="cls-3" d="M1811.7,1453.59c3,.49-45.19-3.91-58.35-45.85-9.79-31.22,14.46-38.45,24.18-28.63,10.85,11,2.41,41,16.17,60.89C1797.69,1445.78,1797.15,1451.2,1811.7,1453.59Z" transform="translate(-1.46 -80.94)"/><path class="cls-12" d="M1768.73,1388.35s-7.08,53,48.51,66.23" transform="translate(-1.46 -80.94)"/><path class="cls-3" d="M2498,1455.63a19,19,0,0,1-9.39-.26c26-11.76,34.73-37.31,40.93-70.67,7.28-39.16,29.4-60,54-51C2615,1345.11,2604,1433.87,2498,1455.63Z" transform="translate(-1.46 -80.94)"/><path class="cls-12" d="M2401.23,1467.38c28.95,2.82,80.11-1.39,113.91-22.08,55.54-34,55.62-95,55.62-95" transform="translate(-1.46 -80.94)"/><path class="cls-3" d="M2408.33,1466.48c-3.81.43,57.67-2.26,76.83-52.88,14.26-37.67-16.14-47.88-29.08-36.4-14.41,12.8-5.43,50-24.08,73.65C2426.59,1457.7,2427,1464.37,2408.33,1466.48Z" transform="translate(-1.46 -80.94)"/><path class="cls-12" d="M2466.73,1389s5.93,65.27-65.5,78.37" transform="translate(-1.46 -80.94)"/><path class="cls-6" d="M2927.3,1454.3l-88-176.82a121.68,121.68,0,0,0-109-67.48h-390a121.67,121.67,0,0,1,108.93,67.45l88,176.82Z" transform="translate(-1.46 -80.94)"/><path class="cls-6" d="M2537.3,1454.3l-88-176.82a121.68,121.68,0,0,0-109-67.48H1768.16a121.67,121.67,0,0,0-108.93,67.45l-88,176.82Z" transform="translate(-1.46 -80.94)"/><rect class="cls-9" x="1881.35" y="1129.09" width="280.39" height="134.54"/><path class="cls-2" d="M2537.3,1455.11l-88,176.82a121.66,121.66,0,0,1-108.92,67.45H1768.15a121.66,121.66,0,0,1-108.92-67.45l-88-176.82Z" transform="translate(-1.46 -80.94)"/><path class="cls-2" d="M2927.3,1454.3l-88,176.82a121.69,121.69,0,0,1-108.93,67.45h-390a121.67,121.67,0,0,0,108.93-67.45l88-176.82Z" transform="translate(-1.46 -80.94)"/><path class="cls-2" d="M2927.29,1454.29l-88,176.82a121.69,121.69,0,0,1-108.93,67.45h-962.2a121.69,121.69,0,0,1-108.94-67.45l-88-176.82Z" transform="translate(-1.46 -80.94)"/><path class="cls-6" d="M2839.26,1631.12a121.69,121.69,0,0,1-108.93,67.45h-390a121.67,121.67,0,0,0,108.93-67.45l88-176.82" transform="translate(-1.46 -80.94)"/><path class="cls-6" d="M2537.3,1454.3l-88,176.82a121.67,121.67,0,0,1-108.93,67.45h-596.5" transform="translate(-1.46 -80.94)"/><line class="cls-6" x1="1541.87" y1="1374.17" x2="2953.7" y2="1374.17"/><path class="cls-13" d="M2047.79,1297.13h-24.13V1273a45.35,45.35,0,0,1,45.35-45.35h24.13v24.13A45.35,45.35,0,0,1,2047.79,1297.13Z" transform="translate(-1.46 -80.94)"/><line class="cls-13" x1="2091.68" y1="1146.7" x2="2006.23" y2="1232.15"/><polyline class="cls-13" points="2065.79 1147.51 2065.79 1172.59 2090.87 1172.59"/><polyline class="cls-13" points="2042.01 1154.97 2042.01 1196.37 2083.42 1196.37"/><path class="cls-13" d="M2003.24,1298.87h6.34v-6.33a45.35,45.35,0,0,0-45.35-45.35h-6.34v6.33A45.35,45.35,0,0,0,2003.24,1298.87Z" transform="translate(-1.46 -80.94)"/><line class="cls-13" x1="1956.43" y1="1166.25" x2="2014.28" y2="1224.1"/><polyline class="cls-13" points="1989.32 1174.83 1989.32 1199.14 1965.01 1199.14"/></g><g id="SMALL_BOX" data-name="SMALL BOX"><path class="cls-9" d="M2637.92,1027.52l-62.27,125.07a99.83,99.83,0,0,1-89.35,55.32H2321.23a99.79,99.79,0,0,0,89.34-55.32l62.27-125.07Z" transform="translate(-1.46 -80.94)"/><path class="cls-1" d="M2472.84,1027.52l-6.62,13.3-55.65,111.77a99.79,99.79,0,0,1-89.34,55.32H2084.7a99.82,99.82,0,0,1-89.34-55.32l-55.65-111.77-6.62-13.3Z" transform="translate(-1.46 -80.94)"/><polygon class="cls-9" points="2471.38 946.58 2461.65 966.33 1941.63 966.33 1931.63 946.58 2471.38 946.58"/><path class="cls-14" d="M2661.25,1027.52,2586.4,877.19a103.45,103.45,0,0,0-92.61-57.34h-171.4A103.46,103.46,0,0,1,2415,877.19l74.84,150.33Z" transform="translate(-1.46 -80.94)"/><path class="cls-2" d="M2489.84,1027.52,2415,877.19a103.46,103.46,0,0,0-92.61-57.34H2077.21a103.46,103.46,0,0,0-92.61,57.34l-74.84,150.33Z" transform="translate(-1.46 -80.94)"/></g><g id="DONUTS"><path class="cls-15" d="M1203.92,874.92,1148.74,1355H397.13l56.61-492.54h739.09A11.17,11.17,0,0,1,1204,873.61,11.38,11.38,0,0,1,1203.92,874.92Z" transform="translate(-1.46 -80.94)"/><path class="cls-14" d="M1090.46,862.48A17.54,17.54,0,0,0,1073,878l-5.71,49.62a76.7,76.7,0,0,1-76.19,67.94H393.92a76.7,76.7,0,0,1-76.7-76.7,77.69,77.69,0,0,1,.5-8.76l4.11-35.75a13.44,13.44,0,0,1,13.35-11.9Z" transform="translate(-1.46 -80.94)"/><ellipse class="cls-9" cx="856.35" cy="1368.25" rx="234.04" ry="238.66"/><path class="cls-3" d="M816.46,1210.53c-129.26,0-234,106.85-234,238.66s104.78,238.66,234,238.66,234-106.85,234-238.66S945.72,1210.53,816.46,1210.53Zm0,320.78c-43.51,0-78.78-36-78.78-80.34s35.27-80.34,78.78-80.34,78.79,36,78.79,80.34S860,1531.31,816.46,1531.31Z" transform="translate(-1.46 -80.94)"/><path class="cls-2" d="M851,1252.68H831a4,4,0,0,1-4-4v-.28a4,4,0,0,1,4-4h20a4,4,0,0,1,4,4v.28A4,4,0,0,1,851,1252.68Z" transform="translate(-1.46 -80.94)"/><path class="cls-9" d="M883.22,1338.07h-20a4,4,0,0,1-4-4v-.27a4,4,0,0,1,4-4h20a4,4,0,0,1,4,4v.27A4,4,0,0,1,883.22,1338.07Z" transform="translate(-1.46 -80.94)"/><path class="cls-2" d="M716.52,1287.15l-16.89,10.67a4,4,0,0,1-5.53-1.2l0-.06-.15-.23a4,4,0,0,1,1.2-5.53l.06,0,16.89-10.67a4,4,0,0,1,5.53,1.2l0,.06.14.24a4,4,0,0,1-1.2,5.53Z" transform="translate(-1.46 -80.94)"/><path class="cls-2" d="M976.7,1327.8l-10.9,16.74a4,4,0,0,1-5.52,1.22l-.07,0-.23-.15a4,4,0,0,1-1.22-5.52l0-.06,10.9-16.74a4,4,0,0,1,5.52-1.22l.07,0,.23.15a4,4,0,0,1,1.22,5.52Z" transform="translate(-1.46 -80.94)"/><path class="cls-2" d="M809.66,1325.41l-16.9,10.67a4,4,0,0,1-5.53-1.21l0,0-.15-.23a4,4,0,0,1,1.2-5.53l.06,0,16.89-10.66a4,4,0,0,1,5.53,1.19l0,.06.14.24a4,4,0,0,1-1.2,5.53Z" transform="translate(-1.46 -80.94)"/><path class="cls-9" d="M767.06,1270l-11.64-16.24a4,4,0,0,1,.86-5.59l.06,0,.23-.16a4,4,0,0,1,5.59.87l0,.06,11.64,16.23a4,4,0,0,1-.86,5.59l-.06,0-.23.16a4,4,0,0,1-5.59-.86Z" transform="translate(-1.46 -80.94)"/><path class="cls-1" d="M928.78,1332.21,917.14,1316a4,4,0,0,1,.86-5.59l.06,0,.23-.16a4,4,0,0,1,5.59.86l0,.06,11.65,16.24a4,4,0,0,1-.87,5.59l-.06,0-.23.16a4,4,0,0,1-5.59-.89Z" transform="translate(-1.46 -80.94)"/><path class="cls-1" d="M677.81,1338.53,662.28,1326a4,4,0,0,1-.64-5.62l0-.05.17-.22a4,4,0,0,1,5.62-.65l.06,0L683.06,1332a4,4,0,0,1,.64,5.62l0,.05-.17.22a4,4,0,0,1-5.61.69A.18.18,0,0,1,677.81,1338.53Z" transform="translate(-1.46 -80.94)"/><path class="cls-2" d="M918.8,1281.72l-15.53-12.56a4,4,0,0,1-.64-5.62l0,0,.17-.22a4,4,0,0,1,5.62-.65l.06.05,15.53,12.56a4,4,0,0,1,.65,5.62l-.05.06-.18.21a4,4,0,0,1-5.62.64Z" transform="translate(-1.46 -80.94)"/><path class="cls-5" d="M736.16,1333.67l3.4-19.69a4,4,0,0,1,4.6-3.29h.34a4,4,0,0,1,3.3,4.59v.08l-3.4,19.68a4,4,0,0,1-4.59,3.3h-.08l-.27,0a4,4,0,0,1-3.29-4.6Z" transform="translate(-1.46 -80.94)"/><path class="cls-5" d="M711.91,1403.28l3.4-19.68a4,4,0,0,1,4.59-3.3h.35a4,4,0,0,1,3.3,4.59v.08l-3.4,19.68a4,4,0,0,1-4.59,3.3h-.35a4,4,0,0,1-3.3-4.59Z" transform="translate(-1.46 -80.94)"/><path class="cls-1" d="M801.66,1286l15.69-12.37a4,4,0,0,1,5.62.62l0,.06.17.21a4,4,0,0,1-.61,5.62l-.06,0-15.69,12.37a4,4,0,0,1-5.62-.62l-.05-.06-.17-.21a4,4,0,0,1,.61-5.62Z" transform="translate(-1.46 -80.94)"/><path class="cls-5" d="M864.35,1295.12l3.41-19.69a4,4,0,0,1,4.6-3.29h.33a4,4,0,0,1,3.3,4.59v.08l-3.4,19.68a4,4,0,0,1-4.59,3.3h-.35a4,4,0,0,1-3.3-4.59S864.35,1295.15,864.35,1295.12Z" transform="translate(-1.46 -80.94)"/><path class="cls-2" d="M957.67,1576.84l11.88-16.06a4,4,0,0,1,5.65-.85l.22.17a4,4,0,0,1,.88,5.59l0,0-11.88,16.06a4,4,0,0,1-5.59.88l0,0-.23-.16a4,4,0,0,1-.88-5.59Z" transform="translate(-1.46 -80.94)"/><path class="cls-9" d="M879.18,1546.38l11.88-16.06a4,4,0,0,1,5.59-.88l.05,0,.23.16a4,4,0,0,1,.89,5.59l-.05.06-11.88,16a4,4,0,0,1-5.65.85L880,1552a4,4,0,0,1-.84-5.59Z" transform="translate(-1.46 -80.94)"/><path class="cls-2" d="M1010,1448.22l1.48-19.93a4,4,0,0,1,4.26-3.72h.34a4,4,0,0,1,3.72,4.26v.06l-1.47,19.92a4,4,0,0,1-4.25,3.74h-.35a4,4,0,0,1-3.74-4.25Z" transform="translate(-1.46 -80.94)"/><path class="cls-2" d="M899.82,1385.49l1.48-19.92a4,4,0,0,1,4.25-3.74h.34a4,4,0,0,1,3.74,4.25.22.22,0,0,0,0,.08l-1.48,19.92a4,4,0,0,1-4.25,3.74h-.34a4,4,0,0,1-3.74-4.25A.22.22,0,0,0,899.82,1385.49Z" transform="translate(-1.46 -80.94)"/><path class="cls-2" d="M834.23,1646.32l-7-18.72a4,4,0,0,1,2.31-5.17l.06,0,.26-.1a4,4,0,0,1,5.16,2.31l0,.07,7,18.72a4,4,0,0,1-2.31,5.17l-.06,0-.26.1a4,4,0,0,1-5.16-2.31Z" transform="translate(-1.46 -80.94)"/><path class="cls-2" d="M923.81,1500.32l1.48-19.92a4,4,0,0,1,4.25-3.74h.34a4,4,0,0,1,3.74,4.25.19.19,0,0,0,0,.08l-1.47,19.92a4,4,0,0,1-4.25,3.74h-.35a4,4,0,0,1-3.74-4.25A.22.22,0,0,0,923.81,1500.32Z" transform="translate(-1.46 -80.94)"/><path class="cls-9" d="M993.72,1499.07l20,.29a4,4,0,0,1,4,4v.37a4,4,0,0,1-4,4h-.1l-20-.3a4,4,0,0,1-4-4V1503a4,4,0,0,1,4.07-3.93Z" transform="translate(-1.46 -80.94)"/><path class="cls-9" d="M800.82,1567l20,.29a4,4,0,0,1,4,4v.38a4,4,0,0,1-4,4h-.09l-20-.29a4,4,0,0,1-4-4V1571a4,4,0,0,1,4-4Z" transform="translate(-1.46 -80.94)"/><path class="cls-1" d="M847.48,1592l20,.29a4,4,0,0,1,4,4v.37a4,4,0,0,1-4,4h-.1l-20-.3a4,4,0,0,1-4-4V1596a4,4,0,0,1,4-4Z" transform="translate(-1.46 -80.94)"/><path class="cls-1" d="M991.7,1386.54l19.34-5a4,4,0,0,1,4.9,2.83s0,.05,0,.07l.07.26a4,4,0,0,1-2.82,4.9l-.07,0-19.34,5a4,4,0,0,1-4.9-2.82l0-.07-.07-.27a4,4,0,0,1,2.82-4.9Z" transform="translate(-1.46 -80.94)"/><path class="cls-1" d="M923.89,1409.43l19.34-5a4,4,0,0,1,4.9,2.82l0,.07.07.27a4,4,0,0,1-2.82,4.9l-.07,0-19.34,5a4,4,0,0,1-4.9-2.82l0-.07-.07-.27a4,4,0,0,1,2.82-4.9Z" transform="translate(-1.46 -80.94)"/><path class="cls-2" d="M894,1614l19.34-5a4,4,0,0,1,4.9,2.83s0,.05,0,.07l.07.26a4,4,0,0,1-2.82,4.9l-.07,0-19.34,5a4,4,0,0,1-4.9-2.82l0-.07-.07-.27a4,4,0,0,1,2.82-4.9Z" transform="translate(-1.46 -80.94)"/><path class="cls-5" d="M960.89,1436.33l13.8,14.45a4,4,0,0,1-.08,5.66l-.05,0-.2.2a4,4,0,0,1-5.66-.08l0,0-13.8-14.45a4,4,0,0,1,.08-5.66l0,0,.2-.2a4,4,0,0,1,5.66.08Z" transform="translate(-1.46 -80.94)"/><path class="cls-1" d="M960.25,1517.34l.61,20a4,4,0,0,1-3.84,4.16h-.35a4,4,0,0,1-4.16-3.84v-.08l-.6-20a4,4,0,0,1,3.84-4.16h.35a4,4,0,0,1,4.15,3.85Z" transform="translate(-1.46 -80.94)"/><path class="cls-5" d="M915.62,1562.31l13.8,14.45a4,4,0,0,1-.08,5.66l-.05,0-.2.19a4,4,0,0,1-5.66-.08l0,0-13.8-14.44a4,4,0,0,1,.07-5.66l.06-.05.2-.19a4,4,0,0,1,5.66.08Z" transform="translate(-1.46 -80.94)"/><path class="cls-2" d="M638.27,1509l8.79,17.93a4,4,0,0,1-1.78,5.37l-.06,0-.25.13a4,4,0,0,1-5.37-1.78l0-.07-8.8-17.94a4,4,0,0,1,1.78-5.37l.07,0,.25-.12a4,4,0,0,1,5.37,1.78Z" transform="translate(-1.46 -80.94)"/><path class="cls-9" d="M701.4,1453.28l8.8,17.93a4,4,0,0,1-1.78,5.37l-.07,0-.24.12a4,4,0,0,1-5.37-1.78l0-.06-8.8-17.94a4,4,0,0,1,1.78-5.37l.07,0,.24-.12a4,4,0,0,1,5.37,1.78Z" transform="translate(-1.46 -80.94)"/><path class="cls-2" d="M728.44,1614.56l17,10.47a4,4,0,0,1,1.36,5.49l0,.06-.14.24a4,4,0,0,1-5.49,1.36l-.06,0-17-10.47a4,4,0,0,1-1.36-5.49l0-.06.14-.24a4,4,0,0,1,5.49-1.36Z" transform="translate(-1.46 -80.94)"/><path class="cls-2" d="M640,1366l19.83,2.42a4,4,0,0,1,3.53,4.42v.35a4,4,0,0,1-4.43,3.52h-.06L639,1374.28a4,4,0,0,1-3.53-4.42v-.35a4,4,0,0,1,4.43-3.52Z" transform="translate(-1.46 -80.94)"/><path class="cls-2" d="M721.78,1514.09l17,10.47a4,4,0,0,1,1.37,5.49l0,.06-.15.24a4,4,0,0,1-5.49,1.36l-.06,0-17-10.47a4,4,0,0,1-1.37-5.49l0-.06.15-.24a4,4,0,0,1,5.49-1.36Z" transform="translate(-1.46 -80.94)"/><path class="cls-9" d="M690.75,1576.74l-9.45,17.61a4,4,0,0,1-5.4,1.68l-.06,0-.24-.13a4,4,0,0,1-1.69-5.4l0-.07,9.45-17.6a4,4,0,0,1,5.4-1.68l.06,0,.24.13a4,4,0,0,1,1.68,5.4Z" transform="translate(-1.46 -80.94)"/><path class="cls-1" d="M675.43,1404.14l-9.44,17.6a4,4,0,0,1-5.4,1.69l-.07,0-.24-.13a4,4,0,0,1-1.69-5.4l0-.07,9.45-17.6a4,4,0,0,1,5.4-1.68l.06,0,.25.13a4,4,0,0,1,1.68,5.4Z" transform="translate(-1.46 -80.94)"/><path class="cls-1" d="M791.6,1626.69l-4.44,19.48a4,4,0,0,1-4.79,3h0l-.27-.06a4,4,0,0,1-3-4.79v0l4.45-19.48a4,4,0,0,1,4.79-3h0l.27.06a4,4,0,0,1,3,4.8Z" transform="translate(-1.46 -80.94)"/><path class="cls-2" d="M628.94,1429.75l-4.44,19.48a4,4,0,0,1-4.79,3h0l-.27-.06a4.05,4.05,0,0,1-3-4.84l4.44-19.47a4,4,0,0,1,4.79-3h0l.27.06a4,4,0,0,1,3,4.79Z" transform="translate(-1.46 -80.94)"/><path class="cls-5" d="M761.55,1576.44l-19.17,5.61a4,4,0,0,1-5-2.68l0,0-.08-.27a4,4,0,0,1,2.68-5l.06,0,19.17-5.61a4,4,0,0,1,5,2.68l0,.06.07.26a4,4,0,0,1-2.68,5Z" transform="translate(-1.46 -80.94)"/><path class="cls-1" d="M689.91,1538.62l-18-8.64a4,4,0,0,1-1.92-5.32l0-.07.12-.24a4,4,0,0,1,5.32-1.93l.06,0,18,8.65a4,4,0,0,1,1.93,5.32l0,.06-.12.25a4,4,0,0,1-5.32,1.92Z" transform="translate(-1.46 -80.94)"/><rect class="cls-5" x="645.73" y="1472.91" width="28.05" height="8.35" transform="translate(-389.94 163.97) rotate(-16.32)"/><path class="cls-9" d="M331.45,1100.54c-135.5,0-245.35,112-245.35,250.19S196,1600.92,331.45,1600.92s245.35-112,245.35-250.19S467,1100.54,331.45,1100.54Zm0,327.86c-41.05,0-74.34-33.93-74.34-75.8s33.29-75.82,74.34-75.82,74.35,34,74.35,75.82S372.51,1428.4,331.45,1428.4Z" transform="translate(-1.46 -80.94)"/><path class="cls-1" d="M298.21,1100.54c-135.5,0-245.35,112-245.35,250.19s109.85,250.19,245.35,250.19,245.35-112,245.35-250.19S433.71,1100.54,298.21,1100.54Zm0,336.28c-45.61,0-82.59-37.71-82.59-84.22s37-84.23,82.59-84.23,82.6,37.71,82.6,84.23-37,84.22-82.6,84.22Z" transform="translate(-1.46 -80.94)"/><path class="cls-2" d="M330.82,1152.08h-21.9a4,4,0,0,1-4-4v-.85a4,4,0,0,1,4-4h21.9a4,4,0,0,1,4,4v.85A4,4,0,0,1,330.82,1152.08Z" transform="translate(-1.46 -80.94)"/><path class="cls-3" d="M460.2,1337H438.3a4,4,0,0,1-4-4v-.85a4,4,0,0,1,4-4h21.9a4,4,0,0,1,4,4v.85A4,4,0,0,1,460.2,1337Z" transform="translate(-1.46 -80.94)"/><path class="cls-9" d="M509.61,1310l-21,6.14a4,4,0,0,1-5-2.68l0-.06-.23-.81a4,4,0,0,1,2.68-5l.06,0,21-6.14a4,4,0,0,1,5,2.68l0,.06.24.82a4,4,0,0,1-2.69,5Z" transform="translate(-1.46 -80.94)"/><path class="cls-2" d="M186.71,1329H164.8a4,4,0,0,1-4-4v-.84a4,4,0,0,1,4-4h21.91a4,4,0,0,1,4,4v.84A4,4,0,0,1,186.71,1329Z" transform="translate(-1.46 -80.94)"/><path class="cls-5" d="M424.18,1302l-21.07-6a4,4,0,0,1-2.79-4.92.24.24,0,0,1,0-.08l.23-.82a4,4,0,0,1,4.91-2.8l.09,0,21.06,6a4,4,0,0,1,2.8,4.91.29.29,0,0,1,0,.09l-.23.82A4,4,0,0,1,424.18,1302Z" transform="translate(-1.46 -80.94)"/><path class="cls-5" d="M120.53,1268.37H98.62a4,4,0,0,1-4-4v-.85a4,4,0,0,1,4-4h21.91a4,4,0,0,1,4,4v.85A4,4,0,0,1,120.53,1268.37Z" transform="translate(-1.46 -80.94)"/><path class="cls-9" d="M354.55,1237.12h-21.9a4,4,0,0,1-4-4v-.85a4,4,0,0,1,4-4h21.9a4,4,0,0,1,4,4v.85A4,4,0,0,1,354.55,1237.12Z" transform="translate(-1.46 -80.94)"/><path class="cls-15" d="M459.47,1214.44l-19-11A4,4,0,0,1,439,1198l.43-.73a4,4,0,0,1,5.45-1.51l.06,0,19,11a4,4,0,0,1,1.5,5.45l0,.06-.42.74a4,4,0,0,1-5.47,1.43Z" transform="translate(-1.46 -80.94)"/><path class="cls-2" d="M198.65,1191.16l-18.51,11.7a4,4,0,0,1-5.53-1.2l0-.06-.45-.72a4,4,0,0,1,1.19-5.53l.06,0,18.52-11.69a4,4,0,0,1,5.53,1.2l0,.06.45.72a4,4,0,0,1-1.21,5.53Z" transform="translate(-1.46 -80.94)"/><path class="cls-2" d="M475.25,1248.19l-11.95,18.35a4,4,0,0,1-5.52,1.22l-.07,0-.71-.46a4.06,4.06,0,0,1-1.18-5.59l11.95-18.35a4,4,0,0,1,5.52-1.22l.07,0,.71.46a4,4,0,0,1,1.22,5.52Z" transform="translate(-1.46 -80.94)"/><path class="cls-2" d="M295.24,1238.31,276.72,1250a4,4,0,0,1-5.53-1.2l0,0-.46-.72a4,4,0,0,1,1.2-5.53l.06,0,18.52-11.69A4,4,0,0,1,296,1232l0,.06.45.71a4,4,0,0,1-1.2,5.53Z" transform="translate(-1.46 -80.94)"/><path class="cls-5" d="M234,1234.65l-7.58-20.55a4,4,0,0,1,2.31-5.16l.08,0,.8-.29a4,4,0,0,1,5.16,2.33l0,.06,7.57,20.55a4,4,0,0,1-2.33,5.16l-.06,0-.79.3a4,4,0,0,1-5.16-2.33Z" transform="translate(-1.46 -80.94)"/><path class="cls-9" d="M241,1170.77,228.23,1153a4,4,0,0,1,.86-5.59l.06,0,.69-.5a4,4,0,0,1,5.59.87l0,.06,12.77,17.79a4,4,0,0,1-.87,5.59l-.06,0-.69.5a4,4,0,0,1-5.58-.9Z" transform="translate(-1.46 -80.94)"/><path class="cls-9" d="M426.76,1248.62,414,1230.83a4,4,0,0,1,.86-5.59l.07,0,.69-.49a4,4,0,0,1,5.59.87l0,.06L434,1243.42a4,4,0,0,1-.87,5.59l-.06,0-.69.5a4,4,0,0,1-5.59-.88Z" transform="translate(-1.46 -80.94)"/><path class="cls-3" d="M145.68,1236.92l-17-13.77a4,4,0,0,1-.65-5.62l.05-.06.53-.65a4,4,0,0,1,5.62-.65l.06,0,17,13.77a4,4,0,0,1,.64,5.62l0,.05-.53.66a4,4,0,0,1-5.62.65Z" transform="translate(-1.46 -80.94)"/><path class="cls-5" d="M403.18,1183.28l-17-13.77a4,4,0,0,1-.64-5.62l0-.05.53-.66a4,4,0,0,1,5.62-.64l0,0,17,13.77a4,4,0,0,1,.64,5.62l0,0-.53.66a4,4,0,0,1-5.62.64Z" transform="translate(-1.46 -80.94)"/><path class="cls-3" d="M108.27,1330.91l-13.56-17.2a4,4,0,0,1,.61-5.62l.06,0,.67-.52a4,4,0,0,1,5.62.61l0,.06,13.55,17.2a4,4,0,0,1-.61,5.62l-.06,0-.67.52a4,4,0,0,1-5.62-.62Z" transform="translate(-1.46 -80.94)"/><path class="cls-15" d="M184.38,1262.48l3.73-21.58a4,4,0,0,1,4.59-3.3h.07l.84.15a4,4,0,0,1,3.3,4.59v.07L193.17,1264a4,4,0,0,1-4.59,3.3h-.07l-.84-.14a4,4,0,0,1-3.3-4.59S184.38,1262.51,184.38,1262.48Z" transform="translate(-1.46 -80.94)"/><path class="cls-3" d="M268.92,1196.51l17.2-13.55a4,4,0,0,1,5.62.61l.05.06.52.67a4,4,0,0,1-.62,5.62l-.05,0-17.2,13.56a4,4,0,0,1-5.62-.61l-.05-.06-.52-.67a4,4,0,0,1,.61-5.62Z" transform="translate(-1.46 -80.94)"/><path class="cls-9" d="M135.1,1296.29l17.2-13.56a4,4,0,0,1,5.62.61l.05.06.52.67a4,4,0,0,1-.61,5.62l-.06,0-17.2,13.55a4,4,0,0,1-5.62-.61l-.05-.06-.52-.67a4,4,0,0,1,.62-5.62Z" transform="translate(-1.46 -80.94)"/><path class="cls-15" d="M344.74,1197.7l3.73-21.58a4,4,0,0,1,4.59-3.3h.08l.83.14a4,4,0,0,1,3.3,4.59s0,0,0,.08l-3.73,21.58a4,4,0,0,1-4.59,3.3h-.07l-.84-.15a4,4,0,0,1-3.3-4.59Z" transform="translate(-1.46 -80.94)"/><path class="cls-3" d="M370.57,1264.61l14.58-16.34a4,4,0,0,1,5.64-.38l.06,0,.63.57a4,4,0,0,1,.37,5.64l0,0-14.58,16.35a4,4,0,0,1-5.64.37l-.06-.05-.63-.56a4,4,0,0,1-.38-5.64Z" transform="translate(-1.46 -80.94)"/><path class="cls-2" d="M269,1553.36l21.9.34a4,4,0,0,1,4,4v.94a4,4,0,0,1-4,4h-.1l-21.9-.33a4,4,0,0,1-4-4v-.94a4,4,0,0,1,4-4Z" transform="translate(-1.46 -80.94)"/><path class="cls-3" d="M142.48,1366.52l21.9.33a4,4,0,0,1,4,4v.94a4,4,0,0,1-4,4h-.1l-21.9-.34a4,4,0,0,1-4-4v-.94a4,4,0,0,1,4-4Z" transform="translate(-1.46 -80.94)"/><path class="cls-9" d="M92.66,1392.76l21.12-5.82a4,4,0,0,1,5,2.71l0,.11.23.82a4,4,0,0,1-2.71,5l-.11,0L95,1401.36a4,4,0,0,1-5-2.71l0-.11-.22-.82a4,4,0,0,1,2.77-4.93Z" transform="translate(-1.46 -80.94)"/><path class="cls-2" d="M415.82,1378.66l21.9.33a4,4,0,0,1,4,4v1a4,4,0,0,1-4,4h-.1l-21.9-.33a4,4,0,0,1-4-4v-.95a4,4,0,0,1,4-4Z" transform="translate(-1.46 -80.94)"/><path class="cls-5" d="M178,1402l21,6.31a4,4,0,0,1,2.72,5v0l-.25.81a4,4,0,0,1-5,2.71h0l-21-6.31a4,4,0,0,1-2.71-5v0l.25-.81a4,4,0,0,1,5-2.71Z" transform="translate(-1.46 -80.94)"/><path class="cls-5" d="M481.07,1440.29l21.9.33a4,4,0,0,1,4,4v1a4,4,0,0,1-4,4h-.1l-21.9-.33a4,4,0,0,1-4-4v-1a4,4,0,0,1,4-4Z" transform="translate(-1.46 -80.94)"/><path class="cls-9" d="M246.59,1468l21.9.34a4,4,0,0,1,4,4v.94a4,4,0,0,1-4,4h-.09l-21.9-.34a4,4,0,0,1-4-4V1472a4,4,0,0,1,4-4Z" transform="translate(-1.46 -80.94)"/><path class="cls-15" d="M141.34,1489.05l18.8,11.24a4,4,0,0,1,1.42,5.48l0,0-.43.73a4,4,0,0,1-5.47,1.43l-.07,0-18.79-11.24a4,4,0,0,1-1.43-5.47l0-.06.44-.73a4,4,0,0,1,5.48-1.42Z" transform="translate(-1.46 -80.94)"/><path class="cls-2" d="M401.77,1516.3l18.7-11.41a4,4,0,0,1,5.51,1.29l0,0,.44.73a4,4,0,0,1-1.29,5.51l-.05,0-18.69,11.41a4,4,0,0,1-5.51-1.28l0-.06-.44-.72a4,4,0,0,1,1.28-5.51Z" transform="translate(-1.46 -80.94)"/><path class="cls-2" d="M126.08,1455.06l12.23-18.16a4,4,0,0,1,5.54-1.14l.06,0,.7.47a4.05,4.05,0,0,1,1.1,5.61L133.48,1460a4,4,0,0,1-5.54,1.14l-.06,0-.71-.48a4,4,0,0,1-1.1-5.55Z" transform="translate(-1.46 -80.94)"/><path class="cls-2" d="M305.91,1467.68l18.7-11.41a4,4,0,0,1,5.51,1.28l0,.07.44.72a4,4,0,0,1-1.28,5.51l-.06,0-18.7,11.41a4,4,0,0,1-5.52-1.24l0-.06-.44-.72a4,4,0,0,1,1.22-5.52Z" transform="translate(-1.46 -80.94)"/><path class="cls-5" d="M367.09,1472.28l7.26,20.66a4,4,0,0,1-2.4,5.12l-.08,0-.8.28A4,4,0,0,1,366,1496l0-.06-7.26-20.67a4,4,0,0,1,2.41-5.12l.06,0,.8-.28a4,4,0,0,1,5.12,2.4Z" transform="translate(-1.46 -80.94)"/><path class="cls-9" d="M359.13,1536l12.49,18a4,4,0,0,1-.94,5.58l-.06,0-.7.48a4,4,0,0,1-5.58-.95l0-.05-12.5-18a4,4,0,0,1,.94-5.58l.06,0,.69-.48a4,4,0,0,1,5.58.93Z" transform="translate(-1.46 -80.94)"/><path class="cls-9" d="M174.57,1455.37l12.49,18a4,4,0,0,1-.94,5.58l-.06,0-.7.49a4,4,0,0,1-5.58-1l0,0-12.5-18a4,4,0,0,1,.95-5.58l.05,0,.69-.49a4,4,0,0,1,5.58.92Z" transform="translate(-1.46 -80.94)"/><path class="cls-3" d="M455.44,1471.35l16.82,14a4,4,0,0,1,.56,5.63l-.05.06-.54.65a4,4,0,0,1-5.63.56l-.06,0-16.81-14a4,4,0,0,1-.56-5.63l0,0,.55-.65a4,4,0,0,1,5.63-.56Z" transform="translate(-1.46 -80.94)"/><path class="cls-5" d="M197.15,1521.06l16.81,14a4,4,0,0,1,.56,5.63l0,0-.55.65a4,4,0,0,1-5.63.56l-.05,0-16.82-14a4,4,0,0,1-.55-5.63l0,0,.54-.65a4,4,0,0,1,5.63-.57Z" transform="translate(-1.46 -80.94)"/><path class="cls-3" d="M494.28,1378l13.29,17.4a4,4,0,0,1-.7,5.61l-.06,0-.67.51a4,4,0,0,1-5.61-.69l0-.06-13.29-17.41a4,4,0,0,1,.7-5.61l.06,0,.67-.51a4,4,0,0,1,5.61.7Z" transform="translate(-1.46 -80.94)"/><path class="cls-15" d="M417.13,1445.2l-4.06,21.53a4,4,0,0,1-4.65,3.22h-.06l-.83-.15a4,4,0,0,1-3.23-4.64.22.22,0,0,1,0-.08l4.06-21.52a4,4,0,0,1,4.64-3.23h.07l.83.16a4,4,0,0,1,3.23,4.64Z" transform="translate(-1.46 -80.94)"/><path class="cls-3" d="M331.6,1509.88l-17.41,13.29a4,4,0,0,1-5.61-.7l-.05-.06-.51-.67a4,4,0,0,1,.7-5.61l.06-.05,17.4-13.29a4,4,0,0,1,5.61.7l0,.06.51.67a4,4,0,0,1-.69,5.61Z" transform="translate(-1.46 -80.94)"/><path class="cls-9" d="M466.92,1412.16l-17.4,13.29a4,4,0,0,1-5.61-.7l-.05-.06-.52-.67a4,4,0,0,1,.7-5.61l.06-.05,17.41-13.29a4,4,0,0,1,5.61.7l.05.06.51.67a4,4,0,0,1-.7,5.61Z" transform="translate(-1.46 -80.94)"/><path class="cls-15" d="M255.8,1507.54l-4.06,21.52a4,4,0,0,1-4.64,3.23H247l-.84-.16a4,4,0,0,1-3.22-4.65v-.06l4.05-21.53a4,4,0,0,1,4.65-3.22h.07l.83.15a4,4,0,0,1,3.24,4.64Z" transform="translate(-1.46 -80.94)"/><path class="cls-3" d="M231,1440.24l-14.83,16.12a4,4,0,0,1-5.65.29l-.05-.05-.63-.58a4,4,0,0,1-.28-5.65l.05,0,14.82-16.12a4,4,0,0,1,5.65-.29l0,0,.63.58a4,4,0,0,1,.29,5.65Z" transform="translate(-1.46 -80.94)"/><polygon class="cls-16" points="1070.66 805.03 1070 810.71 318.39 810.71 319.04 805.03 1070.66 805.03"/><path class="cls-16" d="M1058.88,954.84c-1,1.95-2.14,3.84-3.32,5.68H329.49c-1.19-1.84-2.31-3.74-3.34-5.68Z" transform="translate(-1.46 -80.94)"/><path class="cls-16" d="M1068.16,920.41l-.66,5.67h-750c-.18-1.87-.28-3.76-.31-5.67Z" transform="translate(-1.46 -80.94)"/><rect class="cls-15" x="839.2" y="1274.09" width="307.55" height="344.35"/><rect class="cls-14" y="1274.09" width="839.2" height="344.35"/><rect class="cls-16" y="1305.69" width="839.57" height="5.68"/><rect class="cls-16" y="1340.13" width="839.2" height="5.68"/><rect class="cls-16" y="1374.56" width="839.2" height="5.68"/><rect class="cls-16" y="1408.99" width="839.2" height="5.68"/><rect class="cls-16" y="1443.43" width="839.2" height="5.68"/><rect class="cls-16" y="1477.86" width="839.2" height="5.68"/><rect class="cls-16" y="1546.73" width="839.2" height="5.68"/><rect class="cls-16" y="1512.3" width="839.2" height="5.68"/><rect class="cls-16" y="1581.17" width="839.2" height="5.68"/><rect class="cls-17" x="839.57" y="1305.69" width="307.18" height="5.68"/><rect class="cls-17" x="839.2" y="1340.13" width="307.55" height="5.68"/><rect class="cls-17" x="839.2" y="1374.56" width="307.55" height="5.68"/><rect class="cls-17" x="839.2" y="1408.99" width="307.55" height="5.68"/><rect class="cls-17" x="839.2" y="1443.43" width="307.55" height="5.68"/><rect class="cls-17" x="839.2" y="1477.86" width="307.55" height="5.68"/><rect class="cls-17" x="839.2" y="1546.73" width="307.55" height="5.68"/><rect class="cls-17" x="839.2" y="1512.3" width="307.55" height="5.68"/><rect class="cls-17" x="839.2" y="1581.17" width="307.55" height="5.68"/></g><g id="COFFEE"><polygon class="cls-2" points="1463.59 982.48 1390.49 1618.44 1027.43 1618.44 954.34 982.48 1463.59 982.48"/><polygon class="cls-7" points="1463.58 982.48 1390.49 1618.44 1311.4 1618.44 1381.69 1006.8 957.13 1006.8 954.33 982.48 1463.58 982.48"/><path class="cls-9" d="M1504.46,1063.42H916.38l4.66-26a23.32,23.32,0,0,1,23-19.19h10.09l7.4-28.23a45.09,45.09,0,0,1,43.6-33.65h410.68A45.08,45.08,0,0,1,1459.37,990l7.39,28.23h10.1a23.29,23.29,0,0,1,22.93,19.19Z" transform="translate(-1.46 -80.94)"/><line class="cls-6" x1="1027.43" y1="1618.44" x2="1390.49" y2="1618.44"/><ellipse class="cls-3" cx="1195.09" cy="1257.51" rx="113.92" ry="121.62"/><path class="cls-9" d="M1214.34,1303.89l-40.74,62.57a5.77,5.77,0,0,1-8,1.67,6.08,6.08,0,0,1-1.37-1.26c-10.24-13-10.5-33.66.58-50.68s30-25.11,46.11-21a5.76,5.76,0,0,1,3.41,8.7Z" transform="translate(-1.46 -80.94)"/><path class="cls-9" d="M1229.26,1358.16c-11,16.85-29.67,24.95-45.63,21.14a5.74,5.74,0,0,1-4.23-6.94,5.58,5.58,0,0,1,.77-1.79l40.58-62.33a5.77,5.77,0,0,1,9.39-.36C1240.08,1320.93,1240.24,1341.3,1229.26,1358.16Z" transform="translate(-1.46 -80.94)"/></g></g><path class="cls-18" d="M1641.56,794.5c-4.32,2.17-7.09-1.32-10-3.13-52.28-32.13-70.82-88.09-49.88-148.78,12-34.83,36.46-59.58,64.84-81.05,36.47-27.6,77.86-45.78,120.72-60.79,16-5.62,32.43-10.32,48.62-15.54a19.86,19.86,0,0,1,13.89.54c19.67,7.59,34.13,21.4,46,38.2,21.22,29.92,32,64.1,39.5,99.44,4.89,22.91,10.17,46.11,9.2,69.48a227.35,227.35,0,0,1-22.38,89.29c-7.78,16.23-17.85,30.91-31.45,42.89-29,25.6-63.26,30.75-100.2,25.38a94.84,94.84,0,0,1-25.89-7.7c-16.19-7.4-32.45-14.66-48.68-22,2.9-3.1,5.78-6.22,8.71-9.3,18.77-19.73,36.52-40.3,50.74-63.64a29.67,29.67,0,0,1,9.28-9.6c25.44-16.87,48.84-36.18,69.07-59.12,16.32-18.51,30.13-38.6,38.58-62.09,2.11-5.88,1.84-9.22-4.81-11.27a91.42,91.42,0,0,1-16.82-7.3c-6-3.31-9.2-2.63-12.29,4.2a214.69,214.69,0,0,1-25.66,42.28c-6.93,9-14.22,17.77-24.58,23.28-1.21-2.06.06-3.37.64-4.79,8.9-21.67,17.63-43.41,26.87-64.93,2.4-5.61,2.29-8.31-4.17-10.21a194.49,194.49,0,0,1-23.11-8.82c-4.89-2.15-7.41-1.86-9.22,3.84-2.58,8.09-6.19,15.85-9.36,23.76-7.63,19.11-15.27,38.22-23.44,58.66-3.08-8.48-2.67-15.7-2.5-22.81.53-23.09,5.81-45.37,12.33-67.36,1.52-5.11.94-7.11-4.75-7.74-8.45-.93-16.83-2.64-25.2-4.23-3.81-.73-6.49-.41-8.3,3.75a264,264,0,0,0-10.54,27.58c-11.7,38.17-9.5,76.3.68,114.29,2.07,7.73.78,13.21-4.74,19.38C1683.19,751,1662.2,772.58,1641.56,794.5Z" transform="translate(-1.46 -80.94)"/><path class="cls-10" d="M1641.56,794.5c20.64-21.92,41.63-43.49,61.71-65.94,5.52-6.17,6.81-11.65,4.74-19.38-10.18-38-12.38-76.12-.68-114.29a264,264,0,0,1,10.54-27.58c1.81-4.16,4.49-4.48,8.3-3.75,8.37,1.59,16.75,3.3,25.2,4.23,5.69.63,6.27,2.63,4.75,7.74-6.52,22-11.8,44.27-12.33,67.36-.17,7.11-.58,14.33,2.5,22.81,8.17-20.44,15.81-39.55,23.44-58.66,3.17-7.91,6.78-15.67,9.36-23.76,1.81-5.7,4.33-6,9.22-3.84a194.49,194.49,0,0,0,23.11,8.82c6.46,1.9,6.57,4.6,4.17,10.21-9.24,21.52-18,43.26-26.87,64.93-.58,1.42-1.85,2.73-.64,4.79,10.36-5.51,17.65-14.28,24.58-23.28a214.69,214.69,0,0,0,25.66-42.28c3.09-6.83,6.25-7.51,12.29-4.2a91.42,91.42,0,0,0,16.82,7.3c6.65,2,6.92,5.39,4.81,11.27-8.45,23.49-22.26,43.58-38.58,62.09-20.23,22.94-43.63,42.25-69.07,59.12a29.67,29.67,0,0,0-9.28,9.6c-14.22,23.34-32,43.91-50.74,63.64-2.93,3.08-5.81,6.2-8.71,9.3-9.85-1.39-17.93-7.31-27-10.66-7.39-2.71-14.4-6.46-21.55-9.84C1644.72,799,1641.65,798.21,1641.56,794.5Z" transform="translate(-1.46 -80.94)"/></svg>